{
.appVersion = "3316";
.formatVersion = 3;
DisplayStrings = (
"ULTRAVIOLETT
Mut trägt Stolz
",
T,
"U/A.sc/B.sc/C.sc/D.sc/E.sc L",
"aáăâäàāąåãæbcćčçdðďđeéěêëėẹèēęẽfgğģhiıíîïìīįjȷkķlĺľłmnńňņñoóôöòőōøõœpþqrŕřŗsśšşßtťţuúûüùűūųůvwẃŵẅẁxyýŷÿỳzźžż"
);
customParameters = (
{
name = panose;
value = (
0,
0,
10,
0,
0,
0,
0,
0,
0,
0
);
},
{
name = unicodeRanges;
value = (
0,
1,
2
);
},
{
name = blueScale;
value = 0.037;
},
{
name = glyphOrder;
value = (
.notdef,
space,
A,
Aacute,
Abreve,
Acircumflex,
Adieresis,
Agrave,
Amacron,
Aogonek,
Aring,
Atilde,
AE,
B,
C,
Cacute,
Ccaron,
Ccedilla,
D,
Eth,
Dcaron,
Dcroat,
E,
Eacute,
Ecaron,
Ecircumflex,
Edieresis,
Edotaccent,
uni1EB8,
Egrave,
Emacron,
Eogonek,
uni1EBC,
F,
G,
Gbreve,
uni0122,
H,
I,
Iacute,
Icircumflex,
Idieresis,
Idotaccent,
Igrave,
Imacron,
Iogonek,
J,
K,
uni0136,
L,
Lacute,
Lcaron,
Lslash,
M,
N,
Nacute,
Ncaron,
uni0145,
Ntilde,
O,
Oacute,
Ocircumflex,
Odieresis,
Ograve,
Ohungarumlaut,
Omacron,
Oslash,
Otilde,
OE,
P,
Thorn,
Q,
R,
Racute,
Rcaron,
uni0156,
S,
Sacute,
Scaron,
Scedilla,
T,
Tcaron,
uni0162,
U,
Uacute,
Ucircumflex,
Udieresis,
Ugrave,
Uhungarumlaut,
Umacron,
Uogonek,
Uring,
V,
W,
Wacute,
Wcircumflex,
Wdieresis,
Wgrave,
X,
Y,
Yacute,
Ycircumflex,
Ydieresis,
Ygrave,
Z,
Zacute,
Zcaron,
Zdotaccent,
a,
aacute,
abreve,
acircumflex,
adieresis,
agrave,
amacron,
aogonek,
aring,
atilde,
ae,
b,
c,
cacute,
ccaron,
ccedilla,
d,
eth,
dcaron,
dcroat,
e,
eacute,
ecaron,
ecircumflex,
edieresis,
edotaccent,
uni1EB9,
egrave,
emacron,
eogonek,
uni1EBD,
f,
g,
gbreve,
uni0123,
h,
i,
dotlessi,
iacute,
icircumflex,
idieresis,
igrave,
imacron,
iogonek,
j,
uni0237,
k,
uni0137,
l,
lacute,
lcaron,
lslash,
m,
n,
nacute,
ncaron,
uni0146,
ntilde,
o,
oacute,
ocircumflex,
odieresis,
ograve,
ohungarumlaut,
omacron,
oslash,
otilde,
oe,
p,
thorn,
q,
r,
racute,
rcaron,
uni0157,
s,
sacute,
scaron,
scedilla,
germandbls,
t,
tcaron,
uni0163,
u,
uacute,
ucircumflex,
udieresis,
ugrave,
uhungarumlaut,
umacron,
uogonek,
uring,
v,
w,
wacute,
wcircumflex,

glyphs = (
{
glyphname = A;
kernLeft = A;
kernRight = A;
layers = (
{
anchors = (
{
name = bottom;
pos = (384,687);
}
);
hints = (
{
horizontal = 1;
place = (687,-20);
target = down;
type = TopGhost;
},
{
horizontal = 1;
place = (92,143);
type = Stem;
},
{
horizontal = 1;
place = (0,21);
target = up;
type = BottomGhost;
},
{
place = (10,747);
type = Stem;
}
);
layerId = m01;
shapes = (
{
closed = 1;
nodes = (
(538,0,l),
(757,0,l),
(493,687,l),
(274,687,l),
(10,0,l),
(229,0,l),
(264,92,l),
(503,92,l)
);
},
{
closed = 1;
nodes = (
(319,235,l),
(384,402,l),
(448,235,l)
);
}
);
width = 767;
}
);
note = A;
unicode = 65;
},
{
glyphname = Aacute;
kernLeft = A;
kernRight = A;
layers = (
{
anchors = (
{
name = bottom;
pos = (384,874);
}
);
hints = (
{
horizontal = 1;
place = (687,-20);
target = down;
type = TopGhost;
},
{
horizontal = 1;
place = (92,143);
type = Stem;
},
{
horizontal = 1;
place = (0,21);
target = up;
type = BottomGhost;
},
{
place = (10,747);
type = Stem;
}
);
layerId = m01;
shapes = (
{
closed = 1;
nodes = (
(597,880,l),
(431,908,l),
(319,744,l),
(445,744,l)
);
},
{
closed = 1;
nodes = (
(538,0,l),
(757,0,l),
(493,687,l),
(274,687,l),
(10,0,l),
(229,0,l),
(264,92,l),
(503,92,l)
);
},
{
closed = 1;
nodes = (
(319,235,l),
(384,402,l),
(448,235,l)
);
}
);
width = 767;
}
);
note = Aacute;
unicode = 193;
},
{
glyphname = Abreve;
kernLeft = A;
kernRight = A;
layers = (
{
anchors = (
{
name = bottom;
pos = (384,874);
}
);
hints = (
{
horizontal = 1;
place = (687,-20);
target = down;
type = TopGhost;
},
{
horizontal = 1;
place = (745,102);
type = Stem;
},
{
horizontal = 1;
place = (92,143);
type = Stem;
},
{
horizontal = 1;
place = (0,21);
target = up;
type = BottomGhost;
},
{
place = (10,747);
type = Stem;
}
);
layerId = m01;
shapes = (
{
closed = 1;
nodes = (
(481,890,l),
(454,863,o),
(418,847,o),
(384,847,cs),
(350,847,o),
(314,863,o),
(287,890,c),
(213,816,l),
(261,769,o),
(322,745,o),
(384,745,cs),
(446,745,o),
(508,769,o),
(555,816,c)
);
},
{
closed = 1;
nodes = (
(538,0,l),
(757,0,l),
(493,687,l),
(274,687,l),
(10,0,l),
(229,0,l),
(264,92,l),
(503,92,l)
);
},
{
closed = 1;
nodes = (
(319,235,l),
(384,402,l),
(448,235,l)
);
}
);
width = 767;
}
);
note = Abreve;
unicode = 258;
},
{
glyphname = Acircumflex;
kernLeft = A;
kernRight = A;
layers = (
{
anchors = (
{
name = bottom;
pos = (384,874);
}
);
hints = (
{
horizontal = 1;
place = (687,-20);
target = down;
type = TopGhost;
},
{
horizontal = 1;
place = (811,87);
type = Stem;
},
{
horizontal = 1;
place = (744,154);
type = Stem;
},
{
horizontal = 1;
place = (92,143);
type = Stem;
},
{
horizontal = 1;
place = (0,21);
target = up;
type = BottomGhost;
},
{
place = (10,747);
type = Stem;
}
);
layerId = m01;
shapes = (
{
closed = 1;
nodes = (
(384,811,l),
(458,744,l),
(571,744,l),
(462,898,l),
(307,898,l),
(199,744,l),
(311,744,l)
);
},
{
closed = 1;
nodes = (
(538,0,l),
(757,0,l),
(493,687,l),
(274,687,l),
(10,0,l),
(229,0,l),
(264,92,l),
(503,92,l)
);
},
{
closed = 1;
nodes = (
(319,235,l),
(384,402,l),
(448,235,l)
);
}
);
width = 767;
}
);
note = Acircumflex;
unicode = 194;
},
{
glyphname = Adieresis;
kernLeft = A;
kernRight = A;
layers = (
{
anchors = (
{
name = bottom;
pos = (384,874);
}
);
hints = (
{
horizontal = 1;
place = (687,-20);
target = down;
type = TopGhost;
},
{
horizontal = 1;
place = (745,173);
type = Stem;
},
{
horizontal = 1;
place = (92,143);
type = Stem;
},
{
horizontal = 1;
place = (0,21);
target = up;
type = BottomGhost;
},
{
place = (410,173);
type = Stem;
},
{
place = (185,173);
type = Stem;
}
);
layerId = m01;
shapes = (
{
closed = 1;
nodes = (
(319,745,o),
(358,784,o),
(358,832,cs),
(358,878,o),
(319,918,o),
(272,918,cs),
(222,918,o),
(185,878,o),
(185,832,cs),
(185,784,o),
(222,745,o),
(272,745,cs)
);
},
{
closed = 1;
nodes = (
(545,745,o),
(583,784,o),
(583,832,cs),
(583,878,o),
(545,918,o),
(497,918,cs),
(448,918,o),
(410,878,o),
(410,832,cs),
(410,784,o),
(448,745,o),
(497,745,cs)
);
},
{
closed = 1;
nodes = (
(538,0,l),
(757,0,l),
(493,687,l),
(274,687,l),
(10,0,l),
(229,0,l),
(264,92,l),
(503,92,l)
);
},
{
closed = 1;
nodes = (
(319,235,l),
(384,402,l),
(448,235,l)
);
}
);
width = 767;
}
);
note = Adieresis;
unicode = 196;
},
{
glyphname = Agrave;
kernLeft = A;
kernRight = A;
layers = (
{
anchors = (
{
name = bottom;
pos = (384,874);
}
);
hints = (
{
horizontal = 1;
place = (687,-20);
target = down;
type = TopGhost;
},
{
horizontal = 1;
place = (92,143);
type = Stem;
},
{
horizontal = 1;
place = (0,21);
target = up;
type = BottomGhost;
},
{
place = (10,747);
type = Stem;
}
);
layerId = m01;
shapes = (
{
closed = 1;
nodes = (
(451,744,l),
(339,908,l),
(173,880,l),
(325,744,l)
);
},
{
closed = 1;
nodes = (
(538,0,l),
(757,0,l),
(493,687,l),
(274,687,l),
(10,0,l),
(229,0,l),
(264,92,l),
(503,92,l)
);
},
{
closed = 1;
nodes = (
(319,235,l),
(384,402,l),
(448,235,l)
);
}
);
width = 767;
}
);
note = Agrave;
unicode = 192;
},
{
glyphname = Amacron;
kernLeft = A;
kernRight = A;
layers = (
{
anchors = (
{
name = bottom;
pos = (384,874);
}
);
hints = (
{
horizontal = 1;
place = (687,-20);
target = down;
type = TopGhost;
},
{
horizontal = 1;
place = (743,106);
type = Stem;
},
{
horizontal = 1;
place = (92,143);
type = Stem;
},
{
horizontal = 1;
place = (0,21);
target = up;
type = BottomGhost;
},
{
place = (199,369);
type = Stem;
}
);
layerId = m01;
shapes = (
{
closed = 1;
nodes = (
(568,849,l),
(199,849,l),
(199,743,l),
(568,743,l)
);
},
{
closed = 1;
nodes = (
(538,0,l),
(757,0,l),
(493,687,l),
(274,687,l),
(10,0,l),
(229,0,l),
(264,92,l),
(503,92,l)
);
},
{
closed = 1;
nodes = (
(319,235,l),
(384,402,l),
(448,235,l)
);
}
);
width = 767;
}
);
note = Amacron;
unicode = 256;
},
{
glyphname = Aogonek;
kernLeft = A;
kernRight = A;
layers = (
{
anchors = (
{
name = bottom;
pos = (384,687);
}
);
hints = (
{
horizontal = 1;
place = (687,-20);
target = down;
type = TopGhost;
},
{
horizontal = 1;
place = (92,143);
type = Stem;
},
{
horizontal = 1;
place = (-173,107);
type = Stem;
},
{
horizontal = 1;
place = (0,21);
target = up;
type = BottomGhost;
},
{
place = (605,114);
type = Stem;
}
);
layerId = m01;
shapes = (
{
closed = 1;
nodes = (
(788,-56,l),
(781,-62,o),
(769,-66,o),
(758,-66,cs),
(735,-66,o),
(719,-57,o),
(719,-36,cs),
(719,-15,o),
(734,0,o),
(757,0,c),
(493,687,l),
(274,687,l),
(10,0,l),
(229,0,l),
(264,92,l),
(503,92,l),
(538,0,l),
(620,0,l),
(610,-17,o),
(605,-36,o),
(605,-59,cs),
(605,-129,o),
(651,-173,o),
(717,-173,cs),
(756,-173,o),
(788,-158,o),
(810,-138,c)
);
},
{
closed = 1;
nodes = (
(319,235,l),
(384,402,l),
(448,235,l)
);
}
);
width = 767;
}
);
note = Aogonek;
unicode = 260;
},
{
glyphname = Aring;
kernLeft = A;
kernRight = A;
layers = (
{
anchors = (
{
name = bottom;
pos = (384,874);
}
);
hints = (
{
horizontal = 1;
place = (687,-20);
target = down;
type = TopGhost;
},
{
horizontal = 1;
place = (915,72);
type = Stem;
},
{
horizontal = 1;
place = (745,72);
type = Stem;
},
{
horizontal = 1;
place = (92,143);
type = Stem;
},
{
horizontal = 1;
place = (0,21);
target = up;
type = BottomGhost;
},
{
place = (433,72);
type = Stem;
},
{
place = (263,72);
type = Stem;
}
);
layerId = m01;
shapes = (
{
closed = 1;
nodes = (
(451,745,o),
(505,799,o),
(505,866,cs),
(505,933,o),
(451,987,o),
(384,987,cs),
(318,987,o),
(263,933,o),
(263,866,cs),
(263,799,o),
(318,745,o),
(384,745,cs)
);
},
{
closed = 1;
nodes = (
(411,915,o),
(433,893,o),
(433,866,cs),
(433,839,o),
(411,817,o),
(384,817,cs),
(357,817,o),
(335,839,o),
(335,866,cs),
(335,893,o),
(357,915,o),
(384,915,cs)
);
},
{
closed = 1;
nodes = (
(538,0,l),
(757,0,l),
(493,687,l),
(274,687,l),
(10,0,l),
(229,0,l),
(264,92,l),
(503,92,l)
);
},
{
closed = 1;
nodes = (
(319,235,l),
(384,402,l),
(448,235,l)
);
}
);
width = 767;
}
);
note = Aring;
unicode = 197;
},
{
glyphname = Atilde;
kernLeft = A;
kernRight = A;
layers = (
{
anchors = (
{
name = bottom;
pos = (384,874);
}
);
hints = (
{
horizontal = 1;
place = (687,-20);
target = down;
type = TopGhost;
},
{
horizontal = 1;
place = (782,112);
type = Stem;
},
{
horizontal = 1;
place = (741,112);
type = Stem;
},
{
horizontal = 1;
place = (92,143);
type = Stem;
},
{
horizontal = 1;
place = (0,21);
target = up;
type = BottomGhost;
},
{
place = (10,747);
type = Stem;
}
);
layerId = m01;
shapes = (
{
closed = 1;
nodes = (
(347,782,o),
(398,741,o),
(453,741,cs),
(526,741,o),
(564,787,o),
(574,882,c),
(484,895,l),
(478,867,o),
(467,853,o),
(447,853,cs),
(421,853,o),
(368,894,o),
(314,894,cs),
(241,894,o),
(204,848,o),
(193,753,c),
(283,740,l),
(289,769,o),
(300,782,o),
(320,782,cs)
);
},
{
closed = 1;
nodes = (
(538,0,l),
(757,0,l),
(493,687,l),
(274,687,l),
(10,0,l),
(229,0,l),
(264,92,l),
(503,92,l)
);
},
{
closed = 1;
nodes = (
(319,235,l),
(384,402,l),
(448,235,l)
);
}
);
width = 767;
}
);
note = Atilde;
unicode = 195;
},
{
glyphname = AE;
kernLeft = A;
kernRight = AE;
layers = (
{
hints = (
{
horizontal = 1;
place = (514,173);
type = Stem;
},
{
horizontal = 1;
place = (264,173);
type = Stem;
},
{
horizontal = 1;
place = (92,143);
type = Stem;
},
{
horizontal = 1;
place = (0,173);
type = Stem;
},
{
place = (528,194);
type = Stem;
}
);
layerId = m01;
shapes = (
{
closed = 1;
nodes = (
(7,0,l),
(231,0,l),
(284,92,l),
(528,92,l),
(528,0,l),
(1081,0,l),
(1081,173,l),
(722,173,l),
(722,264,l),
(1049,264,l),
(1049,437,l),
(722,437,l),
(722,514,l),
(1081,514,l),
(1081,687,l),
(404,687,l)
);
},
{
closed = 1;
nodes = (
(367,235,l),
(528,514,l),
(528,235,l)
);
}
);
width = 1135;
}
);
note = AE;
unicode = 198;
},
{
glyphname = B;
kernLeft = B;
kernRight = B;
layers = (
{
hints = (
{
horizontal = 1;
place = (524,163);
type = Stem;
},
{
horizontal = 1;
place = (273,147);
type = Stem;
},
{
horizontal = 1;
place = (0,163);
type = Stem;
},
{
place = (490,200);
type = Stem;
},
{
place = (458,200);
type = Stem;
},
{
place = (66,193);
type = Stem;
}
);
layerId = m01;
shapes = (
{
closed = 1;
nodes = (
(66,0,l),
(450,0,ls),
(590,0,o),
(690,75,o),
(690,185,cs),
(690,261,o),
(643,326,o),
(563,360,c),
(623,389,o),
(658,447,o),
(658,514,cs),
(658,614,o),
(567,687,o),
(436,687,cs),
(66,687,l)
);
},
{
closed = 1;
nodes = (
(259,420,l),
(259,524,l),
(389,524,ls),
(429,524,o),
(458,502,o),
(458,472,cs),
(458,442,o),
(429,420,o),
(389,420,cs)
);
},
{
closed = 1;
nodes = (
(259,163,l),
(259,273,l),
(418,273,ls),
(460,273,o),
(490,250,o),
(490,218,cs),
(490,186,o),
(460,163,o),
(418,163,cs)
);
}
);
width = 715;
}
);
note = B;
unicode = 66;
},
{
glyphname = C;
kernLeft = C;
kernRight = C;
layers = (
{
anchors = (
{
name = bottom;
pos = (398,687);
}
);
hints = (
{
horizontal = 1;
place = (523,176);
type = Stem;
},
{
horizontal = 1;
place = (-12,176);
type = Stem;
},
{
place = (24,200);
type = Stem;
}
);
layerId = m01;
shapes = (
{
closed = 1;
nodes = (
(508,-12,o),
(608,35,o),
(677,110,c),
(535,234,l),
(502,192,o),
(453,164,o),
(398,164,cs),
(304,164,o),
(224,246,o),
(224,344,cs),
(224,441,o),
(304,523,o),
(398,523,cs),
(452,523,o),
(502,495,o),
(534,453,c),
(677,578,l),
(608,652,o),
(508,699,o),
(398,699,cs),
(195,699,o),
(24,537,o),
(24,344,cs),
(24,151,o),
(195,-12,o),
(398,-12,cs)
);
}
);
width = 689;
}
);
note = C;
unicode = 67;
},
{
glyphname = Cacute;
kernLeft = C;
kernRight = C;
layers = (
{
anchors = (
{
name = bottom;
pos = (398,874);
}
);
hints = (
{
horizontal = 1;
place = (523,176);
type = Stem;
},
{
horizontal = 1;
place = (-12,176);
type = Stem;
},
{
place = (24,200);
type = Stem;
}
);
layerId = m01;
shapes = (
{
closed = 1;
nodes = (
(333,744,l),
(459,744,l),
(611,880,l),
(445,908,l)
);
},
{
closed = 1;
nodes = (
(508,-12,o),
(608,35,o),
(677,110,c),
(535,234,l),
(502,192,o),
(453,164,o),
(398,164,cs),
(304,164,o),
(224,246,o),
(224,344,cs),
(224,441,o),
(304,523,o),
(398,523,cs),
(452,523,o),
(502,495,o),
(534,453,c),
(677,578,l),
(608,652,o),
(508,699,o),
(398,699,cs),
(195,699,o),
(24,537,o),
(24,344,cs),
(24,151,o),
(195,-12,o),
(398,-12,cs)
);
}
);
width = 689;
}
);
note = Cacute;
unicode = 262;
},
{
glyphname = Ccaron;
kernLeft = C;
kernRight = C;
layers = (
{
anchors = (
{
name = bottom;
pos = (398,874);
}
);
hints = (
{
horizontal = 1;
place = (744,154);
type = Stem;
},
{
horizontal = 1;
place = (523,176);
type = Stem;
},
{
horizontal = 1;
place = (-12,176);
type = Stem;
},
{
place = (24,200);
type = Stem;
}
);
layerId = m01;
shapes = (
{
closed = 1;
nodes = (
(321,744,l),
(476,744,l),
(585,898,l),
(472,898,l),
(398,831,l),
(325,898,l),
(213,898,l)
);
},
{
closed = 1;
nodes = (
(508,-12,o),
(608,35,o),
(677,110,c),
(535,234,l),
(502,192,o),
(453,164,o),
(398,164,cs),
(304,164,o),
(224,246,o),
(224,344,cs),
(224,441,o),
(304,523,o),
(398,523,cs),
(452,523,o),
(502,495,o),
(534,453,c),
(677,578,l),
(608,652,o),
(508,699,o),
(398,699,cs),
(195,699,o),
(24,537,o),
(24,344,cs),
(24,151,o),
(195,-12,o),
(398,-12,cs)
);
}
);
width = 689;
}
);
note = Ccaron;
unicode = 268;
},
{
glyphname = Ccedilla;
kernLeft = C;
kernRight = C;
layers = (
{
anchors = (
{
name = bottom;
pos = (398,687);
}
);
hints = (
{
horizontal = 1;
place = (523,176);
type = Stem;
},
{
horizontal = 1;
place = (-78,36);
type = Stem;
},
{
horizontal = 1;
place = (-200,75);
type = Stem;
},
{
horizontal = 1;
place = (-9,21);
target = up;
type = BottomGhost;
},
{
place = (408,89);
type = Stem;
},
{
place = (24,200);
type = Stem;
}
);
layerId = m01;
shapes = (
{
closed = 1;
nodes = (
(304,164,o),
(224,246,o),
(224,344,cs),
(224,441,o),
(304,523,o),
(398,523,cs),
(452,523,o),
(502,495,o),
(534,453,c),
(677,578,l),
(608,652,o),
(508,699,o),
(398,699,cs),
(195,699,o),
(24,537,o),
(24,344,cs),
(24,167,o),
(169,15,o),
(350,-9,c),
(327,-62,l),
(353,-86,l),
(361,-81,o),
(371,-78,o),
(380,-78,cs),
(397,-78,o),
(408,-86,o),
(408,-100,cs),
(408,-116,o),
(391,-125,o),
(372,-125,cs),
(352,-125,o),
(331,-116,o),
(314,-102,c),
(283,-170,l),
(306,-187,o),
(344,-200,o),
(382,-200,cs),
(449,-200,o),
(497,-167,o),
(497,-111,cs),
(497,-73,o),
(468,-44,o),
(424,-42,c),
(438,-10,l),
(532,0,o),
(616,44,o),
(677,110,c),
(535,234,l),
(502,192,o),
(453,164,o),
(398,164,cs)
);
}
);
width = 689;
}
);
note = Ccedilla;
unicode = 199;
},
{
glyphname = D;
kernLeft = D;
kernRight = D;
layers = (
{
anchors = (
{
name = bottom;
pos = (322,687);
}
);
hints = (
{
horizontal = 1;
place = (511,176);
type = Stem;
},
{
horizontal = 1;
place = (0,176);
type = Stem;
},
{
place = (532,200);
type = Stem;
},
{
place = (66,194);
type = Stem;
}
);
layerId = m01;
shapes = (
{
closed = 1;
nodes = (
(66,0,l),
(322,0,ls),
(562,0,o),
(732,143,o),
(732,344,cs),
(732,545,o),
(562,687,o),
(322,687,cs),
(66,687,l)
);
},
{
closed = 1;
nodes = (
(260,176,l),
(260,511,l),
(354,511,ls),
(458,511,o),
(532,442,o),
(532,344,cs),
(532,246,o),
(458,176,o),
(354,176,cs)
);
}
);
width = 756;
}
);
note = D;
unicode = 68;
},
{
glyphname = Eth;
kernLeft = Eth;
kernRight = D;
layers = (
{
hints = (
{
horizontal = 1;
place = (511,176);
type = Stem;
},
{
horizontal = 1;
place = (258,173);
type = Stem;
},
{
horizontal = 1;
place = (0,176);
type = Stem;
},
{
place = (570,200);
type = Stem;
},
{
place = (104,194);
type = Stem;
}
);
layerId = m01;
shapes = (
{
closed = 1;
nodes = (
(104,687,l),
(104,431,l),
(20,431,l),
(20,258,l),
(104,258,l),
(104,0,l),
(360,0,ls),
(600,0,o),
(770,143,o),
(770,344,cs),
(770,545,o),
(600,687,o),
(360,687,cs)
);
},
{
closed = 1;
nodes = (
(298,176,l),
(298,258,l),
(418,258,l),
(419,431,l),
(298,431,l),
(298,511,l),
(392,511,ls),
(496,511,o),
(570,442,o),
(570,344,cs),
(570,246,o),
(496,176,o),
(392,176,cs)
);
}
);
width = 794;
}
);
note = Eth;
unicode = 208;
},
{
glyphname = Dcaron;
kernLeft = D;
kernRight = D;
layers = (
{
anchors = (
{
name = bottom;
pos = (322,874);
}
);
hints = (
{
horizontal = 1;
place = (744,154);
type = Stem;
},
{
horizontal = 1;
place = (511,176);
type = Stem;
},
{
horizontal = 1;
place = (0,176);
type = Stem;
},
{
place = (532,200);
type = Stem;
},
{
place = (66,194);
type = Stem;
}
);
layerId = m01;
shapes = (
{
closed = 1;
nodes = (
(245,744,l),
(400,744,l),
(509,898,l),
(396,898,l),
(322,831,l),
(249,898,l),
(137,898,l)
);
},
{
closed = 1;
nodes = (
(66,0,l),
(322,0,ls),
(562,0,o),
(732,143,o),
(732,344,cs),
(732,545,o),
(562,687,o),
(322,687,cs),
(66,687,l)
);
},
{
closed = 1;
nodes = (
(260,176,l),
(260,511,l),
(354,511,ls),
(458,511,o),
(532,442,o),
(532,344,cs),
(532,246,o),
(458,176,o),
(354,176,cs)
);
}
);
width = 756;
}
);
note = Dcaron;
unicode = 270;
},
{
glyphname = Dcroat;
kernLeft = Eth;
kernRight = D;
layers = (
{
hints = (
{
horizontal = 1;
place = (511,176);
type = Stem;
},
{
horizontal = 1;
place = (258,173);
type = Stem;
},
{
horizontal = 1;
place = (0,176);
type = Stem;
},
{
place = (570,200);
type = Stem;
},
{
place = (104,194);
type = Stem;
}
);
layerId = m01;
shapes = (
{
closed = 1;
nodes = (
(104,687,l),
(104,431,l),
(20,431,l),
(20,258,l),
(104,258,l),
(104,0,l),
(360,0,ls),
(600,0,o),
(770,143,o),
(770,344,cs),
(770,545,o),
(600,687,o),
(360,687,cs)
);
},
{
closed = 1;
nodes = (
(298,176,l),
(298,258,l),
(418,258,l),
(419,431,l),
(298,431,l),
(298,511,l),
(392,511,ls),
(496,511,o),
(570,442,o),
(570,344,cs),
(570,246,o),
(496,176,o),
(392,176,cs)
);
}
);
width = 794;
}
);
note = Dcroat;
unicode = 272;
},
{
glyphname = E;
kernLeft = E;
kernRight = AE;
layers = (
{
anchors = (
{
name = bottom;
pos = (343,687);
}
);
hints = (
{
horizontal = 1;
place = (514,173);
type = Stem;
},
{
horizontal = 1;
place = (264,173);
type = Stem;
},
{
horizontal = 1;
place = (0,173);
type = Stem;
},
{
place = (66,194);
type = Stem;
}
);
layerId = m01;
shapes = (
{
closed = 1;
nodes = (
(619,514,l),
(619,687,l),
(66,687,l),
(66,0,l),
(619,0,l),
(619,173,l),
(260,173,l),
(260,264,l),
(587,264,l),
(587,437,l),
(260,437,l),
(260,514,l)
);
}
);
width = 673;
}
);
note = E;
unicode = 69;
},
{
glyphname = Eacute;
kernLeft = E;
kernRight = AE;
layers = (
{
anchors = (
{
name = bottom;
pos = (343,874);
}
);
hints = (
{
horizontal = 1;
place = (514,173);
type = Stem;
},
{
horizontal = 1;
place = (264,173);
type = Stem;
},
{
horizontal = 1;
place = (0,173);
type = Stem;
},
{
place = (66,194);
type = Stem;
}
);
layerId = m01;
shapes = (
{
closed = 1;
nodes = (
(556,880,l),
(390,908,l),
(278,744,l),
(404,744,l)
);
},
{
closed = 1;
nodes = (
(619,514,l),
(619,687,l),
(66,687,l),
(66,0,l),
(619,0,l),
(619,173,l),
(260,173,l),
(260,264,l),
(587,264,l),
(587,437,l),
(260,437,l),
(260,514,l)
);
}
);
width = 673;
}
);
note = Eacute;
unicode = 201;
},
{
glyphname = Ecaron;
kernLeft = E;
kernRight = AE;
layers = (
{
anchors = (
{
name = bottom;
pos = (343,874);
}
);
hints = (
{
horizontal = 1;
place = (744,154);
type = Stem;
},
{
horizontal = 1;
place = (514,173);
type = Stem;
},
{
horizontal = 1;
place = (264,173);
type = Stem;
},
{
horizontal = 1;
place = (0,173);
type = Stem;
},
{
place = (66,194);
type = Stem;
}
);
layerId = m01;
shapes = (
{
closed = 1;
nodes = (
(421,744,l),
(530,898,l),
(417,898,l),
(343,831,l),
(270,898,l),
(158,898,l),
(266,744,l)
);
},
{
closed = 1;
nodes = (
(619,514,l),
(619,687,l),
(66,687,l),
(66,0,l),
(619,0,l),
(619,173,l),
(260,173,l),
(260,264,l),
(587,264,l),
(587,437,l),
(260,437,l),
(260,514,l)
);
}
);
width = 673;
}
);
note = Ecaron;
unicode = 282;
},
{
glyphname = Ecircumflex;
kernLeft = E;
kernRight = AE;
layers = (
{
anchors = (
{
name = bottom;
pos = (343,874);
}
);
hints = (
{
horizontal = 1;
place = (811,87);
type = Stem;
},
{
horizontal = 1;
place = (744,154);
type = Stem;
},
{
horizontal = 1;
place = (514,173);
type = Stem;
},
{
horizontal = 1;
place = (264,173);
type = Stem;
},
{
horizontal = 1;
place = (0,173);
type = Stem;
},
{
place = (66,194);
type = Stem;
}
);
layerId = m01;
shapes = (
{
closed = 1;
nodes = (
(343,811,l),
(417,744,l),
(530,744,l),
(421,898,l),
(266,898,l),
(158,744,l),
(270,744,l)
);
},
{
closed = 1;
nodes = (
(619,514,l),
(619,687,l),
(66,687,l),
(66,0,l),
(619,0,l),
(619,173,l),
(260,173,l),
(260,264,l),
(587,264,l),
(587,437,l),
(260,437,l),
(260,514,l)
);
}
);
width = 673;
}
);
note = Ecircumflex;
unicode = 202;
},
{
glyphname = Edieresis;
kernLeft = E;
kernRight = AE;
layers = (
{
anchors = (
{
name = bottom;
pos = (343,874);
}
);
hints = (
{
horizontal = 1;
place = (745,173);
type = Stem;
},
{
horizontal = 1;
place = (514,173);
type = Stem;
},
{
horizontal = 1;
place = (264,173);
type = Stem;
},
{
horizontal = 1;
place = (0,173);
type = Stem;
},
{
place = (369,250);
type = Stem;
},
{
place = (369,173);
type = Stem;
},
{
place = (144,173);
type = Stem;
},
{
place = (66,194);
type = Stem;
}
);
layerId = m01;
shapes = (
{
closed = 1;
nodes = (
(278,745,o),
(317,784,o),
(317,832,cs),
(317,878,o),
(278,918,o),
(231,918,cs),
(181,918,o),
(144,878,o),
(144,832,cs),
(144,784,o),
(181,745,o),
(231,745,cs)
);
},
{
closed = 1;
nodes = (
(504,745,o),
(542,784,o),
(542,832,cs),
(542,878,o),
(504,918,o),
(456,918,cs),
(407,918,o),
(369,878,o),
(369,832,cs),
(369,784,o),
(407,745,o),
(456,745,cs)
);
},
{
closed = 1;
nodes = (
(619,514,l),
(619,687,l),
(66,687,l),
(66,0,l),
(619,0,l),
(619,173,l),
(260,173,l),
(260,264,l),
(587,264,l),
(587,437,l),
(260,437,l),
(260,514,l)
);
}
);
width = 673;
}
);
note = Edieresis;
unicode = 203;
},
{
glyphname = Edotaccent;
kernLeft = E;
kernRight = AE;
layers = (
{
anchors = (
{
name = bottom;
pos = (343,874);
}
);
hints = (
{
horizontal = 1;
place = (745,173);
type = Stem;
},
{
horizontal = 1;
place = (514,173);
type = Stem;
},
{
horizontal = 1;
place = (264,173);
type = Stem;
},
{
horizontal = 1;
place = (0,173);
type = Stem;
},
{
place = (256,173);
type = Stem;
},
{
place = (66,194);
type = Stem;
}
);
layerId = m01;
shapes = (
{
closed = 1;
nodes = (
(390,745,o),
(429,784,o),
(429,832,cs),
(429,878,o),
(390,918,o),
(343,918,cs),
(293,918,o),
(256,878,o),
(256,832,cs),
(256,784,o),
(293,745,o),
(343,745,cs)
);
},
{
closed = 1;
nodes = (
(619,514,l),
(619,687,l),
(66,687,l),
(66,0,l),
(619,0,l),
(619,173,l),
(260,173,l),
(260,264,l),
(587,264,l),
(587,437,l),
(260,437,l),
(260,514,l)
);
}
);
width = 673;
}
);
note = Edotaccent;
unicode = 278;
},
{
glyphname = uni1EB8;
kernLeft = E;
kernRight = AE;
layers = (
{
anchors = (
{
name = bottom;
pos = (343,687);
}
);
hints = (
{
horizontal = 1;
place = (514,173);
type = Stem;
},
{
horizontal = 1;
place = (264,173);
type = Stem;
},
{
horizontal = 1;
place = (0,173);
type = Stem;
},
{
horizontal = 1;
place = (-237,173);
type = Stem;
},
{
place = (237,173);
type = Stem;
},
{
place = (66,194);
type = Stem;
}
);
layerId = m01;
shapes = (
{
closed = 1;
nodes = (
(619,514,l),
(619,687,l),
(66,687,l),
(66,0,l),
(619,0,l),
(619,173,l),
(260,173,l),
(260,264,l),
(587,264,l),
(587,437,l),
(260,437,l),
(260,514,l)
);
},
{
closed = 1;
nodes = (
(274,-64,o),
(237,-104,o),
(237,-150,cs),
(237,-198,o),
(274,-237,o),
(324,-237,cs),
(371,-237,o),
(410,-198,o),
(410,-150,cs),
(410,-104,o),
(371,-64,o),
(324,-64,cs)
);
}
);
width = 672;
}
);
note = uni1EB8;
unicode = 7864;
},
{
glyphname = Egrave;
kernLeft = E;
kernRight = AE;
layers = (
{
anchors = (
{
name = bottom;
pos = (343,874);
}
);
hints = (
{
horizontal = 1;
place = (514,173);
type = Stem;
},
{
horizontal = 1;
place = (264,173);
type = Stem;
},
{
horizontal = 1;
place = (0,173);
type = Stem;
},
{
place = (66,194);
type = Stem;
}
);
layerId = m01;
shapes = (
{
closed = 1;
nodes = (
(410,744,l),
(298,908,l),
(132,880,l),
(284,744,l)
);
},
{
closed = 1;
nodes = (
(619,514,l),
(619,687,l),
(66,687,l),
(66,0,l),
(619,0,l),
(619,173,l),
(260,173,l),
(260,264,l),
(587,264,l),
(587,437,l),
(260,437,l),
(260,514,l)
);
}
);
width = 673;
}
);
note = Egrave;
unicode = 200;
},
{
glyphname = Emacron;
kernLeft = E;
kernRight = AE;
layers = (
{
anchors = (
{
name = bottom;
pos = (343,874);
}
);
hints = (
{
horizontal = 1;
place = (743,106);
type = Stem;
},
{
horizontal = 1;
place = (514,173);
type = Stem;
},
{
horizontal = 1;
place = (264,173);
type = Stem;
},
{
horizontal = 1;
place = (0,173);
type = Stem;
},
{
place = (158,369);
type = Stem;
},
{
place = (66,194);
type = Stem;
}
);
layerId = m01;
shapes = (
{
closed = 1;
nodes = (
(527,849,l),
(158,849,l),
(158,743,l),
(527,743,l)
);
},
{
closed = 1;
nodes = (
(619,514,l),
(619,687,l),
(66,687,l),
(66,0,l),
(619,0,l),
(619,173,l),
(260,173,l),
(260,264,l),
(587,264,l),
(587,437,l),
(260,437,l),
(260,514,l)
);
}
);
width = 673;
}
);
note = Emacron;
unicode = 274;
},
{
glyphname = Eogonek;
kernLeft = E;
kernRight = AE;
layers = (
{
anchors = (
{
name = bottom;
pos = (343,687);
}
);
hints = (
{
horizontal = 1;
place = (514,173);
type = Stem;
},
{
horizontal = 1;
place = (264,173);
type = Stem;
},
{
horizontal = 1;
place = (0,173);
type = Stem;
},
{
horizontal = 1;
place = (-173,107);
type = Stem;
},
{
place = (467,152);
type = Stem;
},
{
place = (467,114);
type = Stem;
},
{
place = (66,194);
type = Stem;
}
);
layerId = m01;
shapes = (
{
closed = 1;
nodes = (
(650,-56,l),
(643,-62,o),
(631,-66,o),
(620,-66,cs),
(597,-66,o),
(581,-57,o),
(581,-36,cs),
(581,-15,o),
(596,0,o),
(619,0,c),
(619,173,l),
(260,173,l),
(260,264,l),
(587,264,l),
(587,437,l),
(260,437,l),
(260,514,l),
(619,514,l),
(619,687,l),
(66,687,l),
(66,0,l),
(482,0,l),
(472,-17,o),
(467,-36,o),
(467,-59,cs),
(467,-129,o),
(513,-173,o),
(579,-173,cs),
(618,-173,o),
(650,-158,o),
(672,-138,c)
);
}
);
width = 673;
}
);
note = Eogonek;
unicode = 280;
},
{
glyphname = uni1EBC;
kernLeft = E;
kernRight = AE;
layers = (
{
anchors = (
{
name = bottom;
pos = (343,874);
}
);
hints = (
{
horizontal = 1;
place = (782,112);
type = Stem;
},
{
horizontal = 1;
place = (741,112);
type = Stem;
},
{
horizontal = 1;
place = (514,173);
type = Stem;
},
{
horizontal = 1;
place = (264,173);
type = Stem;
},
{
horizontal = 1;
place = (0,173);
type = Stem;
},
{
place = (66,194);
type = Stem;
},
{
place = (66,176);
type = Stem;
}
);
layerId = m01;
shapes = (
{
closed = 1;
nodes = (
(306,782,o),
(357,741,o),
(412,741,cs),
(485,741,o),
(523,787,o),
(533,882,c),
(443,895,l),
(437,867,o),
(426,853,o),
(406,853,cs),
(380,853,o),
(327,894,o),
(273,894,cs),
(200,894,o),
(163,848,o),
(152,753,c),
(242,740,l),
(248,769,o),
(259,782,o),
(279,782,cs)
);
},
{
closed = 1;
nodes = (
(619,514,l),
(619,687,l),
(66,687,l),
(66,0,l),
(619,0,l),
(619,173,l),
(260,173,l),
(260,264,l),
(587,264,l),
(587,437,l),
(260,437,l),
(260,514,l)
);
}
);
width = 673;
}
);
note = uni1EBC;
unicode = 7868;
},
{
glyphname = F;
kernLeft = F;
kernRight = F;
layers = (
{
hints = (
{
horizontal = 1;
place = (514,173);
type = Stem;
},
{
horizontal = 1;
place = (244,173);
type = Stem;
},
{
horizontal = 1;
place = (0,21);
target = up;
type = BottomGhost;
},
{
place = (66,194);
type = Stem;
}
);
layerId = m01;
shapes = (
{
closed = 1;
nodes = (
(619,514,l),
(619,687,l),
(66,687,l),
(66,0,l),
(260,0,l),
(260,244,l),
(587,244,l),
(587,417,l),
(260,417,l),
(260,514,l)
);
}
);
width = 651;
}
);
note = F;
unicode = 70;
},
{
glyphname = G;
kernLeft = G;
kernRight = G;
layers = (
{
anchors = (
{
name = bottom;
pos = (403,687);
}
);
hints = (
{
horizontal = 1;
place = (523,176);
type = Stem;
},
{
horizontal = 1;
place = (259,143);
type = Stem;
},
{
horizontal = 1;
place = (-12,176);
type = Stem;
},
{
place = (499,188);
type = Stem;
},
{
place = (365,322);
type = Stem;
},
{
place = (24,200);
type = Stem;
}
);
layerId = m01;
shapes = (
{
closed = 1;
nodes = (
(365,259,l),
(499,259,l),
(499,192,l),
(470,174,o),
(437,164,o),
(403,164,cs),
(305,164,o),
(224,245,o),
(224,344,cs),
(224,442,o),
(305,523,o),
(403,523,cs),
(458,523,o),
(510,497,o),
(544,453,c),
(687,578,l),
(616,654,o),
(511,699,o),
(403,699,cs),
(195,699,o),
(24,539,o),
(24,344,cs),
(24,148,o),
(195,-12,o),
(403,-12,cs),
(511,-12,o),
(616,33,o),
(687,110,c),
(687,402,l),
(365,402,l)
);
}
);
width = 725;
}
);
note = G;
unicode = 71;
},
{
glyphname = Gbreve;
kernLeft = G;
kernRight = G;
layers = (
{
anchors = (
{
name = bottom;
pos = (403,874);
}
);
hints = (
{
horizontal = 1;
place = (745,102);
type = Stem;
},
{
horizontal = 1;
place = (523,176);
type = Stem;
},
{
horizontal = 1;
place = (259,143);
type = Stem;
},
{
horizontal = 1;
place = (-12,176);
type = Stem;
},
{
place = (499,188);
type = Stem;
},
{
place = (365,322);
type = Stem;
},
{
place = (24,200);
type = Stem;
}
);
layerId = m01;
shapes = (
{
closed = 1;
nodes = (
(500,890,l),
(473,863,o),
(437,847,o),
(403,847,cs),
(369,847,o),
(333,863,o),
(306,890,c),
(232,816,l),
(280,769,o),
(341,745,o),
(403,745,cs),
(465,745,o),
(527,769,o),
(574,816,c)
);
},
{
closed = 1;
nodes = (
(365,259,l),
(499,259,l),
(499,192,l),
(470,174,o),
(437,164,o),
(403,164,cs),
(305,164,o),
(224,245,o),
(224,344,cs),
(224,442,o),
(305,523,o),
(403,523,cs),
(458,523,o),
(510,497,o),
(544,453,c),
(687,578,l),
(616,654,o),
(511,699,o),
(403,699,cs),
(195,699,o),
(24,539,o),
(24,344,cs),
(24,148,o),
(195,-12,o),
(403,-12,cs),
(511,-12,o),
(616,33,o),
(687,110,c),
(687,402,l),
(365,402,l)
);
}
);
width = 725;
}
);
note = Gbreve;
unicode = 286;
},
{
glyphname = uni0122;
kernLeft = G;
kernRight = G;
layers = (
{
anchors = (
{
name = bottom;
pos = (403,687);
}
);
hints = (
{
horizontal = 1;
place = (523,176);
type = Stem;
},
{
horizontal = 1;
place = (259,143);
type = Stem;
},
{
horizontal = 1;
place = (-12,176);
type = Stem;
},
{
horizontal = 1;
place = (-195,172);
type = Stem;
},
{
place = (499,188);
type = Stem;
},
{
place = (365,322);
type = Stem;
},
{
place = (319,171);
type = Stem;
},
{
place = (24,200);
type = Stem;
}
);
layerId = m01;
shapes = (
{
closed = 1;
nodes = (
(365,259,l),
(499,259,l),
(499,192,l),
(470,174,o),
(437,164,o),
(403,164,cs),
(305,164,o),
(224,245,o),
(224,344,cs),
(224,442,o),
(305,523,o),
(403,523,cs),
(458,523,o),
(510,497,o),
(544,453,c),
(687,578,l),
(616,654,o),
(511,699,o),
(403,699,cs),
(195,699,o),
(24,539,o),
(24,344,cs),
(24,148,o),
(195,-12,o),
(403,-12,cs),
(511,-12,o),
(616,33,o),
(687,110,c),
(687,402,l),
(365,402,l)
);
},
{
closed = 1;
nodes = (
(354,-23,o),
(319,-59,o),
(319,-110,cs),
(319,-160,o),
(352,-195,o),
(400,-195,c),
(394,-218,o),
(374,-246,o),
(351,-265,c),
(397,-301,l),
(452,-256,o),
(490,-188,o),
(490,-128,cs),
(490,-70,o),
(454,-23,o),
(403,-23,cs)
);
}
);
width = 725;
}
);
note = uni0122;
unicode = 290;
},
{
glyphname = H;
kernLeft = H;
kernRight = H;
layers = (
{
hints = (
{
horizontal = 1;
place = (687,-20);
target = down;
type = TopGhost;
},
{
horizontal = 1;
place = (264,173);
type = Stem;
},
{
horizontal = 1;
place = (0,21);
target = up;
type = BottomGhost;
},
{
place = (511,194);
type = Stem;
},
{
place = (66,194);
type = Stem;
}
);
layerId = m01;
shapes = (
{
closed = 1;
nodes = (
(511,687,l),
(511,437,l),
(260,437,l),
(260,687,l),
(66,687,l),
(66,0,l),
(260,0,l),
(260,264,l),
(511,264,l),
(511,0,l),
(705,0,l),
(705,687,l)
);
}
);
width = 771;
}
);
note = H;
unicode = 72;
},
{
glyphname = I;
kernLeft = I;
kernRight = I;
layers = (
{
anchors = (
{
name = bottom;
pos = (163,687);
}
);
hints = (
{
horizontal = 1;
place = (687,-20);
target = down;
type = TopGhost;
},
{
horizontal = 1;
place = (0,21);
target = up;
type = BottomGhost;
},
{
place = (66,194);
type = Stem;
}
);
layerId = m01;
shapes = (
{
closed = 1;
nodes = (
(66,0,l),
(260,0,l),
(260,687,l),
(66,687,l)
);
}
);
width = 326;
}
);
note = I;
unicode = 73;
},
{
glyphname = Iacute;
kernLeft = I;
kernRight = I;
layers = (
{
anchors = (
{
name = bottom;
pos = (163,874);
}
);
hints = (
{
horizontal = 1;
place = (687,-20);
target = down;
type = TopGhost;
},
{
horizontal = 1;
place = (0,21);
target = up;
type = BottomGhost;
},
{
place = (66,194);
type = Stem;
}
);
layerId = m01;
shapes = (
{
closed = 1;
nodes = (
(98,744,l),
(224,744,l),
(376,880,l),
(210,908,l)
);
},
{
closed = 1;
nodes = (
(66,0,l),
(260,0,l),
(260,687,l),
(66,687,l)
);
}
);
width = 326;
}
);
note = Iacute;
unicode = 205;
},
{
glyphname = Icircumflex;
kernLeft = I;
kernRight = I;
layers = (
{
anchors = (
{
name = bottom;
pos = (163,874);
}
);
hints = (
{
horizontal = 1;
place = (687,-20);
target = down;
type = TopGhost;
},
{
horizontal = 1;
place = (811,87);
type = Stem;
},
{
horizontal = 1;
place = (744,154);
type = Stem;
},
{
horizontal = 1;
place = (0,21);
target = up;
type = BottomGhost;
},
{
place = (66,194);
type = Stem;
}
);
layerId = m01;
shapes = (
{
closed = 1;
nodes = (
(-22,744,l),
(90,744,l),
(163,811,l),
(237,744,l),
(350,744,l),
(241,898,l),
(86,898,l)
);
},
{
closed = 1;
nodes = (
(66,0,l),
(260,0,l),
(260,687,l),
(66,687,l)
);
}
);
width = 326;
}
);
note = Icircumflex;
unicode = 206;
},
{
glyphname = Idieresis;
kernLeft = I;
kernRight = I;
layers = (
{
anchors = (
{
name = bottom;
pos = (163,874);
}
);
hints = (
{
horizontal = 1;
place = (687,-20);
target = down;
type = TopGhost;
},
{
horizontal = 1;
place = (745,173);
type = Stem;
},
{
horizontal = 1;
place = (0,21);
target = up;
type = BottomGhost;
},
{
place = (189,173);
type = Stem;
},
{
place = (189,71);
type = Stem;
},
{
place = (66,194);
type = Stem;
},
{
place = (66,71);
type = Stem;
},
{
place = (-36,173);
type = Stem;
}
);
layerId = m01;
shapes = (
{
closed = 1;
nodes = (
(98,745,o),
(137,784,o),
(137,832,cs),
(137,878,o),
(98,918,o),
(51,918,cs),
(1,918,o),
(-36,878,o),
(-36,832,cs),
(-36,784,o),
(1,745,o),
(51,745,cs)
);
},
{
closed = 1;
nodes = (
(324,745,o),
(362,784,o),
(362,832,cs),
(362,878,o),
(324,918,o),
(276,918,cs),
(227,918,o),
(189,878,o),
(189,832,cs),
(189,784,o),
(227,745,o),
(276,745,cs)
);
},
{
closed = 1;
nodes = (
(66,0,l),
(260,0,l),
(260,687,l),
(66,687,l)
);
}
);
width = 326;
}
);
note = Idieresis;
unicode = 207;
},
{
glyphname = Idotaccent;
kernLeft = I;
kernRight = I;
layers = (
{
anchors = (
{
name = bottom;
pos = (163,874);
}
);
hints = (
{
horizontal = 1;
place = (687,-20);
target = down;
type = TopGhost;
},
{
horizontal = 1;
place = (745,173);
type = Stem;
},
{
horizontal = 1;
place = (0,21);
target = up;
type = BottomGhost;
},
{
place = (76,173);
type = Stem;
},
{
place = (66,194);
type = Stem;
},
{
place = (66,183);
type = Stem;
}
);
layerId = m01;
shapes = (
{
closed = 1;
nodes = (
(210,745,o),
(249,784,o),
(249,832,cs),
(249,878,o),
(210,918,o),
(163,918,cs),
(113,918,o),
(76,878,o),
(76,832,cs),
(76,784,o),
(113,745,o),
(163,745,cs)
);
},
{
closed = 1;
nodes = (
(66,0,l),
(260,0,l),
(260,687,l),
(66,687,l)
);
}
);
width = 326;
}
);
note = Idotaccent;
unicode = 304;
},
{
glyphname = Igrave;
kernLeft = I;
kernRight = I;
layers = (
{
anchors = (
{
name = bottom;
pos = (163,874);
}
);
hints = (
{
horizontal = 1;
place = (687,-20);
target = down;
type = TopGhost;
},
{
horizontal = 1;
place = (0,21);
target = up;
type = BottomGhost;
},
{
place = (66,194);
type = Stem;
}
);
layerId = m01;
shapes = (
{
closed = 1;
nodes = (
(104,744,l),
(230,744,l),
(118,908,l),
(-48,880,l)
);
},
{
closed = 1;
nodes = (
(66,0,l),
(260,0,l),
(260,687,l),
(66,687,l)
);
}
);
width = 326;
}
);
note = Igrave;
unicode = 204;
},
{
glyphname = Imacron;
kernLeft = I;
kernRight = I;
layers = (
{
anchors = (
{
name = bottom;
pos = (163,874);
}
);
hints = (
{
horizontal = 1;
place = (687,-20);
target = down;
type = TopGhost;
},
{
horizontal = 1;
place = (743,106);
type = Stem;
},
{
horizontal = 1;
place = (0,21);
target = up;
type = BottomGhost;
},
{
place = (66,194);
type = Stem;
}
);
layerId = m01;
shapes = (
{
closed = 1;
nodes = (
(-22,743,l),
(347,743,l),
(347,849,l),
(-22,849,l)
);
},
{
closed = 1;
nodes = (
(66,0,l),
(260,0,l),
(260,687,l),
(66,687,l)
);
}
);
width = 326;
}
);
note = Imacron;
unicode = 298;
},
{
glyphname = Iogonek;
kernLeft = I;
kernRight = I;
layers = (
{
anchors = (
{
name = bottom;
pos = (163,687);
}
);
hints = (
{
horizontal = 1;
place = (687,-20);
target = down;
type = TopGhost;
},
{
horizontal = 1;
place = (-173,107);
type = Stem;
},
{
horizontal = 1;
place = (0,21);
target = up;
type = BottomGhost;
},
{
place = (108,152);
type = Stem;
},
{
place = (66,194);
type = Stem;
},
{
place = (66,156);
type = Stem;
}
);
layerId = m01;
shapes = (
{
closed = 1;
nodes = (
(291,-56,l),
(284,-62,o),
(272,-66,o),
(261,-66,cs),
(238,-66,o),
(222,-57,o),
(222,-36,cs),
(222,-15,o),
(237,0,o),
(260,0,c),
(260,687,l),
(66,687,l),
(66,0,l),
(123,0,l),
(113,-17,o),
(108,-36,o),
(108,-59,cs),
(108,-129,o),
(154,-173,o),
(220,-173,cs),
(259,-173,o),
(291,-158,o),
(313,-138,c)
);
}
);
width = 326;
}
);
note = Iogonek;
unicode = 302;
},
{
glyphname = J;
kernLeft = J;
kernRight = J;
layers = (
{
hints = (
{
horizontal = 1;
place = (687,-20);
target = down;
type = TopGhost;
},
{
horizontal = 1;
place = (-12,176);
type = Stem;
},
{
place = (302,194);
type = Stem;
}
);
layerId = m01;
shapes = (
{
closed = 1;
nodes = (
(393,-12,o),
(496,86,o),
(496,224,cs),
(496,687,l),
(302,687,l),
(302,244,ls),
(302,197,o),
(268,164,o),
(221,164,cs),
(186,164,o),
(148,189,o),
(129,224,c),
(4,102,l),
(53,35,o),
(154,-12,o),
(247,-12,cs)
);
}
);
width = 549;
}
);
note = J;
unicode = 74;
},
{
glyphname = K;
kernLeft = K;
kernRight = K;
layers = (
{
hints = (
{
horizontal = 1;
place = (687,-20);
target = down;
type = TopGhost;
},
{
horizontal = 1;
place = (0,21);
target = up;
type = BottomGhost;
},
{
place = (66,194);
type = Stem;
}
);
layerId = m01;
shapes = (
{
closed = 1;
nodes = (
(66,0,l),
(260,0,l),
(260,182,l),
(331,260,l),
(508,0,l),
(740,0,l),
(466,400,l),
(720,687,l),
(491,687,l),
(260,416,l),
(260,687,l),
(66,687,l)
);
}
);
width = 750;
}
);
note = K;
unicode = 75;
},
{
glyphname = uni0136;
kernLeft = K;
kernRight = K;
layers = (
{
hints = (
{
horizontal = 1;
place = (687,-20);
target = down;
type = TopGhost;
},
{
horizontal = 1;
place = (-195,172);
type = Stem;
},
{
horizontal = 1;
place = (0,21);
target = up;
type = BottomGhost;
},
{
place = (319,171);
type = Stem;
},
{
place = (66,194);
type = Stem;
}
);
layerId = m01;
shapes = (
{
closed = 1;
nodes = (
(66,0,l),
(260,0,l),
(260,182,l),
(331,260,l),
(508,0,l),
(740,0,l),
(466,400,l),
(720,687,l),
(491,687,l),
(260,416,l),
(260,687,l),
(66,687,l)
);
},
{
closed = 1;
nodes = (
(397,-301,l),
(452,-256,o),
(490,-188,o),
(490,-128,cs),
(490,-70,o),
(454,-23,o),
(403,-23,cs),
(354,-23,o),
(319,-59,o),
(319,-110,cs),
(319,-160,o),
(352,-195,o),
(400,-195,c),
(394,-218,o),
(374,-246,o),
(351,-265,c)
);
}
);
width = 750;
}
);
note = uni0136;
unicode = 310;
},
{
glyphname = L;
kernLeft = L;
kernRight = L;
layers = (
{
anchors = (
{
name = bottom;
pos = (162,687);
}
);
hints = (
{
horizontal = 1;
place = (687,-20);
target = down;
type = TopGhost;
},
{
horizontal = 1;
place = (0,173);
type = Stem;
},
{
place = (66,194);
type = Stem;
}
);
layerId = m01;
shapes = (
{
closed = 1;
nodes = (
(260,173,l),
(260,687,l),
(66,687,l),
(66,0,l),
(580,0,l),
(580,173,l)
);
}
);
width = 600;
}
);
note = L;
unicode = 76;
},
{
glyphname = Lacute;
kernLeft = L;
kernRight = L;
layers = (
{
anchors = (
{
name = bottom;
pos = (162,874);
}
);
hints = (
{
horizontal = 1;
place = (687,-20);
target = down;
type = TopGhost;
},
{
horizontal = 1;
place = (0,173);
type = Stem;
},
{
place = (66,194);
type = Stem;
}
);
layerId = m01;
shapes = (
{
closed = 1;
nodes = (
(375,880,l),
(209,908,l),
(97,744,l),
(223,744,l)
);
},
{
closed = 1;
nodes = (
(260,173,l),
(260,687,l),
(66,687,l),
(66,0,l),
(580,0,l),
(580,173,l)
);
}
);
width = 600;
}
);
note = Lacute;
unicode = 313;
},
{
glyphname = Lcaron;
kernLeft = L;
kernRight = L;
layers = (
{
anchors = (
{
name = bottom;
pos = (162,687);
}
);
hints = (
{
horizontal = 1;
place = (687,-20);
target = down;
type = TopGhost;
},
{
horizontal = 1;
place = (526,172);
type = Stem;
},
{
horizontal = 1;
place = (0,173);
type = Stem;
},
{
place = (316,171);
type = Stem;
},
{
place = (66,194);
type = Stem;
}
);
layerId = m01;
shapes = (
{
closed = 1;
nodes = (
(391,503,o),
(371,475,o),
(348,456,c),
(394,420,l),
(449,465,o),
(487,533,o),
(487,593,cs),
(487,651,o),
(451,698,o),
(400,698,cs),
(351,698,o),
(316,662,o),
(316,611,cs),
(316,561,o),
(349,526,o),
(397,526,c)
);
},
{
closed = 1;
nodes = (
(260,173,l),
(260,687,l),
(66,687,l),
(66,0,l),
(580,0,l),
(580,173,l)
);
}
);
width = 600;
}
);
note = Lcaron;
unicode = 317;
},
{
glyphname = Lslash;
kernLeft = Lslash;
kernRight = Lslash;
layers = (
{
anchors = (
{
name = bottom;
pos = (199,687);
}
);
hints = (
{
horizontal = 1;
place = (687,-20);
target = down;
type = TopGhost;
},
{
horizontal = 1;
place = (525,-20);
target = down;
type = TopGhost;
},
{
horizontal = 1;
place = (0,173);
type = Stem;
},
{
place = (103,194);
type = Stem;
}
);
layerId = m01;
shapes = (
{
closed = 1;
nodes = (
(297,173,l),
(297,315,l),
(385,358,l),
(385,525,l),
(297,482,l),
(297,687,l),
(103,687,l),
(103,386,l),
(19,345,l),
(19,178,l),
(103,219,l),
(103,0,l),
(617,0,l),
(617,173,l)
);
}
);
width = 637;
}
);
note = Lslash;
unicode = 321;
},
{
glyphname = M;
kernLeft = M;
kernRight = M;
layers = (
{
hints = (
{
horizontal = 1;
place = (687,-20);
target = down;
type = TopGhost;
},
{
horizontal = 1;
place = (0,21);
target = up;
type = BottomGhost;
},
{
place = (628,194);
type = Stem;
},
{
place = (66,194);
type = Stem;
}
);
layerId = m01;
shapes = (
{
closed = 1;
nodes = (
(66,0,l),
(260,0,l),
(260,368,l),
(444,40,l),
(628,368,l),
(628,0,l),
(822,0,l),
(822,687,l),
(628,687,l),
(444,359,l),
(260,687,l),
(66,687,l)
);
}
);
width = 888;
}
);
note = M;
unicode = 77;
},
{
glyphname = N;
kernLeft = N;
kernRight = N;
layers = (
{
anchors = (
{
name = bottom;
pos = (394,687);
}
);
hints = (
{
horizontal = 1;
place = (687,-20);
target = down;
type = TopGhost;
},
{
horizontal = 1;
place = (0,21);
target = up;
type = BottomGhost;
},
{
place = (528,194);
type = Stem;
},
{
place = (66,194);
type = Stem;
}
);
layerId = m01;
shapes = (
{
closed = 1;
nodes = (
(66,0,l),
(260,0,l),
(260,368,l),
(528,0,l),
(722,0,l),
(722,687,l),
(528,687,l),
(528,319,l),
(260,687,l),
(66,687,l)
);
}
);
width = 788;
}
);
note = N;
unicode = 78;
},
{
glyphname = Nacute;
kernLeft = N;
kernRight = N;
layers = (
{
anchors = (
{
name = bottom;
pos = (394,874);
}
);
hints = (
{
horizontal = 1;
place = (687,-20);
target = down;
type = TopGhost;
},
{
horizontal = 1;
place = (0,21);
target = up;
type = BottomGhost;
},
{
place = (528,194);
type = Stem;
},
{
place = (66,194);
type = Stem;
}
);
layerId = m01;
shapes = (
{
closed = 1;
nodes = (
(329,744,l),
(455,744,l),
(607,880,l),
(441,908,l)
);
},
{
closed = 1;
nodes = (
(66,0,l),
(260,0,l),
(260,368,l),
(528,0,l),
(722,0,l),
(722,687,l),
(528,687,l),
(528,319,l),
(260,687,l),
(66,687,l)
);
}
);
width = 788;
}
);
note = Nacute;
unicode = 323;
},
{
glyphname = Ncaron;
kernLeft = N;
kernRight = N;
layers = (
{
anchors = (
{
name = bottom;
pos = (394,874);
}
);
hints = (
{
horizontal = 1;
place = (687,-20);
target = down;
type = TopGhost;
},
{
horizontal = 1;
place = (744,154);
type = Stem;
},
{
horizontal = 1;
place = (0,21);
target = up;
type = BottomGhost;
},
{
place = (528,194);
type = Stem;
},
{
place = (66,194);
type = Stem;
}
);
layerId = m01;
shapes = (
{
closed = 1;
nodes = (
(317,744,l),
(472,744,l),
(581,898,l),
(468,898,l),
(394,831,l),
(321,898,l),
(209,898,l)
);
},
{
closed = 1;
nodes = (
(66,0,l),
(260,0,l),
(260,368,l),
(528,0,l),
(722,0,l),
(722,687,l),
(528,687,l),
(528,319,l),
(260,687,l),
(66,687,l)
);
}
);
width = 788;
}
);
note = Ncaron;
unicode = 327;
},
{
glyphname = uni0145;
kernLeft = N;
kernRight = N;
layers = (
{
anchors = (
{
name = bottom;
pos = (394,687);
}
);
hints = (
{
horizontal = 1;
place = (687,-20);
target = down;
type = TopGhost;
},
{
horizontal = 1;
place = (-195,172);
type = Stem;
},
{
horizontal = 1;
place = (0,21);
target = up;
type = BottomGhost;
},
{
place = (528,194);
type = Stem;
},
{
place = (310,171);
type = Stem;
},
{
place = (66,194);
type = Stem;
}
);
layerId = m01;
shapes = (
{
closed = 1;
nodes = (
(66,0,l),
(260,0,l),
(260,368,l),
(528,0,l),
(722,0,l),
(722,687,l),
(528,687,l),
(528,319,l),
(260,687,l),
(66,687,l)
);
},
{
closed = 1;
nodes = (
(388,-301,l),
(443,-256,o),
(481,-188,o),
(481,-128,cs),
(481,-70,o),
(445,-23,o),
(394,-23,cs),
(345,-23,o),
(310,-59,o),
(310,-110,cs),
(310,-160,o),
(343,-195,o),
(391,-195,c),
(385,-218,o),
(365,-246,o),
(342,-265,c)
);
}
);
width = 788;
}
);
note = uni0145;
unicode = 325;
},
{
glyphname = Ntilde;
kernLeft = N;
kernRight = N;
layers = (
{
anchors = (
{
name = bottom;
pos = (394,874);
}
);
hints = (
{
horizontal = 1;
place = (687,-20);
target = down;
type = TopGhost;
},
{
horizontal = 1;
place = (782,112);
type = Stem;
},
{
horizontal = 1;
place = (741,112);
type = Stem;
},
{
horizontal = 1;
place = (0,21);
target = up;
type = BottomGhost;
},
{
place = (528,194);
type = Stem;
},
{
place = (66,194);
type = Stem;
}
);
layerId = m01;
shapes = (
{
closed = 1;
nodes = (
(536,741,o),
(574,787,o),
(584,882,c),
(494,895,l),
(488,867,o),
(477,853,o),
(457,853,cs),
(431,853,o),
(378,894,o),
(324,894,cs),
(251,894,o),
(214,848,o),
(203,753,c),
(293,740,l),
(299,769,o),
(310,782,o),
(330,782,cs),
(357,782,o),
(408,741,o),
(463,741,cs)
);
},
{
closed = 1;
nodes = (
(66,0,l),
(260,0,l),
(260,368,l),
(528,0,l),
(722,0,l),
(722,687,l),
(528,687,l),
(528,319,l),
(260,687,l),
(66,687,l)
);
}
);
width = 788;
}
);
note = Ntilde;
unicode = 209;
},
{
glyphname = O;
kernLeft = O;
kernRight = O;
layers = (
{
anchors = (
{
name = bottom;
pos = (398,687);
}
);
hints = (
{
horizontal = 1;
place = (523,176);
type = Stem;
},
{
horizontal = 1;
place = (-12,176);
type = Stem;
},
{
place = (572,200);
type = Stem;
},
{
place = (24,200);
type = Stem;
}
);
layerId = m01;
shapes = (
{
closed = 1;
nodes = (
(601,-12,o),
(772,151,o),
(772,344,cs),
(772,537,o),
(601,699,o),
(398,699,cs),
(195,699,o),
(24,537,o),
(24,344,cs),
(24,151,o),
(195,-12,o),
(398,-12,cs)
);
},
{
closed = 1;
nodes = (
(304,164,o),
(224,246,o),
(224,344,cs),
(224,441,o),
(304,523,o),
(398,523,cs),
(492,523,o),
(572,441,o),
(572,344,cs),
(572,246,o),
(492,164,o),
(398,164,cs)
);
}
);
width = 796;
}
);
note = O;
unicode = 79;
},
{
glyphname = Oacute;
kernLeft = O;
kernRight = O;
layers = (
{
anchors = (
{
name = bottom;
pos = (398,874);
}
);
hints = (
{
horizontal = 1;
place = (523,176);
type = Stem;
},
{
horizontal = 1;
place = (-12,176);
type = Stem;
},
{
place = (572,200);
type = Stem;
},
{
place = (24,200);
type = Stem;
}
);
layerId = m01;
shapes = (
{
closed = 1;
nodes = (
(333,744,l),
(459,744,l),
(611,880,l),
(445,908,l)
);
},
{
closed = 1;
nodes = (
(601,-12,o),
(772,151,o),
(772,344,cs),
(772,537,o),
(601,699,o),
(398,699,cs),
(195,699,o),
(24,537,o),
(24,344,cs),
(24,151,o),
(195,-12,o),
(398,-12,cs)
);
},
{
closed = 1;
nodes = (
(304,164,o),
(224,246,o),
(224,344,cs),
(224,441,o),
(304,523,o),
(398,523,cs),
(492,523,o),
(572,441,o),
(572,344,cs),
(572,246,o),
(492,164,o),
(398,164,cs)
);
}
);
width = 796;
}
);
note = Oacute;
unicode = 211;
},
{
glyphname = Ocircumflex;
kernLeft = O;
kernRight = O;
layers = (
{
anchors = (
{
name = bottom;
pos = (398,874);
}
);
hints = (
{
horizontal = 1;
place = (811,87);
type = Stem;
},
{
horizontal = 1;
place = (744,154);
type = Stem;
},
{
horizontal = 1;
place = (523,176);
type = Stem;
},
{
horizontal = 1;
place = (-12,176);
type = Stem;
},
{
place = (572,200);
type = Stem;
},
{
place = (24,200);
type = Stem;
}
);
layerId = m01;
shapes = (
{
closed = 1;
nodes = (
(213,744,l),
(325,744,l),
(398,811,l),
(472,744,l),
(585,744,l),
(476,898,l),
(321,898,l)
);
},
{
closed = 1;
nodes = (
(601,-12,o),
(772,151,o),
(772,344,cs),
(772,537,o),
(601,699,o),
(398,699,cs),
(195,699,o),
(24,537,o),
(24,344,cs),
(24,151,o),
(195,-12,o),
(398,-12,cs)
);
},
{
closed = 1;
nodes = (
(304,164,o),
(224,246,o),
(224,344,cs),
(224,441,o),
(304,523,o),
(398,523,cs),
(492,523,o),
(572,441,o),
(572,344,cs),
(572,246,o),
(492,164,o),
(398,164,cs)
);
}
);
width = 796;
}
);
note = Ocircumflex;
unicode = 212;
},
{
glyphname = Odieresis;
kernLeft = O;
kernRight = O;
layers = (
{
anchors = (
{
name = bottom;
pos = (398,874);
}
);
hints = (
{
horizontal = 1;
place = (745,173);
type = Stem;
},
{
horizontal = 1;
place = (523,176);
type = Stem;
},
{
horizontal = 1;
place = (-12,176);
type = Stem;
},
{
place = (572,200);
type = Stem;
},
{
place = (424,173);
type = Stem;
},
{
place = (199,173);
type = Stem;
},
{
place = (24,200);
type = Stem;
}
);
layerId = m01;
shapes = (
{
closed = 1;
nodes = (
(333,745,o),
(372,784,o),
(372,832,cs),
(372,878,o),
(333,918,o),
(286,918,cs),
(236,918,o),
(199,878,o),
(199,832,cs),
(199,784,o),
(236,745,o),
(286,745,cs)
);
},
{
closed = 1;
nodes = (
(559,745,o),
(597,784,o),
(597,832,cs),
(597,878,o),
(559,918,o),
(511,918,cs),
(462,918,o),
(424,878,o),
(424,832,cs),
(424,784,o),
(462,745,o),
(511,745,cs)
);
},
{
closed = 1;
nodes = (
(601,-12,o),
(772,151,o),
(772,344,cs),
(772,537,o),
(601,699,o),
(398,699,cs),
(195,699,o),
(24,537,o),
(24,344,cs),
(24,151,o),
(195,-12,o),
(398,-12,cs)
);
},
{
closed = 1;
nodes = (
(304,164,o),
(224,246,o),
(224,344,cs),
(224,441,o),
(304,523,o),
(398,523,cs),
(492,523,o),
(572,441,o),
(572,344,cs),
(572,246,o),
(492,164,o),
(398,164,cs)
);
}
);
width = 796;
}
);
note = Odieresis;
unicode = 214;
},
{
glyphname = Ograve;
kernLeft = O;
kernRight = O;
layers = (
{
anchors = (
{
name = bottom;
pos = (398,874);
}
);
hints = (
{
horizontal = 1;
place = (523,176);
type = Stem;
},
{
horizontal = 1;
place = (-12,176);
type = Stem;
},
{
place = (572,200);
type = Stem;
},
{
place = (24,200);
type = Stem;
}
);
layerId = m01;
shapes = (
{
closed = 1;
nodes = (
(339,744,l),
(465,744,l),
(353,908,l),
(187,880,l)
);
},
{
closed = 1;
nodes = (
(601,-12,o),
(772,151,o),
(772,344,cs),
(772,537,o),
(601,699,o),
(398,699,cs),
(195,699,o),
(24,537,o),
(24,344,cs),
(24,151,o),
(195,-12,o),
(398,-12,cs)
);
},
{
closed = 1;
nodes = (
(304,164,o),
(224,246,o),
(224,344,cs),
(224,441,o),
(304,523,o),
(398,523,cs),
(492,523,o),
(572,441,o),
(572,344,cs),
(572,246,o),
(492,164,o),
(398,164,cs)
);
}
);
width = 796;
}
);
note = Ograve;
unicode = 210;
},
{
glyphname = Ohungarumlaut;
kernLeft = O;
kernRight = O;
layers = (
{
anchors = (
{
name = bottom;
pos = (398,874);
}
);
hints = (
{
horizontal = 1;
place = (523,176);
type = Stem;
},
{
horizontal = 1;
place = (-12,176);
type = Stem;
},
{
place = (572,200);
type = Stem;
},
{
place = (24,200);
type = Stem;
}
);
layerId = m01;
shapes = (
{
closed = 1;
nodes = (
(207,744,l),
(333,744,l),
(485,880,l),
(319,908,l)
);
},
{
closed = 1;
nodes = (
(465,744,l),
(591,744,l),
(743,880,l),
(577,908,l)
);
},
{
closed = 1;
nodes = (
(601,-12,o),
(772,151,o),
(772,344,cs),
(772,537,o),
(601,699,o),
(398,699,cs),
(195,699,o),
(24,537,o),
(24,344,cs),
(24,151,o),
(195,-12,o),
(398,-12,cs)
);
},
{
closed = 1;
nodes = (
(304,164,o),
(224,246,o),
(224,344,cs),
(224,441,o),
(304,523,o),
(398,523,cs),
(492,523,o),
(572,441,o),
(572,344,cs),
(572,246,o),
(492,164,o),
(398,164,cs)
);
}
);
width = 796;
}
);
note = Ohungarumlaut;
unicode = 336;
},
{
glyphname = Omacron;
kernLeft = O;
kernRight = O;
layers = (
{
anchors = (
{
name = bottom;
pos = (398,874);
}
);
hints = (
{
horizontal = 1;
place = (743,106);
type = Stem;
},
{
horizontal = 1;
place = (523,176);
type = Stem;
},
{
horizontal = 1;
place = (-12,176);
type = Stem;
},
{
place = (572,200);
type = Stem;
},
{
place = (213,369);
type = Stem;
},
{
place = (24,200);
type = Stem;
}
);
layerId = m01;
shapes = (
{
closed = 1;
nodes = (
(213,743,l),
(582,743,l),
(582,849,l),
(213,849,l)
);
},
{
closed = 1;
nodes = (
(601,-12,o),
(772,151,o),
(772,344,cs),
(772,537,o),
(601,699,o),
(398,699,cs),
(195,699,o),
(24,537,o),
(24,344,cs),
(24,151,o),
(195,-12,o),
(398,-12,cs)
);
},
{
closed = 1;
nodes = (
(304,164,o),
(224,246,o),
(224,344,cs),
(224,441,o),
(304,523,o),
(398,523,cs),
(492,523,o),
(572,441,o),
(572,344,cs),
(572,246,o),
(492,164,o),
(398,164,cs)
);
}
);
width = 796;
}
);
note = Omacron;
unicode = 332;
},
{
glyphname = Oslash;
kernLeft = Oslash;
kernRight = Oslash;
layers = (
{
anchors = (
{
name = bottom;
pos = (405,687);
}
);
hints = (
{
horizontal = 1;
place = (584,103);
type = Stem;
},
{
horizontal = 1;
place = (523,176);
type = Stem;
},
{
horizontal = 1;
place = (0,110);
type = Stem;
},
{
horizontal = 1;
place = (-12,176);
type = Stem;
},
{
place = (579,200);
type = Stem;
},
{
place = (31,200);
type = Stem;
}
);
layerId = m01;
shapes = (
{
closed = 1;
nodes = (
(764,687,l),
(604,687,l),
(579,657,l),
(527,684,o),
(467,699,o),
(405,699,cs),
(202,699,o),
(31,537,o),
(31,344,cs),
(31,255,o),
(67,173,o),
(125,110,c),
(34,0,l),
(194,0,l),
(223,35,l),
(277,5,o),
(339,-12,o),
(405,-12,cs),
(608,-12,o),
(779,151,o),
(779,344,cs),
(779,436,o),
(741,520,o),
(678,584,c)
);
},
{
closed = 1;
nodes = (
(231,441,o),
(311,523,o),
(405,523,cs),
(424,523,o),
(443,520,o),
(460,513,c),
(251,262,l),
(238,286,o),
(231,314,o),
(231,344,cs)
);
},
{
closed = 1;
nodes = (
(383,164,o),
(361,169,o),
(341,177,c),
(554,434,l),
(570,408,o),
(579,377,o),
(579,344,cs),
(579,246,o),
(499,164,o),
(405,164,cs)
);
}
);
width = 808;
}
);
note = Oslash;
unicode = 216;
},
{
glyphname = Otilde;
kernLeft = O;
kernRight = O;
layers = (
{
anchors = (
{
name = bottom;
pos = (398,874);
}
);
hints = (
{
horizontal = 1;
place = (782,112);
type = Stem;
},
{
horizontal = 1;
place = (741,112);
type = Stem;
},
{
horizontal = 1;
place = (523,176);
type = Stem;
},
{
horizontal = 1;
place = (-12,176);
type = Stem;
},
{
place = (572,200);
type = Stem;
},
{
place = (24,200);
type = Stem;
}
);
layerId = m01;
shapes = (
{
closed = 1;
nodes = (
(540,741,o),
(578,787,o),
(588,882,c),
(498,895,l),
(492,867,o),
(481,853,o),
(461,853,cs),
(435,853,o),
(382,894,o),
(328,894,cs),
(255,894,o),
(218,848,o),
(207,753,c),
(297,740,l),
(303,769,o),
(314,782,o),
(334,782,cs),
(361,782,o),
(412,741,o),
(467,741,cs)
);
},
{
closed = 1;
nodes = (
(601,-12,o),
(772,151,o),
(772,344,cs),
(772,537,o),
(601,699,o),
(398,699,cs),
(195,699,o),
(24,537,o),
(24,344,cs),
(24,151,o),
(195,-12,o),
(398,-12,cs)
);
},
{
closed = 1;
nodes = (
(304,164,o),
(224,246,o),
(224,344,cs),
(224,441,o),
(304,523,o),
(398,523,cs),
(492,523,o),
(572,441,o),
(572,344,cs),
(572,246,o),
(492,164,o),
(398,164,cs)
);
}
);
width = 796;
}
);
note = Otilde;
unicode = 213;
},
{
glyphname = OE;
kernLeft = O;
kernRight = AE;
layers = (
{
hints = (
{
horizontal = 1;
place = (514,173);
type = Stem;
},
{
horizontal = 1;
place = (511,176);
type = Stem;
},
{
horizontal = 1;
place = (264,173);
type = Stem;
},
{
horizontal = 1;
place = (0,176);
type = Stem;
},
{
horizontal = 1;
place = (0,173);
type = Stem;
},
{
place = (444,194);
type = Stem;
},
{
place = (23,200);
type = Stem;
}
);
layerId = m01;
shapes = (
{
closed = 1;
nodes = (
(23,151,o),
(194,0,o),
(397,0,cs),
(997,0,l),
(997,173,l),
(638,173,l),
(638,264,l),
(965,264,l),
(965,437,l),
(638,437,l),
(638,514,l),
(997,514,l),
(997,687,l),
(397,687,ls),
(194,687,o),
(23,537,o),
(23,344,cs)
);
},
{
closed = 1;
nodes = (
(223,441,o),
(303,511,o),
(397,511,cs),
(444,511,l),
(444,176,l),
(397,176,ls),
(303,176,o),
(223,246,o),
(223,344,cs)
);
}
);
width = 1051;
}
);
note = OE;
unicode = 338;
},
{
glyphname = P;
kernLeft = P;
kernRight = P;
layers = (
{
hints = (
{
horizontal = 1;
place = (511,176);
type = Stem;
},
{
horizontal = 1;
place = (207,176);
type = Stem;
},
{
horizontal = 1;
place = (0,21);
target = up;
type = BottomGhost;
},
{
place = (458,200);
type = Stem;
},
{
place = (66,194);
type = Stem;
}
);
layerId = m01;
shapes = (
{
closed = 1;
nodes = (
(66,0,l),
(260,0,l),
(260,207,l),
(395,207,ls),
(549,207,o),
(658,306,o),
(658,447,cs),
(658,588,o),
(549,687,o),
(395,687,cs),
(66,687,l)
);
},
{
closed = 1;
nodes = (
(260,383,l),
(260,511,l),
(379,511,ls),
(425,511,o),
(458,484,o),
(458,447,cs),
(458,410,o),
(425,383,o),
(379,383,cs)
);
}
);
width = 678;
}
);
note = P;
unicode = 80;
},
{
glyphname = Thorn;
kernLeft = Thorn;
kernRight = Thorn;
layers = (
{
hints = (
{
horizontal = 1;
place = (687,-20);
target = down;
type = TopGhost;
},
{
horizontal = 1;
place = (409,176);
type = Stem;
},
{
horizontal = 1;
place = (105,176);
type = Stem;
},
{
horizontal = 1;
place = (0,21);
target = up;
type = BottomGhost;
},
{
place = (458,200);
type = Stem;
},
{
place = (66,194);
type = Stem;
},
{
place = (66,189);
type = Stem;
}
);
layerId = m01;
shapes = (
{
closed = 1;
nodes = (
(66,0,l),
(260,0,l),
(260,105,l),
(395,105,ls),
(549,105,o),
(658,204,o),
(658,345,cs),
(658,486,o),
(549,585,o),
(395,585,cs),
(255,585,l),
(255,687,l),
(66,687,l)
);
},
{
closed = 1;
nodes = (
(260,281,l),
(260,409,l),
(379,409,ls),
(425,409,o),
(458,382,o),
(458,345,cs),
(458,308,o),
(425,281,o),
(379,281,cs)
);
}
);
width = 678;
}
);
note = Thorn;
unicode = 222;
},
{
glyphname = Q;
kernLeft = Q;
kernRight = Q;
layers = (
{
anchors = (
{
name = bottom;
pos = (398,687);
}
);
hints = (
{
horizontal = 1;
place = (523,176);
type = Stem;
},
{
horizontal = 1;
place = (-12,176);
type = Stem;
},
{
horizontal = 1;
place = (0,21);
target = up;
type = BottomGhost;
},
{
place = (572,200);
type = Stem;
},
{
place = (24,200);
type = Stem;
}
);
layerId = m01;
shapes = (
{
closed = 1;
nodes = (
(772,537,o),
(601,699,o),
(398,699,cs),
(195,699,o),
(24,537,o),
(24,344,cs),
(24,151,o),
(195,-12,o),
(398,-12,cs),
(477,-12,o),
(550,12,o),
(611,54,c),
(673,0,l),
(764,106,l),
(711,152,l),
(749,208,o),
(772,274,o),
(772,344,cs)
);
},
{
closed = 1;
nodes = (
(304,164,o),
(224,246,o),
(224,344,cs),
(224,441,o),
(304,523,o),
(398,523,cs),
(492,523,o),
(572,441,o),
(572,344,cs),
(572,322,o),
(568,302,o),
(561,282,c),
(495,340,l),
(404,234,l),
(467,179,l),
(446,169,o),
(422,164,o),
(398,164,cs)
);
}
);
width = 802;
}
);
note = Q;
unicode = 81;
},
{
glyphname = R;
kernLeft = R;
kernRight = R;
layers = (
{
anchors = (
{
name = bottom;
pos = (335,687);
}
);
hints = (
{
horizontal = 1;
place = (511,176);
type = Stem;
},
{
horizontal = 1;
place = (207,176);
type = Stem;
},
{
horizontal = 1;
place = (0,21);
target = up;
type = BottomGhost;
},
{
place = (458,200);
type = Stem;
},
{
place = (66,194);
type = Stem;
}
);
layerId = m01;
shapes = (
{
closed = 1;
nodes = (
(673,0,l),
(512,229,l),
(601,266,o),
(658,345,o),
(658,447,cs),
(658,588,o),
(549,687,o),
(395,687,cs),
(66,687,l),
(66,0,l),
(260,0,l),
(260,207,l),
(307,207,l),
(452,0,l)
);
},
{
closed = 1;
nodes = (
(260,511,l),
(379,511,ls),
(425,511,o),
(458,484,o),
(458,447,cs),
(458,410,o),
(425,383,o),
(379,383,cs),
(260,383,l)
);
}
);
width = 696;
}
);
note = R;
unicode = 82;
},
{
glyphname = Racute;
kernLeft = R;
kernRight = R;
layers = (
{
anchors = (
{
name = bottom;
pos = (335,874);
}
);
hints = (
{
horizontal = 1;
place = (511,176);
type = Stem;
},
{
horizontal = 1;
place = (207,176);
type = Stem;
},
{
horizontal = 1;
place = (0,21);
target = up;
type = BottomGhost;
},
{
place = (458,200);
type = Stem;
},
{
place = (66,194);
type = Stem;
}
);
layerId = m01;
shapes = (
{
closed = 1;
nodes = (
(548,880,l),
(382,908,l),
(270,744,l),
(396,744,l)
);
},
{
closed = 1;
nodes = (
(673,0,l),
(512,229,l),
(601,266,o),
(658,345,o),
(658,447,cs),
(658,588,o),
(549,687,o),
(395,687,cs),
(66,687,l),
(66,0,l),
(260,0,l),
(260,207,l),
(307,207,l),
(452,0,l)
);
},
{
closed = 1;
nodes = (
(260,511,l),
(379,511,ls),
(425,511,o),
(458,484,o),
(458,447,cs),
(458,410,o),
(425,383,o),
(379,383,cs),
(260,383,l)
);
}
);
width = 696;
}
);
note = Racute;
unicode = 340;
},
{
glyphname = Rcaron;
kernLeft = R;
kernRight = R;
layers = (
{
anchors = (
{
name = bottom;
pos = (335,874);
}
);
hints = (
{
horizontal = 1;
place = (744,154);
type = Stem;
},
{
horizontal = 1;
place = (511,176);
type = Stem;
},
{
horizontal = 1;
place = (207,176);
type = Stem;
},
{
horizontal = 1;
place = (0,21);
target = up;
type = BottomGhost;
},
{
place = (458,200);
type = Stem;
},
{
place = (66,194);
type = Stem;
}
);
layerId = m01;
shapes = (
{
closed = 1;
nodes = (
(413,744,l),
(522,898,l),
(409,898,l),
(335,831,l),
(262,898,l),
(150,898,l),
(258,744,l)
);
},
{
closed = 1;
nodes = (
(673,0,l),
(512,229,l),
(601,266,o),
(658,345,o),
(658,447,cs),
(658,588,o),
(549,687,o),
(395,687,cs),
(66,687,l),
(66,0,l),
(260,0,l),
(260,207,l),
(307,207,l),
(452,0,l)
);
},
{
closed = 1;
nodes = (
(260,511,l),
(379,511,ls),
(425,511,o),
(458,484,o),
(458,447,cs),
(458,410,o),
(425,383,o),
(379,383,cs),
(260,383,l)
);
}
);
width = 696;
}
);
note = Rcaron;
unicode = 344;
},
{
glyphname = uni0156;
kernLeft = R;
kernRight = R;
layers = (
{
anchors = (
{
name = bottom;
pos = (335,687);
}
);
hints = (
{
horizontal = 1;
place = (511,176);
type = Stem;
},
{
horizontal = 1;
place = (207,176);
type = Stem;
},
{
horizontal = 1;
place = (-195,172);
type = Stem;
},
{
horizontal = 1;
place = (0,21);
target = up;
type = BottomGhost;
},
{
place = (458,200);
type = Stem;
},
{
place = (258,171);
type = Stem;
},
{
place = (66,194);
type = Stem;
}
);
layerId = m01;
shapes = (
{
closed = 1;
nodes = (
(512,229,l),
(601,266,o),
(658,345,o),
(658,447,cs),
(658,588,o),
(549,687,o),
(395,687,cs),
(66,687,l),
(66,0,l),
(260,0,l),
(260,207,l),
(307,207,l),
(452,0,l),
(673,0,l)
);
},
{
closed = 1;
nodes = (
(260,511,l),
(379,511,ls),
(425,511,o),
(458,484,o),
(458,447,cs),
(458,410,o),
(425,383,o),
(379,383,cs),
(260,383,l)
);
},
{
closed = 1;
nodes = (
(293,-23,o),
(258,-59,o),
(258,-110,cs),
(258,-160,o),
(291,-195,o),
(339,-195,c),
(333,-218,o),
(313,-246,o),
(290,-265,c),
(336,-301,l),
(391,-256,o),
(429,-188,o),
(429,-128,cs),
(429,-70,o),
(393,-23,o),
(342,-23,cs)
);
}
);
width = 696;
}
);
note = uni0156;
unicode = 342;
},
{
glyphname = S;
kernLeft = S;
layers = (
{
anchors = (
{
name = bottom;
pos = (323,687);
}
);
hints = (
{
horizontal = 1;
place = (538,161);
type = Stem;
},
{
horizontal = 1;
place = (-12,161);
type = Stem;
},
{
place = (431,195);
type = Stem;
},
{
place = (48,196);
type = Stem;
}
);
layerId = m01;
shapes = (
{
closed = 1;
nodes = (
(515,-12,o),
(626,73,o),
(626,218,cs),
(626,349,o),
(526,392,o),
(366,426,cs),
(268,447,o),
(244,458,o),
(244,493,cs),
(244,519,o),
(267,538,o),
(314,538,cs),
(376,538,o),
(446,515,o),
(510,469,c),
(607,606,l),
(531,667,o),
(438,699,o),
(319,699,cs),
(156,699,o),
(48,610,o),
(48,473,cs),
(48,330,o),
(163,291,o),
(312,257,cs),
(407,235,o),
(431,230,o),
(431,197,cs),
(431,167,o),
(403,149,o),
(350,149,cs),
(269,149,o),
(193,178,o),
(123,233,c),
(15,104,l),
(102,27,o),
(219,-12,o),
(343,-12,cs)
);
}
);
width = 649;
}
);
note = S;
unicode = 83;
},
{
glyphname = Sacute;
kernLeft = S;
layers = (
{
anchors = (
{
name = bottom;
pos = (323,874);
}
);
hints = (
{
horizontal = 1;
place = (538,161);
type = Stem;
},
{
horizontal = 1;
place = (-12,161);
type = Stem;
},
{
place = (431,195);
type = Stem;
},
{
place = (48,196);
type = Stem;
}
);
layerId = m01;
shapes = (
{
closed = 1;
nodes = (
(258,744,l),
(384,744,l),
(536,880,l),
(370,908,l)
);
},
{
closed = 1;
nodes = (
(515,-12,o),
(626,73,o),
(626,218,cs),
(626,349,o),
(526,392,o),
(366,426,cs),
(268,447,o),
(244,458,o),
(244,493,cs),
(244,519,o),
(267,538,o),
(314,538,cs),
(376,538,o),
(446,515,o),
(510,469,c),
(607,606,l),
(531,667,o),
(438,699,o),
(319,699,cs),
(156,699,o),
(48,610,o),
(48,473,cs),
(48,330,o),
(163,291,o),
(312,257,cs),
(407,235,o),
(431,230,o),
(431,197,cs),
(431,167,o),
(403,149,o),
(350,149,cs),
(269,149,o),
(193,178,o),
(123,233,c),
(15,104,l),
(102,27,o),
(219,-12,o),
(343,-12,cs)
);
}
);
width = 649;
}
);
note = Sacute;
unicode = 346;
},
{
glyphname = Scaron;
kernLeft = S;
layers = (
{
anchors = (
{
name = bottom;
pos = (323,874);
}
);
hints = (
{
horizontal = 1;
place = (744,154);
type = Stem;
},
{
horizontal = 1;
place = (538,161);
type = Stem;
},
{
horizontal = 1;
place = (-12,161);
type = Stem;
},
{
place = (431,195);
type = Stem;
},
{
place = (48,196);
type = Stem;
}
);
layerId = m01;
shapes = (
{
closed = 1;
nodes = (
(246,744,l),
(401,744,l),
(510,898,l),
(397,898,l),
(323,831,l),
(250,898,l),
(138,898,l)
);
},
{
closed = 1;
nodes = (
(515,-12,o),
(626,73,o),
(626,218,cs),
(626,349,o),
(526,392,o),
(366,426,cs),
(268,447,o),
(244,458,o),
(244,493,cs),
(244,519,o),
(267,538,o),
(314,538,cs),
(376,538,o),
(446,515,o),
(510,469,c),
(607,606,l),
(531,667,o),
(438,699,o),
(319,699,cs),
(156,699,o),
(48,610,o),
(48,473,cs),
(48,330,o),
(163,291,o),
(312,257,cs),
(407,235,o),
(431,230,o),
(431,197,cs),
(431,167,o),
(403,149,o),
(350,149,cs),
(269,149,o),
(193,178,o),
(123,233,c),
(15,104,l),
(102,27,o),
(219,-12,o),
(343,-12,cs)
);
}
);
width = 649;
}
);
note = Scaron;
unicode = 352;
},
{
glyphname = Scedilla;
kernLeft = S;
layers = (
{
anchors = (
{
name = bottom;
pos = (323,687);
}
);
hints = (
{
horizontal = 1;
place = (538,161);
type = Stem;
},
{
horizontal = 1;
place = (-78,36);
type = Stem;
},
{
horizontal = 1;
place = (-200,75);
type = Stem;
},
{
horizontal = 1;
place = (-8,21);
target = up;
type = BottomGhost;
},
{
place = (431,195);
type = Stem;
},
{
place = (333,89);
type = Stem;
},
{
place = (48,196);
type = Stem;
}
);
layerId = m01;
shapes = (
{
closed = 1;
nodes = (
(626,349,o),
(526,392,o),
(366,426,cs),
(268,447,o),
(244,458,o),
(244,493,cs),
(244,519,o),
(267,538,o),
(314,538,cs),
(376,538,o),
(446,515,o),
(510,469,c),
(607,606,l),
(531,667,o),
(438,699,o),
(319,699,cs),
(156,699,o),
(48,610,o),
(48,473,cs),
(48,330,o),
(163,291,o),
(312,257,cs),
(407,235,o),
(431,230,o),
(431,197,cs),
(431,167,o),
(403,149,o),
(350,149,cs),
(269,149,o),
(193,178,o),
(123,233,c),
(15,104,l),
(86,41,o),
(177,4,o),
(275,-8,c),
(252,-62,l),
(278,-86,l),
(286,-81,o),
(296,-78,o),
(305,-78,cs),
(322,-78,o),
(333,-86,o),
(333,-100,cs),
(333,-116,o),
(316,-125,o),
(297,-125,cs),
(277,-125,o),
(256,-116,o),
(239,-102,c),
(208,-170,l),
(231,-187,o),
(269,-200,o),
(307,-200,cs),
(374,-200,o),
(422,-167,o),
(422,-111,cs),
(422,-73,o),
(393,-44,o),
(349,-42,c),
(362,-12,l),
(523,-5,o),
(626,79,o),
(626,218,cs)
);
}
);
width = 649;
}
);
note = Scedilla;
unicode = 350;
},
{
glyphname = T;
kernLeft = T;
kernRight = T;
layers = (
{
anchors = (
{
name = bottom;
pos = (320,687);
}
);
hints = (
{
horizontal = 1;
place = (514,173);
type = Stem;
},
{
horizontal = 1;
place = (0,21);
target = up;
type = BottomGhost;
},
{
place = (223,194);
type = Stem;
}
);
layerId = m01;
shapes = (
{
closed = 1;
nodes = (
(223,0,l),
(417,0,l),
(417,514,l),
(620,514,l),
(620,687,l),
(20,687,l),
(20,514,l),
(223,514,l)
);
}
);
width = 640;
}
);
note = T;
unicode = 84;
},
{
glyphname = Tcaron;
kernLeft = T;
kernRight = T;
layers = (
{
anchors = (
{
name = bottom;
pos = (320,874);
}
);
hints = (
{
horizontal = 1;
place = (744,154);
type = Stem;
},
{
horizontal = 1;
place = (514,173);
type = Stem;
},
{
horizontal = 1;
place = (0,21);
target = up;
type = BottomGhost;
},
{
place = (223,194);
type = Stem;
}
);
layerId = m01;
shapes = (
{
closed = 1;
nodes = (
(243,744,l),
(398,744,l),
(507,898,l),
(394,898,l),
(320,831,l),
(247,898,l),
(135,898,l)
);
},
{
closed = 1;
nodes = (
(223,0,l),
(417,0,l),
(417,514,l),
(620,514,l),
(620,687,l),
(20,687,l),
(20,514,l),
(223,514,l)
);
}
);
width = 640;
}
);
note = Tcaron;
unicode = 356;
},
{
glyphname = uni0162;
kernLeft = T;
kernRight = T;
layers = (
{
anchors = (
{
name = bottom;
pos = (320,687);
}
);
hints = (
{
horizontal = 1;
place = (514,173);
type = Stem;
},
{
horizontal = 1;
place = (-78,36);
type = Stem;
},
{
horizontal = 1;
place = (-200,75);
type = Stem;
},
{
horizontal = 1;
place = (0,21);
target = up;
type = BottomGhost;
},
{
place = (330,89);
type = Stem;
},
{
place = (330,87);
type = Stem;
},
{
place = (223,194);
type = Stem;
}
);
layerId = m01;
shapes = (
{
closed = 1;
nodes = (
(417,0,l),
(417,514,l),
(620,514,l),
(620,687,l),
(20,687,l),
(20,514,l),
(223,514,l),
(223,0,l),
(275,0,l),
(249,-62,l),
(275,-86,l),
(283,-81,o),
(293,-78,o),
(302,-78,cs),
(319,-78,o),
(330,-86,o),
(330,-100,cs),
(330,-116,o),
(313,-125,o),
(294,-125,cs),
(274,-125,o),
(253,-116,o),
(236,-102,c),
(205,-170,l),
(228,-187,o),
(266,-200,o),
(304,-200,cs),
(371,-200,o),
(419,-167,o),
(419,-111,cs),
(419,-73,o),
(390,-44,o),
(346,-42,c),
(364,0,l)
);
}
);
width = 640;
}
);
note = uni0162;
unicode = 354;
},
{
glyphname = U;
kernLeft = U;
kernRight = U;
layers = (
{
anchors = (
{
name = bottom;
pos = (375,687);
}
);
hints = (
{
horizontal = 1;
place = (687,-20);
target = down;
type = TopGhost;
},
{
horizontal = 1;
place = (-12,176);
type = Stem;
},
{
place = (508,194);
type = Stem;
},
{
place = (48,194);
type = Stem;
}
);
layerId = m01;
shapes = (
{
closed = 1;
nodes = (
(567,-12,o),
(702,119,o),
(702,305,cs),
(702,687,l),
(508,687,l),
(508,315,ls),
(508,227,o),
(453,164,o),
(375,164,cs),
(297,164,o),
(242,227,o),
(242,315,cs),
(242,687,l),
(48,687,l),
(48,305,ls),
(48,119,o),
(183,-12,o),
(375,-12,cs)
);
}
);
width = 750;
}
);
note = U;
unicode = 85;
},
{
glyphname = Uacute;
kernLeft = U;
kernRight = U;
layers = (
{
anchors = (
{
name = bottom;
pos = (375,874);
}
);
hints = (
{
horizontal = 1;
place = (687,-20);
target = down;
type = TopGhost;
},
{
horizontal = 1;
place = (-12,176);
type = Stem;
},
{
place = (508,194);
type = Stem;
},
{
place = (48,194);
type = Stem;
}
);
layerId = m01;
shapes = (
{
closed = 1;
nodes = (
(310,744,l),
(436,744,l),
(588,880,l),
(422,908,l)
);
},
{
closed = 1;
nodes = (
(567,-12,o),
(702,119,o),
(702,305,cs),
(702,687,l),
(508,687,l),
(508,315,ls),
(508,227,o),
(453,164,o),
(375,164,cs),
(297,164,o),
(242,227,o),
(242,315,cs),
(242,687,l),
(48,687,l),
(48,305,ls),
(48,119,o),
(183,-12,o),
(375,-12,cs)
);
}
);
width = 750;
}
);
note = Uacute;
unicode = 218;
},
{
glyphname = Ucircumflex;
kernLeft = U;
kernRight = U;
layers = (
{
anchors = (
{
name = bottom;
pos = (375,874);
}
);
hints = (
{
horizontal = 1;
place = (687,-20);
target = down;
type = TopGhost;
},
{
horizontal = 1;
place = (811,87);
type = Stem;
},
{
horizontal = 1;
place = (744,154);
type = Stem;
},
{
horizontal = 1;
place = (-12,176);
type = Stem;
},
{
place = (508,194);
type = Stem;
},
{
place = (48,194);
type = Stem;
}
);
layerId = m01;
shapes = (
{
closed = 1;
nodes = (
(190,744,l),
(302,744,l),
(375,811,l),
(449,744,l),
(562,744,l),
(453,898,l),
(298,898,l)
);
},
{
closed = 1;
nodes = (
(567,-12,o),
(702,119,o),
(702,305,cs),
(702,687,l),
(508,687,l),
(508,315,ls),
(508,227,o),
(453,164,o),
(375,164,cs),
(297,164,o),
(242,227,o),
(242,315,cs),
(242,687,l),
(48,687,l),
(48,305,ls),
(48,119,o),
(183,-12,o),
(375,-12,cs)
);
}
);
width = 750;
}
);
note = Ucircumflex;
unicode = 219;
},
{
glyphname = Udieresis;
kernLeft = U;
kernRight = U;
layers = (
{
anchors = (
{
name = bottom;
pos = (375,874);
}
);
hints = (
{
horizontal = 1;
place = (687,-20);
target = down;
type = TopGhost;
},
{
horizontal = 1;
place = (745,173);
type = Stem;
},
{
horizontal = 1;
place = (-12,176);
type = Stem;
},
{
place = (508,194);
type = Stem;
},
{
place = (508,66);
type = Stem;
},
{
place = (401,173);
type = Stem;
},
{
place = (176,173);
type = Stem;
},
{
place = (176,66);
type = Stem;
},
{
place = (48,194);
type = Stem;
}
);
layerId = m01;
shapes = (
{
closed = 1;
nodes = (
(310,745,o),
(349,784,o),
(349,832,cs),
(349,878,o),
(310,918,o),
(263,918,cs),
(213,918,o),
(176,878,o),
(176,832,cs),
(176,784,o),
(213,745,o),
(263,745,cs)
);
},
{
closed = 1;
nodes = (
(536,745,o),
(574,784,o),
(574,832,cs),
(574,878,o),
(536,918,o),
(488,918,cs),
(439,918,o),
(401,878,o),
(401,832,cs),
(401,784,o),
(439,745,o),
(488,745,cs)
);
},
{
closed = 1;
nodes = (
(567,-12,o),
(702,119,o),
(702,305,cs),
(702,687,l),
(508,687,l),
(508,315,ls),
(508,227,o),
(453,164,o),
(375,164,cs),
(297,164,o),
(242,227,o),
(242,315,cs),
(242,687,l),
(48,687,l),
(48,305,ls),
(48,119,o),
(183,-12,o),
(375,-12,cs)
);
}
);
width = 750;
}
);
note = Udieresis;
unicode = 220;
},
{
glyphname = Ugrave;
kernLeft = U;
kernRight = U;
layers = (
{
anchors = (
{
name = bottom;
pos = (375,874);
}
);
hints = (
{
horizontal = 1;
place = (687,-20);
target = down;
type = TopGhost;
},
{
horizontal = 1;
place = (-12,176);
type = Stem;
},
{
place = (508,194);
type = Stem;
},
{
place = (48,194);
type = Stem;
}
);
layerId = m01;
shapes = (
{
closed = 1;
nodes = (
(316,744,l),
(442,744,l),
(330,908,l),
(164,880,l)
);
},
{
closed = 1;
nodes = (
(567,-12,o),
(702,119,o),
(702,305,cs),
(702,687,l),
(508,687,l),
(508,315,ls),
(508,227,o),
(453,164,o),
(375,164,cs),
(297,164,o),
(242,227,o),
(242,315,cs),
(242,687,l),
(48,687,l),
(48,305,ls),
(48,119,o),
(183,-12,o),
(375,-12,cs)
);
}
);
width = 750;
}
);
note = Ugrave;
unicode = 217;
},
{
glyphname = Uhungarumlaut;
kernLeft = U;
kernRight = U;
layers = (
{
anchors = (
{
name = bottom;
pos = (375,874);
}
);
hints = (
{
horizontal = 1;
place = (687,-20);
target = down;
type = TopGhost;
},
{
horizontal = 1;
place = (-12,176);
type = Stem;
},
{
place = (508,194);
type = Stem;
},
{
place = (48,194);
type = Stem;
}
);
layerId = m01;
shapes = (
{
closed = 1;
nodes = (
(184,744,l),
(310,744,l),
(462,880,l),
(296,908,l)
);
},
{
closed = 1;
nodes = (
(442,744,l),
(568,744,l),
(720,880,l),
(554,908,l)
);
},
{
closed = 1;
nodes = (
(567,-12,o),
(702,119,o),
(702,305,cs),
(702,687,l),
(508,687,l),
(508,315,ls),
(508,227,o),
(453,164,o),
(375,164,cs),
(297,164,o),
(242,227,o),
(242,315,cs),
(242,687,l),
(48,687,l),
(48,305,ls),
(48,119,o),
(183,-12,o),
(375,-12,cs)
);
}
);
width = 750;
}
);
note = Uhungarumlaut;
unicode = 368;
},
{
glyphname = Umacron;
kernLeft = U;
kernRight = U;
layers = (
{
anchors = (
{
name = bottom;
pos = (375,874);
}
);
hints = (
{
horizontal = 1;
place = (687,-20);
target = down;
type = TopGhost;
},
{
horizontal = 1;
place = (743,106);
type = Stem;
},
{
horizontal = 1;
place = (-12,176);
type = Stem;
},
{
place = (508,194);
type = Stem;
},
{
place = (508,51);
type = Stem;
},
{
place = (190,52);
type = Stem;
},
{
place = (48,194);
type = Stem;
}
);
layerId = m01;
shapes = (
{
closed = 1;
nodes = (
(190,743,l),
(559,743,l),
(559,849,l),
(190,849,l)
);
},
{
closed = 1;
nodes = (
(567,-12,o),
(702,119,o),
(702,305,cs),
(702,687,l),
(508,687,l),
(508,315,ls),
(508,227,o),
(453,164,o),
(375,164,cs),
(297,164,o),
(242,227,o),
(242,315,cs),
(242,687,l),
(48,687,l),
(48,305,ls),
(48,119,o),
(183,-12,o),
(375,-12,cs)
);
}
);
width = 750;
}
);
note = Umacron;
unicode = 362;
},
{
glyphname = Uogonek;
kernLeft = U;
kernRight = U;
layers = (
{
anchors = (
{
name = bottom;
pos = (375,687);
}
);
hints = (
{
horizontal = 1;
place = (687,-20);
target = down;
type = TopGhost;
},
{
horizontal = 1;
place = (-12,176);
type = Stem;
},
{
horizontal = 1;
place = (-12,20);
type = Stem;
},
{
horizontal = 1;
place = (-185,107);
type = Stem;
},
{
place = (508,194);
type = Stem;
},
{
place = (223,114);
type = Stem;
},
{
place = (48,194);
type = Stem;
}
);
layerId = m01;
shapes = (
{
closed = 1;
nodes = (
(508,687,l),
(508,315,ls),
(508,227,o),
(453,164,o),
(375,164,cs),
(297,164,o),
(242,227,o),
(242,315,cs),
(242,687,l),
(48,687,l),
(48,305,ls),
(48,162,o),
(128,51,o),
(253,8,c),
(233,-13,o),
(223,-38,o),
(223,-71,cs),
(223,-141,o),
(269,-185,o),
(335,-185,cs),
(374,-185,o),
(406,-170,o),
(428,-150,c),
(406,-68,l),
(399,-74,o),
(387,-78,o),
(376,-78,cs),
(353,-78,o),
(337,-69,o),
(337,-48,cs),
(337,-27,o),
(352,-12,o),
(375,-12,cs),
(567,-12,o),
(702,119,o),
(702,305,cs),
(702,687,l)
);
}
);
width = 750;
}
);
note = Uogonek;
unicode = 370;
},
{
glyphname = Uring;
kernLeft = U;
kernRight = U;
layers = (
{
anchors = (
{
name = bottom;
pos = (375,874);
}
);
hints = (
{
horizontal = 1;
place = (687,-20);
target = down;
type = TopGhost;
},
{
horizontal = 1;
place = (915,72);
type = Stem;
},
{
horizontal = 1;
place = (745,72);
type = Stem;
},
{
horizontal = 1;
place = (-12,176);
type = Stem;
},
{
place = (508,194);
type = Stem;
},
{
place = (424,72);
type = Stem;
},
{
place = (254,72);
type = Stem;
},
{
place = (48,194);
type = Stem;
}
);
layerId = m01;
shapes = (
{
closed = 1;
nodes = (
(442,745,o),
(496,799,o),
(496,866,cs),
(496,933,o),
(442,987,o),
(375,987,cs),
(309,987,o),
(254,933,o),
(254,866,cs),
(254,799,o),
(309,745,o),
(375,745,cs)
);
},
{
closed = 1;
nodes = (
(348,817,o),
(326,839,o),
(326,866,cs),
(326,893,o),
(348,915,o),
(375,915,cs),
(402,915,o),
(424,893,o),
(424,866,cs),
(424,839,o),
(402,817,o),
(375,817,cs)
);
},
{
closed = 1;
nodes = (
(567,-12,o),
(702,119,o),
(702,305,cs),
(702,687,l),
(508,687,l),
(508,315,ls),
(508,227,o),
(453,164,o),
(375,164,cs),
(297,164,o),
(242,227,o),
(242,315,cs),
(242,687,l),
(48,687,l),
(48,305,ls),
(48,119,o),
(183,-12,o),
(375,-12,cs)
);
}
);
width = 750;
}
);
note = Uring;
unicode = 366;
},
{
glyphname = V;
kernLeft = V;
kernRight = V;
layers = (
{
hints = (
{
horizontal = 1;
place = (687,-20);
target = down;
type = TopGhost;
},
{
horizontal = 1;
place = (0,21);
target = up;
type = BottomGhost;
},
{
place = (27,747);
type = Stem;
}
);
layerId = m01;
shapes = (
{
closed = 1;
nodes = (
(555,687,l),
(401,285,l),
(246,687,l),
(27,687,l),
(291,0,l),
(510,0,l),
(774,687,l)
);
}
);
width = 801;
}
);
note = V;
unicode = 86;
},
{
glyphname = W;
kernLeft = W;
kernRight = W;
layers = (
{
anchors = (
{
name = bottom;
pos = (545,687);
}
);
hints = (
{
horizontal = 1;
place = (687,-20);
target = down;
type = TopGhost;
},
{
horizontal = 1;
place = (0,21);
target = up;
type = BottomGhost;
},
{
place = (14,1060);
type = Stem;
}
);
layerId = m01;
shapes = (
{
closed = 1;
nodes = (
(205,0,l),
(401,0,l),
(545,397,l),
(688,0,l),
(884,0,l),
(1074,687,l),
(865,687,l),
(781,290,l),
(649,687,l),
(440,687,l),
(307,290,l),
(223,687,l),
(14,687,l)
);
}
);
width = 1088;
}
);
note = W;
unicode = 87;
},
{
glyphname = Wacute;
kernLeft = W;
kernRight = W;
layers = (
{
anchors = (
{
name = bottom;
pos = (545,874);
}
);
hints = (
{
horizontal = 1;
place = (687,-20);
target = down;
type = TopGhost;
},
{
horizontal = 1;
place = (0,21);
target = up;
type = BottomGhost;
},
{
place = (14,1060);
type = Stem;
}
);
layerId = m01;
shapes = (
{
closed = 1;
nodes = (
(480,744,l),
(606,744,l),
(758,880,l),
(592,908,l)
);
},
{
closed = 1;
nodes = (
(205,0,l),
(401,0,l),
(545,397,l),
(688,0,l),
(884,0,l),
(1074,687,l),
(865,687,l),
(781,290,l),
(649,687,l),
(440,687,l),
(307,290,l),
(223,687,l),
(14,687,l)
);
}
);
width = 1088;
}
);
note = Wacute;
unicode = 7810;
},
{
glyphname = Wcircumflex;
kernLeft = W;
kernRight = W;
layers = (
{
anchors = (
{
name = bottom;
pos = (545,874);
}
);
hints = (
{
horizontal = 1;
place = (687,-20);
target = down;
type = TopGhost;
},
{
horizontal = 1;
place = (811,87);
type = Stem;
},
{
horizontal = 1;
place = (744,154);
type = Stem;
},
{
horizontal = 1;
place = (0,21);
target = up;
type = BottomGhost;
},
{
place = (14,1060);
type = Stem;
}
);
layerId = m01;
shapes = (
{
closed = 1;
nodes = (
(360,744,l),
(472,744,l),
(545,811,l),
(619,744,l),
(732,744,l),
(623,898,l),
(468,898,l)
);
},
{
closed = 1;
nodes = (
(205,0,l),
(401,0,l),
(545,397,l),
(688,0,l),
(884,0,l),
(1074,687,l),
(865,687,l),
(781,290,l),
(649,687,l),
(440,687,l),
(307,290,l),
(223,687,l),
(14,687,l)
);
}
);
width = 1088;
}
);
note = Wcircumflex;
unicode = 372;
},
{
glyphname = Wdieresis;
kernLeft = W;
kernRight = W;
layers = (
{
anchors = (
{
name = bottom;
pos = (545,874);
}
);
hints = (
{
horizontal = 1;
place = (687,-20);
target = down;
type = TopGhost;
},
{
horizontal = 1;
place = (745,173);
type = Stem;
},
{
horizontal = 1;
place = (0,21);
target = up;
type = BottomGhost;
},
{
place = (571,173);
type = Stem;
},
{
place = (346,173);
type = Stem;
}
);
layerId = m01;
shapes = (
{
closed = 1;
nodes = (
(480,745,o),
(519,784,o),
(519,832,cs),
(519,878,o),
(480,918,o),
(433,918,cs),
(383,918,o),
(346,878,o),
(346,832,cs),
(346,784,o),
(383,745,o),
(433,745,cs)
);
},
{
closed = 1;
nodes = (
(706,745,o),
(744,784,o),
(744,832,cs),
(744,878,o),
(706,918,o),
(658,918,cs),
(609,918,o),
(571,878,o),
(571,832,cs),
(571,784,o),
(609,745,o),
(658,745,cs)
);
},
{
closed = 1;
nodes = (
(205,0,l),
(401,0,l),
(545,397,l),
(688,0,l),
(884,0,l),
(1074,687,l),
(865,687,l),
(781,290,l),
(649,687,l),
(440,687,l),
(307,290,l),
(223,687,l),
(14,687,l)
);
}
);
width = 1088;
}
);
note = Wdieresis;
unicode = 7812;
},
{
glyphname = Wgrave;
kernLeft = W;
kernRight = W;
layers = (
{
anchors = (
{
name = bottom;
pos = (545,874);
}
);
hints = (
{
horizontal = 1;
place = (687,-20);
target = down;
type = TopGhost;
},
{
horizontal = 1;
place = (0,21);
target = up;
type = BottomGhost;
},
{
place = (14,1060);
type = Stem;
}
);
layerId = m01;
shapes = (
{
closed = 1;
nodes = (
(486,744,l),
(612,744,l),
(500,908,l),
(334,880,l)
);
},
{
closed = 1;
nodes = (
(205,0,l),
(401,0,l),
(545,397,l),
(688,0,l),
(884,0,l),
(1074,687,l),
(865,687,l),
(781,290,l),
(649,687,l),
(440,687,l),
(307,290,l),
(223,687,l),
(14,687,l)
);
}
);
width = 1088;
}
);
note = Wgrave;
unicode = 7808;
},
{
glyphname = X;
kernLeft = X;
kernRight = X;
layers = (
{
hints = (
{
horizontal = 1;
place = (687,-20);
target = down;
type = TopGhost;
},
{
horizontal = 1;
place = (0,21);
target = up;
type = BottomGhost;
},
{
place = (14,713);
type = Stem;
}
);
layerId = m01;
shapes = (
{
closed = 1;
nodes = (
(727,687,l),
(504,687,l),
(372,502,l),
(241,687,l),
(14,687,l),
(258,342,l),
(14,0,l),
(237,0,l),
(369,185,l),
(500,0,l),
(727,0,l),
(483,345,l)
);
}
);
width = 741;
}
);
note = X;
unicode = 88;
},
{
glyphname = Y;
kernLeft = Y;
kernRight = Y;
layers = (
{
anchors = (
{
name = bottom;
pos = (368,687);
}
);
hints = (
{
horizontal = 1;
place = (687,-20);
target = down;
type = TopGhost;
},
{
horizontal = 1;
place = (0,21);
target = up;
type = BottomGhost;
},
{
place = (271,194);
type = Stem;
}
);
layerId = m01;
shapes = (
{
closed = 1;
nodes = (
(271,0,l),
(465,0,l),
(465,226,l),
(728,687,l),
(515,687,l),
(368,408,l),
(229,687,l),
(7,687,l),
(271,226,l)
);
}
);
width = 735;
}
);
note = Y;
unicode = 89;
},
{
glyphname = Yacute;
kernLeft = Y;
kernRight = Y;
layers = (
{
anchors = (
{
name = bottom;
pos = (368,874);
}
);
hints = (
{
horizontal = 1;
place = (687,-20);
target = down;
type = TopGhost;
},
{
horizontal = 1;
place = (0,21);
target = up;
type = BottomGhost;
},
{
place = (271,194);
type = Stem;
}
);
layerId = m01;
shapes = (
{
closed = 1;
nodes = (
(303,744,l),
(429,744,l),
(581,880,l),
(415,908,l)
);
},
{
closed = 1;
nodes = (
(271,0,l),
(465,0,l),
(465,226,l),
(728,687,l),
(515,687,l),
(368,408,l),
(229,687,l),
(7,687,l),
(271,226,l)
);
}
);
width = 735;
}
);
note = Yacute;
unicode = 221;
},
{
glyphname = Ycircumflex;
kernLeft = Y;
kernRight = Y;
layers = (
{
anchors = (
{
name = bottom;
pos = (368,874);
}
);
hints = (
{
horizontal = 1;
place = (687,-20);
target = down;
type = TopGhost;
},
{
horizontal = 1;
place = (811,87);
type = Stem;
},
{
horizontal = 1;
place = (744,154);
type = Stem;
},
{
horizontal = 1;
place = (0,21);
target = up;
type = BottomGhost;
},
{
place = (271,194);
type = Stem;
}
);
layerId = m01;
shapes = (
{
closed = 1;
nodes = (
(183,744,l),
(295,744,l),
(368,811,l),
(442,744,l),
(555,744,l),
(446,898,l),
(291,898,l)
);
},
{
closed = 1;
nodes = (
(271,0,l),
(465,0,l),
(465,226,l),
(728,687,l),
(515,687,l),
(368,408,l),
(229,687,l),
(7,687,l),
(271,226,l)
);
}
);
width = 735;
}
);
note = Ycircumflex;
unicode = 374;
},
{
glyphname = Ydieresis;
kernLeft = Y;
kernRight = Y;
layers = (
{
anchors = (
{
name = bottom;
pos = (368,874);
}
);
hints = (
{
horizontal = 1;
place = (687,-20);
target = down;
type = TopGhost;
},
{
horizontal = 1;
place = (745,173);
type = Stem;
},
{
horizontal = 1;
place = (0,21);
target = up;
type = BottomGhost;
},
{
place = (394,173);
type = Stem;
},
{
place = (271,194);
type = Stem;
},
{
place = (169,173);
type = Stem;
}
);
layerId = m01;
shapes = (
{
closed = 1;
nodes = (
(303,745,o),
(342,784,o),
(342,832,cs),
(342,878,o),
(303,918,o),
(256,918,cs),
(206,918,o),
(169,878,o),
(169,832,cs),
(169,784,o),
(206,745,o),
(256,745,cs)
);
},
{
closed = 1;
nodes = (
(529,745,o),
(567,784,o),
(567,832,cs),
(567,878,o),
(529,918,o),
(481,918,cs),
(432,918,o),
(394,878,o),
(394,832,cs),
(394,784,o),
(432,745,o),
(481,745,cs)
);
},
{
closed = 1;
nodes = (
(271,0,l),
(465,0,l),
(465,226,l),
(728,687,l),
(515,687,l),
(368,408,l),
(229,687,l),
(7,687,l),
(271,226,l)
);
}
);
width = 735;
}
);
note = Ydieresis;
unicode = 376;
},
{
glyphname = Ygrave;
kernLeft = Y;
kernRight = Y;
layers = (
{
anchors = (
{
name = bottom;
pos = (368,874);
}
);
hints = (
{
horizontal = 1;
place = (687,-20);
target = down;
type = TopGhost;
},
{
horizontal = 1;
place = (0,21);
target = up;
type = BottomGhost;
},
{
place = (271,194);
type = Stem;
}
);
layerId = m01;
shapes = (
{
closed = 1;
nodes = (
(309,744,l),
(435,744,l),
(323,908,l),
(157,880,l)
);
},
{
closed = 1;
nodes = (
(271,0,l),
(465,0,l),
(465,226,l),
(728,687,l),
(515,687,l),
(368,408,l),
(229,687,l),
(7,687,l),
(271,226,l)
);
}
);
width = 735;
}
);
note = Ygrave;
unicode = 7922;
},
{
glyphname = Z;
kernLeft = Z;
kernRight = Z;
layers = (
{
anchors = (
{
name = bottom;
pos = (341,687);
}
);
hints = (
{
horizontal = 1;
place = (514,173);
type = Stem;
},
{
horizontal = 1;
place = (0,173);
type = Stem;
},
{
place = (38,597);
type = Stem;
}
);
layerId = m01;
shapes = (
{
closed = 1;
nodes = (
(39,0,l),
(635,0,l),
(635,173,l),
(306,173,l),
(630,542,l),
(630,687,l),
(46,687,l),
(46,514,l),
(364,514,l),
(38,145,l)
);
}
);
width = 674;
}
);
note = Z;
unicode = 90;
},
{
glyphname = Zacute;
kernLeft = Z;
kernRight = Z;
layers = (
{
anchors = (
{
name = bottom;
pos = (341,874);
}
);
hints = (
{
horizontal = 1;
place = (514,173);
type = Stem;
},
{
horizontal = 1;
place = (0,173);
type = Stem;
},
{
place = (38,597);
type = Stem;
}
);
layerId = m01;
shapes = (
{
closed = 1;
nodes = (
(276,744,l),
(402,744,l),
(554,880,l),
(388,908,l)
);
},
{
closed = 1;
nodes = (
(39,0,l),
(635,0,l),
(635,173,l),
(306,173,l),
(630,542,l),
(630,687,l),
(46,687,l),
(46,514,l),
(364,514,l),
(38,145,l)
);
}
);
width = 674;
}
);
note = Zacute;
unicode = 377;
},
{
glyphname = Zcaron;
kernLeft = Z;
kernRight = Z;
layers = (
{
anchors = (
{
name = bottom;
pos = (341,874);
}
);
hints = (
{
horizontal = 1;
place = (744,154);
type = Stem;
},
{
horizontal = 1;
place = (514,173);
type = Stem;
},
{
horizontal = 1;
place = (0,173);
type = Stem;
},
{
place = (38,597);
type = Stem;
}
);
layerId = m01;
shapes = (
{
closed = 1;
nodes = (
(264,744,l),
(419,744,l),
(528,898,l),
(415,898,l),
(341,831,l),
(268,898,l),
(156,898,l)
);
},
{
closed = 1;
nodes = (
(39,0,l),
(635,0,l),
(635,173,l),
(306,173,l),
(630,542,l),
(630,687,l),
(46,687,l),
(46,514,l),
(364,514,l),
(38,145,l)
);
}
);
width = 674;
}
);
note = Zcaron;
unicode = 381;
},
{
glyphname = Zdotaccent;
kernLeft = Z;
kernRight = Z;
layers = (
{
anchors = (
{
name = bottom;
pos = (341,874);
}
);
hints = (
{
horizontal = 1;
place = (745,173);
type = Stem;
},
{
horizontal = 1;
place = (514,173);
type = Stem;
},
{
horizontal = 1;
place = (0,173);
type = Stem;
},
{
place = (254,173);
type = Stem;
}
);
layerId = m01;
shapes = (
{
closed = 1;
nodes = (
(388,745,o),
(427,784,o),
(427,832,cs),
(427,878,o),
(388,918,o),
(341,918,cs),
(291,918,o),
(254,878,o),
(254,832,cs),
(254,784,o),
(291,745,o),
(341,745,cs)
);
},
{
closed = 1;
nodes = (
(39,0,l),
(635,0,l),
(635,173,l),
(306,173,l),
(630,542,l),
(630,687,l),
(46,687,l),
(46,514,l),
(364,514,l),
(38,145,l)
);
}
);
width = 674;
}
);
note = Zdotaccent;
unicode = 379;
},
{
glyphname = germandbls;
kernLeft = germandbls;
kernRight = germandbls;
layers = (
{
hints = (
{
horizontal = 1;
place = (524,200);
type = Stem;
},
{
horizontal = 1;
place = (273,147);
type = Stem;
},
{
horizontal = 1;
place = (0,163);
type = Stem;
},
{
place = (426,200);
type = Stem;
},
{
place = (394,200);
type = Stem;
},
{
place = (324,302);
type = Stem;
},
{
place = (62,193);
type = Stem;
}
);
layerId = m01;
shapes = (
{
closed = 1;
nodes = (
(62,0,l),
(255,0,l),
(255,463,ls),
(255,502,o),
(285,524,o),
(325,524,cs),
(368,524,o),
(394,502,o),
(394,472,cs),
(394,442,o),
(365,420,o),
(325,420,cs),
(324,420,l),
(324,273,l),
(354,273,ls),
(396,273,o),
(426,250,o),
(426,218,cs),
(426,186,o),
(396,163,o),
(354,163,cs),
(324,163,l),
(324,0,l),
(386,0,ls),
(526,0,o),
(626,75,o),
(626,185,cs),
(626,271,o),
(583,335,o),
(509,360,c),
(563,380,o),
(594,436,o),
(594,514,cs),
(594,637,o),
(484,724,o),
(328,724,cs),
(172,724,o),
(62,637,o),
(62,514,cs)
);
}
);
width = 653;
}
);
note = germandbls;
unicode = 223;
},
{
glyphname = zero;
layers = (
{
hints = (
{
horizontal = 1;
place = (523,176);
type = Stem;
},
{
horizontal = 1;
place = (-12,176);
type = Stem;
},
{
place = (492,200);
type = Stem;
},
{
place = (44,200);
type = Stem;
}
);
layerId = m01;
shapes = (
{
closed = 1;
nodes = (
(558,-12,o),
(692,135,o),
(692,344,cs),
(692,552,o),
(558,699,o),
(368,699,cs),
(178,699,o),
(44,552,o),
(44,344,cs),
(44,135,o),
(178,-12,o),
(368,-12,cs)
);
},
{
closed = 1;
nodes = (
(295,164,o),
(244,239,o),
(244,344,cs),
(244,449,o),
(295,523,o),
(368,523,cs),
(441,523,o),
(492,449,o),
(492,344,cs),
(492,239,o),
(441,164,o),
(368,164,cs)
);
}
);
width = 736;
}
);
note = zero;
unicode = 48;
},
{
glyphname = one;
layers = (
{
hints = (
{
horizontal = 1;
place = (687,-20);
target = down;
type = TopGhost;
},
{
horizontal = 1;
place = (0,21);
target = up;
type = BottomGhost;
},
{
place = (215,194);
type = Stem;
}
);
layerId = m01;
shapes = (
{
closed = 1;
nodes = (
(215,0,l),
(409,0,l),
(409,687,l),
(254,687,l),
(24,533,l),
(100,399,l),
(215,469,l)
);
}
);
width = 492;
}
);
note = one;
unicode = 49;
},
{
glyphname = two;
layers = (
{
hints = (
{
horizontal = 1;
place = (523,176);
type = Stem;
},
{
horizontal = 1;
place = (0,173);
type = Stem;
},
{
place = (395,200);
type = Stem;
}
);
layerId = m01;
shapes = (
{
closed = 1;
nodes = (
(51,0,l),
(601,0,l),
(601,173,l),
(348,173,l),
(437,230,ls),
(559,308,o),
(595,378,o),
(595,468,cs),
(595,601,o),
(485,699,o),
(322,699,cs),
(208,699,o),
(115,653,o),
(39,563,c),
(159,442,l),
(212,495,o),
(258,523,o),
(317,523,cs),
(362,523,o),
(395,498,o),
(395,460,cs),
(395,424,o),
(378,393,o),
(306,341,cs),
(51,157,l)
);
}
);
width = 657;
}
);
note = two;
unicode = 50;
},
{
glyphname = three;
layers = (
{
hints = (
{
horizontal = 1;
place = (526,173);
type = Stem;
},
{
horizontal = 1;
place = (263.5,161.5);
type = Stem;
},
{
horizontal = 1;
place = (-13,173);
type = Stem;
},
{
place = (403,200);
type = Stem;
},
{
place = (390,198);
type = Stem;
}
);
layerId = m01;
shapes = (
{
closed = 1;
nodes = (
(493,-13,o),
(603,74,o),
(603,196,cs),
(603,281,o),
(540,336,o),
(462,354,c),
(540,377,o),
(588,436,o),
(588,510,cs),
(588,618,o),
(490,699,o),
(320,699,cs),
(188,699,o),
(102,646,o),
(42,577,c),
(149,458,l),
(193,499,o),
(242,526,o),
(299,526,cs),
(355,526,o),
(390,507,o),
(390,473,cs),
(390,442,o),
(361,425,o),
(297,425,cs),
(215,425,l),
(215,263,l),
(298,264,ls),
(380,265,o),
(403,247,o),
(403,214,cs),
(403,183,o),
(372,160,o),
(310,160,cs),
(251,160,o),
(187,182,o),
(136,230,c),
(27,101,l),
(91,33,o),
(190,-13,o),
(321,-13,cs)
);
}
);
width = 649;
}
);
note = three;
unicode = 51;
},
{
glyphname = four;
layers = (
{
hints = (
{
horizontal = 1;
place = (687,-20);
target = down;
type = TopGhost;
},
{
horizontal = 1;
place = (122,160);
type = Stem;
},
{
horizontal = 1;
place = (0,21);
target = up;
type = BottomGhost;
},
{
place = (380,194);
type = Stem;
}
);
layerId = m01;
shapes = (
{
closed = 1;
nodes = (
(380,0,l),
(574,0,l),
(574,122,l),
(657,122,l),
(657,282,l),
(574,282,l),
(574,687,l),
(336,687,l),
(33,268,l),
(49,122,l),
(380,122,l)
);
},
{
closed = 1;
nodes = (
(232,282,l),
(380,488,l),
(380,282,l)
);
}
);
width = 692;
}
);
note = four;
unicode = 52;
},
{
glyphname = five;
layers = (
{
hints = (
{
horizontal = 1;
place = (514,173);
type = Stem;
},
{
horizontal = 1;
place = (296,158);
type = Stem;
},
{
horizontal = 1;
place = (-13,167);
type = Stem;
},
{
place = (422,193);
type = Stem;
},
{
place = (83,180.5);
type = Stem;
}
);
layerId = m01;
shapes = (
{
closed = 1;
nodes = (
(502,-13,o),
(615,82,o),
(615,234,cs),
(615,376,o),
(508,454,o),
(388,454,cs),
(336,454,o),
(294,439,o),
(262,416,c),
(265,514,l),
(577,514,l),
(577,687,l),
(88,687,l),
(78,304,l),
(205,256,l),
(238,282,o),
(278,296,o),
(325,296,cs),
(386,296,o),
(422,269,o),
(422,227,cs),
(422,188,o),
(388,154,o),
(322,154,cs),
(263,154,o),
(202,183,o),
(151,226,c),
(41,90,l),
(110,26,o),
(201,-13,o),
(322,-13,cs)
);
}
);
width = 662;
}
);
note = five;
unicode = 53;
},
{
glyphname = six;
layers = (
{
hints = (
{
horizontal = 1;
place = (530,169);
type = Stem;
},
{
horizontal = 1;
place = (299,155);
type = Stem;
},
{
horizontal = 1;
place = (-12,164);
type = Stem;
},
{
place = (436,200);
type = Stem;
}
);
layerId = m01;
shapes = (
{
closed = 1;
nodes = (
(349,454,o),
(294,437,o),
(254,411,c),
(271,488,o),
(316,530,o),
(389,530,cs),
(441,530,o),
(479,514,o),
(520,484,c),
(608,630,l),
(548,673,o),
(474,699,o),
(387,699,cs),
(174,699,o),
(46,552,o),
(46,331,cs),
(46,127,o),
(149,-12,o),
(359,-12,cs),
(514,-12,o),
(636,83,o),
(636,233,cs),
(636,370,o),
(531,454,o),
(403,454,cs)
);
},
{
closed = 1;
nodes = (
(284,152,o),
(259,179,o),
(250,246,c),
(269,279,o),
(302,299,o),
(341,299,cs),
(391,299,o),
(436,272,o),
(436,225,cs),
(436,183,o),
(400,152,o),
(346,152,cs)
);
}
);
width = 676;
}
);
note = six;
unicode = 54;
},
{
glyphname = seven;
layers = (
{
hints = (
{
horizontal = 1;
place = (514,173);
type = Stem;
},
{
horizontal = 1;
place = (0,21);
target = up;
type = BottomGhost;
},
{
place = (37,542);
type = Stem;
}
);
layerId = m01;
shapes = (
{
closed = 1;
nodes = (
(96,0,l),
(314,0,l),
(579,541,l),
(579,687,l),
(37,687,l),
(37,514,l),
(356,514,l)
);
}
);
width = 617;
}
);
note = seven;
unicode = 55;
},
{
glyphname = eight;
layers = (
{
hints = (
{
horizontal = 1;
place = (540,159);
type = Stem;
},
{
horizontal = 1;
place = (272,148);
type = Stem;
},
{
horizontal = 1;
place = (-12,160);
type = Stem;
},
{
place = (434,196);
type = Stem;
},
{
place = (421,191);
type = Stem;
},
{
place = (63,191);
type = Stem;
},
{
place = (45,196);
type = Stem;
}
);
layerId = m01;
shapes = (
{
closed = 1;
nodes = (
(495,-12,o),
(630,56,o),
(630,187,cs),
(630,261,o),
(585,320,o),
(506,355,c),
(573,387,o),
(612,437,o),
(612,510,cs),
(612,631,o),
(484,699,o),
(337,699,cs),
(193,699,o),
(63,634,o),
(63,509,cs),
(63,432,o),
(107,384,o),
(168,355,c),
(93,323,o),
(45,265,o),
(45,187,cs),
(45,57,o),
(178,-12,o),
(337,-12,cs)
);
},
{
closed = 1;
nodes = (
(291,423,o),
(254,448,o),
(254,482,cs),
(254,514,o),
(285,540,o),
(337,540,cs),
(389,540,o),
(421,514,o),
(421,482,cs),
(421,449,o),
(383,423,o),
(337,420,c)
);
},
{
closed = 1;
nodes = (
(278,148,o),
(241,173,o),
(241,210,cs),
(241,245,o),
(286,269,o),
(337,272,c),
(388,269,o),
(434,245,o),
(434,210,cs),
(434,173,o),
(395,148,o),
(337,148,cs)
);
}
);
width = 675;
}
);
note = eight;
unicode = 56;
},
{
glyphname = nine;
layers = (
{
hints = (
{
horizontal = 1;
place = (535,164);
type = Stem;
},
{
horizontal = 1;
place = (233,155);
type = Stem;
},
{
horizontal = 1;
place = (-12,169);
type = Stem;
},
{
place = (40,200);
type = Stem;
}
);
layerId = m01;
shapes = (
{
closed = 1;
nodes = (
(162,699,o),
(40,604,o),
(40,454,cs),
(40,317,o),
(145,233,o),
(273,233,cs),
(327,233,o),
(382,250,o),
(422,276,c),
(405,199,o),
(360,157,o),
(287,157,cs),
(235,157,o),
(197,173,o),
(156,203,c),
(68,57,l),
(128,14,o),
(202,-12,o),
(289,-12,cs),
(502,-12,o),
(630,135,o),
(630,356,cs),
(630,560,o),
(527,699,o),
(317,699,cs)
);
},
{
closed = 1;
nodes = (
(285,388,o),
(240,415,o),
(240,462,cs),
(240,504,o),
(276,535,o),
(330,535,cs),
(392,535,o),
(417,508,o),
(426,441,c),
(407,408,o),
(374,388,o),
(335,388,cs)
);
}
);
width = 676;
}
);
note = nine;
unicode = 57;
},
{
glyphname = period;
layers = (
{
hints = (
{
horizontal = 1;
place = (-12,231);
type = Stem;
},
{
horizontal = 1;
place = (-12,21);
target = up;
type = BottomGhost;
},
{
place = (44,231);
type = Stem;
}
);
layerId = m01;
shapes = (
{
closed = 1;
nodes = (
(224,-12,o),
(275,41,o),
(275,106,cs),
(275,166,o),
(224,219,o),
(162,219,cs),
(95,219,o),
(44,166,o),
(44,106,cs),
(44,41,o),
(95,-12,o),
(162,-12,cs)
);
}
);
width = 320;
}
);
note = period;
unicode = 46;
},
{
glyphname = comma;
kernLeft = comma;
kernRight = comma;
layers = (
{
hints = (
{
horizontal = 1;
place = (-12,21);
target = up;
type = BottomGhost;
},
{
place = (39,231);
type = Stem;
}
);
layerId = m01;
shapes = (
{
closed = 1;
nodes = (
(145,-155,l),
(224,-89,o),
(270,-8,o),
(270,65,cs),
(270,155,o),
(221,219,o),
(152,219,cs),
(91,219,o),
(39,166,o),
(39,102,cs),
(39,40,o),
(89,-12,o),
(149,-12,c),
(140,-45,o),
(116,-80,o),
(82,-107,c)
);
}
);
width = 315;
}
);
note = comma;
unicode = 44;
},
{
glyphname = colon;
kernLeft = colon;
kernRight = colon;
layers = (
{
hints = (
{
horizontal = 1;
place = (313,231);
type = Stem;
},
{
horizontal = 1;
place = (-12,231);
type = Stem;
},
{
horizontal = 1;
place = (-12,21);
target = up;
type = BottomGhost;
},
{
place = (51,231);
type = Stem;
}
);
layerId = m01;
shapes = (
{
closed = 1;
nodes = (
(231,313,o),
(282,366,o),
(282,431,cs),
(282,491,o),
(231,544,o),
(169,544,cs),
(102,544,o),
(51,491,o),
(51,431,cs),
(51,366,o),
(102,313,o),
(169,313,cs)
);
},
{
closed = 1;
nodes = (
(231,-12,o),
(282,41,o),
(282,106,cs),
(282,166,o),
(231,219,o),
(169,219,cs),
(102,219,o),
(51,166,o),
(51,106,cs),
(51,41,o),
(102,-12,o),
(169,-12,cs)
);
}
);
width = 333;
}
);
note = colon;
unicode = 58;
},
{
glyphname = semicolon;
kernLeft = semicolon;
kernRight = semicolon;
layers = (
{
hints = (
{
horizontal = 1;
place = (313,231);
type = Stem;
},
{
horizontal = 1;
place = (-12,21);
target = up;
type = BottomGhost;
},
{
place = (47,231);
type = Stem;
},
{
place = (46,231);
type = Stem;
}
);
layerId = m01;
shapes = (
{
closed = 1;
nodes = (
(227,313,o),
(278,366,o),
(278,431,cs),
(278,491,o),
(227,544,o),
(165,544,cs),
(98,544,o),
(47,491,o),
(47,431,cs),
(47,366,o),
(98,313,o),
(165,313,cs)
);
},
{
closed = 1;
nodes = (
(152,-155,l),
(231,-89,o),
(277,-8,o),
(277,65,cs),
(277,155,o),
(228,219,o),
(159,219,cs),
(98,219,o),
(46,166,o),
(46,102,cs),
(46,40,o),
(96,-12,o),
(156,-12,c),
(147,-45,o),
(123,-80,o),
(89,-107,c)
);
}
);
width = 328;
}
);
note = semicolon;
unicode = 59;
},
{
glyphname = ellipsis;
kernLeft = ellipsis;
kernRight = ellipsis;
layers = (
{
hints = (
{
horizontal = 1;
place = (-12,231);
type = Stem;
},
{
place = (644,231);
type = Stem;
},
{
place = (344,231);
type = Stem;
},
{
place = (44,231);
type = Stem;
}
);
layerId = m01;
shapes = (
{
closed = 1;
nodes = (
(224,-12,o),
(275,41,o),
(275,106,cs),
(275,166,o),
(224,219,o),
(162,219,cs),
(95,219,o),
(44,166,o),
(44,106,cs),
(44,41,o),
(95,-12,o),
(162,-12,cs)
);
},
{
closed = 1;
nodes = (
(524,-12,o),
(575,41,o),
(575,106,cs),
(575,166,o),
(524,219,o),
(462,219,cs),
(395,219,o),
(344,166,o),
(344,106,cs),
(344,41,o),
(395,-12,o),
(462,-12,cs)
);
},
{
closed = 1;
nodes = (
(824,-12,o),
(875,41,o),
(875,106,cs),
(875,166,o),
(824,219,o),
(762,219,cs),
(695,219,o),
(644,166,o),
(644,106,cs),
(644,41,o),
(695,-12,o),
(762,-12,cs)
);
}
);
width = 920;
}
);
note = ellipsis;
unicode = 8230;
},
{
glyphname = exclam;
layers = (
{
hints = (
{
horizontal = 1;
place = (687,-20);
target = down;
type = TopGhost;
},
{
horizontal = 1;
place = (-12,231);
type = Stem;
},
{
horizontal = 1;
place = (-12,21);
target = up;
type = BottomGhost;
},
{
place = (53,231);
type = Stem;
}
);
layerId = m01;
shapes = (
{
closed = 1;
nodes = (
(106,274,l),
(236,274,l),
(278,687,l),
(63,687,l)
);
},
{
closed = 1;
nodes = (
(233,-12,o),
(284,41,o),
(284,106,cs),
(284,166,o),
(233,219,o),
(171,219,cs),
(104,219,o),
(53,166,o),
(53,106,cs),
(53,41,o),
(104,-12,o),
(171,-12,cs)
);
}
);
width = 342;
}
);
note = exclam;
unicode = 33;
},
{
glyphname = exclamdown;
layers = (
{
hints = (
{
horizontal = 1;
place = (529,-20);
target = down;
type = TopGhost;
},
{
horizontal = 1;
place = (298,231);
type = Stem;
},
{
place = (58,231);
type = Stem;
}
);
layerId = m01;
shapes = (
{
closed = 1;
nodes = (
(109,529,o),
(58,476,o),
(58,411,cs),
(58,351,o),
(109,298,o),
(171,298,cs),
(238,298,o),
(289,351,o),
(289,411,cs),
(289,476,o),
(238,529,o),
(171,529,cs)
);
},
{
closed = 1;
nodes = (
(236,243,l),
(106,243,l),
(64,-170,l),
(279,-170,l)
);
}
);
width = 344;
}
);
note = exclamdown;
unicode = 161;
},
{
glyphname = question;
kernLeft = question;
kernRight = question;
layers = (
{
hints = (
{
horizontal = 1;
place = (526,173);
type = Stem;
},
{
horizontal = 1;
place = (264,150);
type = Stem;
},
{
horizontal = 1;
place = (-12,231);
type = Stem;
},
{
horizontal = 1;
place = (-12,21);
target = up;
type = BottomGhost;
},
{
place = (301,196);
type = Stem;
},
{
place = (172,164);
type = Stem;
},
{
place = (136,231);
type = Stem;
}
);
layerId = m01;
shapes = (
{
closed = 1;
nodes = (
(172,264,l),
(336,264,l),
(336,300,l),
(430,323,o),
(497,403,o),
(497,494,cs),
(497,614,o),
(400,699,o),
(262,699,cs),
(165,699,o),
(81,658,o),
(21,596,c),
(127,487,l),
(152,510,o),
(192,526,o),
(224,526,cs),
(269,526,o),
(301,505,o),
(301,475,cs),
(301,439,o),
(248,414,o),
(172,414,c)
);
},
{
closed = 1;
nodes = (
(316,-12,o),
(367,41,o),
(367,106,cs),
(367,166,o),
(316,219,o),
(254,219,cs),
(187,219,o),
(136,166,o),
(136,106,cs),
(136,41,o),
(187,-12,o),
(254,-12,cs)
);
}
);
width = 530;
}
);
note = question;
unicode = 63;
},
{
glyphname = questiondown;
kernLeft = questiondown;
kernRight = questiondown;
layers = (
{
hints = (
{
horizontal = 1;
place = (529,-20);
target = down;
type = TopGhost;
},
{
horizontal = 1;
place = (298,231);
type = Stem;
},
{
horizontal = 1;
place = (103,150);
type = Stem;
},
{
horizontal = 1;
place = (-182,173);
type = Stem;
},
{
place = (194,164);
type = Stem;
},
{
place = (163,231);
type = Stem;
},
{
place = (33,196);
type = Stem;
}
);
layerId = m01;
shapes = (
{
closed = 1;
nodes = (
(214,529,o),
(163,476,o),
(163,411,cs),
(163,351,o),
(214,298,o),
(276,298,cs),
(343,298,o),
(394,351,o),
(394,411,cs),
(394,476,o),
(343,529,o),
(276,529,cs)
);
},
{
closed = 1;
nodes = (
(358,253,l),
(194,253,l),
(194,217,l),
(100,194,o),
(33,114,o),
(33,23,cs),
(33,-97,o),
(130,-182,o),
(268,-182,cs),
(365,-182,o),
(449,-141,o),
(509,-79,c),
(403,30,l),
(378,7,o),
(338,-9,o),
(306,-9,cs),
(261,-9,o),
(229,12,o),
(229,42,cs),
(229,78,o),
(282,103,o),
(358,103,c)
);
}
);
width = 530;
}
);
note = questiondown;
unicode = 191;
},
{
glyphname = periodcentered;
kernLeft = periodcentered;
kernRight = periodcentered;
layers = (
{
hints = (
{
horizontal = 1;
place = (177,204);
type = Stem;
},
{
place = (44,204);
type = Stem;
}
);
layerId = m01;
shapes = (
{
closed = 1;
nodes = (
(202,177,o),
(248,222,o),
(248,279,cs),
(248,335,o),
(202,381,o),
(146,381,cs),
(89,381,o),
(44,335,o),
(44,279,cs),
(44,222,o),
(89,177,o),
(146,177,cs)
);
}
);
width = 293;
}
);
note = periodcentered;
unicode = 183;
},
{
glyphname = bullet;
kernLeft = bullet;
kernRight = bullet;
layers = (
{
hints = (
{
horizontal = 1;
place = (148,299);
type = Stem;
},
{
place = (44,299);
type = Stem;
}
);
layerId = m01;
shapes = (
{
closed = 1;
nodes = (
(276,148,o),
(343,215,o),
(343,298,cs),
(343,380,o),
(276,447,o),
(194,447,cs),
(111,447,o),
(44,380,o),
(44,298,cs),
(44,215,o),
(111,148,o),
(194,148,cs)
);
}
);
width = 387;
}
);
note = bullet;
unicode = 8226;
},
{
glyphname = asterisk;
kernLeft = asterisk;
kernRight = asterisk;
layers = (
{
hints = (
{
horizontal = 1;
place = (396,237);
type = Stem;
},
{
horizontal = 1;
place = (395,237);
type = Stem;
},
{
place = (169,94);
type = Stem;
},
{
place = (168,94);
type = Stem;
},
{
place = (45,340);
type = Stem;
}
);
layerId = m01;
shapes = (
{
closed = 1;
nodes = (
(242,325,o),
(263,345,o),
(263,368,cs),
(263,400,o),
(242,444,o),
(237,476,c),
(262,456,o),
(290,416,o),
(317,400,cs),
(337,388,o),
(365,396,o),
(378,419,cs),
(391,442,o),
(384,470,o),
(364,481,cs),
(337,497,o),
(289,502,o),
(258,514,c),
(288,526,o),
(337,530,o),
(364,546,cs),
(384,557,o),
(391,585,o),
(378,608,cs),
(365,631,o),
(337,639,o),
(317,627,cs),
(290,611,o),
(262,572,o),
(236,552,c),
(241,584,o),
(262,628,o),
(262,660,cs),
(262,683,o),
(241,703,o),
(215,703,cs),
(189,703,o),
(168,683,o),
(168,660,cs),
(168,628,o),
(188,584,o),
(193,552,c),
(168,572,o),
(140,612,o),
(113,628,cs),
(93,640,o),
(65,632,o),
(52,609,cs),
(39,586,o),
(46,558,o),
(66,547,cs),
(93,531,o),
(140,526,o),
(171,514,c),
(141,502,o),
(93,498,o),
(66,482,cs),
(46,471,o),
(39,443,o),
(52,420,cs),
(65,397,o),
(93,389,o),
(113,401,cs),
(140,417,o),
(167,456,o),
(193,476,c),
(188,444,o),
(169,400,o),
(169,368,cs),
(169,345,o),
(190,325,o),
(216,325,cs)
);
}
);
width = 430;
}
);
note = asterisk;
unicode = 42;
},
{
glyphname = numbersign;
kernLeft = numbersign;
kernRight = numbersign;
layers = (
{
hints = (
{
horizontal = 1;
place = (687,-20);
target = down;
type = TopGhost;
},
{
horizontal = 1;
place = (404,134);
type = Stem;
},
{
horizontal = 1;
place = (147,134);
type = Stem;
},
{
horizontal = 1;
place = (0,21);
target = up;
type = BottomGhost;
},
{
place = (33,624);
type = Stem;
}
);
layerId = m01;
shapes = (
{
closed = 1;
nodes = (
(624,404,l),
(657,538,l),
(574,538,l),
(612,687,l),
(477,687,l),
(439,538,l),
(347,538,l),
(385,687,l),
(250,687,l),
(212,538,l),
(127,538,l),
(94,404,l),
(179,404,l),
(148,281,l),
(66,281,l),
(33,147,l),
(114,147,l),
(77,0,l),
(212,0,l),
(249,147,l),
(341,147,l),
(304,0,l),
(439,0,l),
(476,147,l),
(560,147,l),
(593,281,l),
(510,281,l),
(541,404,l)
);
},
{
closed = 1;
nodes = (
(375,281,l),
(283,281,l),
(314,404,l),
(406,404,l)
);
}
);
width = 689;
}
);
note = numbersign;
unicode = 35;
},
{
glyphname = slash;
kernLeft = slash;
kernRight = slash;
layers = (
{
hints = (
{
horizontal = 1;
place = (-74,817);
type = Stem;
},
{
place = (1,540);
type = Stem;
}
);
layerId = m01;
shapes = (
{
closed = 1;
nodes = (
(1,-74,l),
(201,-74,l),
(541,743,l),
(341,743,l)
);
}
);
width = 542;
}
);
note = slash;
unicode = 47;
},
{
glyphname = backslash;
kernLeft = backslash;
kernRight = backslash;
layers = (
{
hints = (
{
horizontal = 1;
place = (-74,817);
type = Stem;
},
{
place = (1,540);
type = Stem;
}
);
layerId = m01;
shapes = (
{
closed = 1;
nodes = (
(341,-74,l),
(541,-74,l),
(201,743,l),
(1,743,l)
);
}
);
width = 542;
}
);
note = backslash;
unicode = 92;
},
{
glyphname = parenleft;
kernLeft = parenleft;
kernRight = parenleft;
layers = (
{
hints = (
{
horizontal = 1;
place = (700,-20);
target = down;
type = TopGhost;
},
{
place = (42,189);
type = Stem;
}
);
layerId = m01;
shapes = (
{
closed = 1;
nodes = (
(373,-67,l),
(273,36,o),
(231,133,o),
(231,265,cs),
(231,398,o),
(273,495,o),
(373,598,c),
(276,700,l),
(130,604,o),
(42,447,o),
(42,265,cs),
(42,84,o),
(130,-74,o),
(276,-170,c)
);
}
);
width = 401;
}
);
note = parenleft;
unicode = 40;
},
{
glyphname = parenright;
kernLeft = parenright;
kernRight = parenright;
layers = (
{
hints = (
{
horizontal = 1;
place = (700,-20);
target = down;
type = TopGhost;
},
{
place = (170,189);
type = Stem;
}
);
layerId = m01;
shapes = (
{
closed = 1;
nodes = (
(125,-170,l),
(271,-74,o),
(359,84,o),
(359,265,cs),
(359,447,o),
(271,604,o),
(125,700,c),
(28,598,l),
(128,495,o),
(170,398,o),
(170,265,cs),
(170,133,o),
(128,36,o),
(28,-67,c)
);
}
);
width = 401;
}
);
note = parenright;
unicode = 41;
},
{
glyphname = braceleft;
kernLeft = braceleft;
layers = (
{
hints = (
{
horizontal = 1;
place = (697,-20);
target = down;
type = TopGhost;
},
{
horizontal = 1;
place = (211,110);
type = Stem;
},
{
place = (119,147);
type = Stem;
}
);
layerId = m01;
shapes = (
{
closed = 1;
nodes = (
(388,-53,l),
(289,-41,o),
(266,-25,o),
(266,39,cs),
(267,153,ls),
(267,211,o),
(241,249,o),
(188,266,c),
(241,283,o),
(267,321,o),
(267,378,cs),
(266,493,ls),
(266,556,o),
(287,572,o),
(388,584,c),
(373,697,l),
(192,685,o),
(119,629,o),
(119,508,cs),
(121,402,ls),
(121,345,o),
(95,321,o),
(27,321,c),
(27,211,l),
(93,211,o),
(121,187,o),
(121,130,cs),
(119,23,ls),
(119,-97,o),
(191,-154,o),
(373,-166,c)
);
}
);
width = 427;
}
);
note = braceleft;
unicode = 123;
},
{
glyphname = braceright;
kernLeft = braceright;
kernRight = braceright;
layers = (
{
hints = (
{
horizontal = 1;
place = (697,-20);
target = down;
type = TopGhost;
},
{
horizontal = 1;
place = (211,110);
type = Stem;
},
{
place = (161,147);
type = Stem;
}
);
layerId = m01;
shapes = (
{
closed = 1;
nodes = (
(54,-166,l),
(236,-154,o),
(308,-97,o),
(308,23,cs),
(306,130,ls),
(306,187,o),
(334,211,o),
(400,211,c),
(400,321,l),
(332,321,o),
(306,345,o),
(306,402,cs),
(308,508,ls),
(308,629,o),
(235,685,o),
(54,697,c),
(39,584,l),
(140,572,o),
(161,556,o),
(161,493,cs),
(160,378,ls),
(160,321,o),
(186,283,o),
(239,266,c),
(186,249,o),
(160,211,o),
(160,153,cs),
(161,39,ls),
(161,-25,o),
(138,-41,o),
(39,-53,c)
);
}
);
width = 427;
}
);
note = braceright;
unicode = 125;
},
{
glyphname = bracketleft;
kernLeft = bracketleft;
kernRight = bracketleft;
layers = (
{
hints = (
{
horizontal = 1;
place = (568,121);
type = Stem;
},
{
horizontal = 1;
place = (-160,121);
type = Stem;
},
{
place = (85,295);
type = Stem;
},
{
place = (85,147);
type = Stem;
}
);
layerId = m01;
shapes = (
{
closed = 1;
nodes = (
(85,-160,l),
(380,-160,l),
(380,-39,l),
(232,-39,l),
(232,568,l),
(380,568,l),
(380,689,l),
(85,689,l)
);
}
);
width = 424;
}
);
note = bracketleft;
unicode = 91;
},
{
glyphname = bracketright;
kernLeft = bracketright;
kernRight = bracketright;
layers = (
{
hints = (
{
horizontal = 1;
place = (568,121);
type = Stem;
},
{
horizontal = 1;
place = (-160,121);
type = Stem;
},
{
place = (192,147);
type = Stem;
},
{
place = (44,295);
type = Stem;
}
);
layerId = m01;
shapes = (
{
closed = 1;
nodes = (
(44,-160,l),
(339,-160,l),
(339,689,l),
(44,689,l),
(44,568,l),
(192,568,l),
(192,-39,l),
(44,-39,l)
);
}
);
width = 424;
}
);
note = bracketright;
unicode = 93;
},
{
glyphname = hyphen;
kernLeft = hyphen;
kernRight = hyphen;
layers = (
{
hints = (
{
horizontal = 1;
place = (199,158);
type = Stem;
},
{
place = (41,284);
type = Stem;
}
);
layerId = m01;
shapes = (
{
closed = 1;
nodes = (
(41,199,l),
(325,199,l),
(325,357,l),
(41,357,l)
);
}
);
width = 366;
}
);
note = hyphen;
unicode = 45;
},
{
glyphname = endash;
kernLeft = endash;
kernRight = endash;
layers = (
{
hints = (
{
horizontal = 1;
place = (200,156);
type = Stem;
},
{
place = (42,491);
type = Stem;
}
);
layerId = m01;
shapes = (
{
closed = 1;
nodes = (
(42,200,l),
(533,200,l),
(533,356,l),
(42,356,l)
);
}
);
width = 575;
}
);
note = endash;
unicode = 8211;
},
{
glyphname = emdash;
kernLeft = emdash;
kernRight = emdash;
layers = (
{
hints = (
{
horizontal = 1;
place = (200,156);
type = Stem;
},
{
place = (42,796);
type = Stem;
}
);
layerId = m01;
shapes = (
{
closed = 1;
nodes = (
(42,200,l),
(838,200,l),
(838,356,l),
(42,356,l)
);
}
);
width = 880;
}
);
note = emdash;
unicode = 8212;
},
{
glyphname = underscore;
kernLeft = underscore;
kernRight = underscore;
layers = (
{
hints = (
{
horizontal = 1;
place = (-159,98);
type = Stem;
},
{
place = (35,596);
type = Stem;
}
);
layerId = m01;
shapes = (
{
closed = 1;
nodes = (
(35,-159,l),
(631,-159,l),
(631,-61,l),
(35,-61,l)
);
}
);
width = 666;
}
);
note = underscore;
unicode = 95;
},
{
glyphname = quotesinglbase;
kernLeft = quotesinglbase;
kernRight = quotesinglbase;
layers = (
{
hints = (
{
horizontal = 1;
place = (-12,21);
target = up;
type = BottomGhost;
},
{
place = (39,231);
type = Stem;
}
);
layerId = m01;
shapes = (
{
closed = 1;
nodes = (
(145,-155,l),
(224,-89,o),
(270,-8,o),
(270,65,cs),
(270,155,o),
(221,219,o),
(152,219,cs),
(91,219,o),
(39,166,o),
(39,102,cs),
(39,40,o),
(89,-12,o),
(149,-12,c),
(140,-45,o),
(116,-80,o),
(82,-107,c)
);
}
);
width = 315;
}
);
note = quotesinglbase;
unicode = 8218;
},
{
glyphname = quotedblbase;
kernLeft = quotedblbase;
kernRight = quotedblbase;
layers = (
{
hints = (
{
horizontal = 1;
place = (-12,231);
type = Stem;
},
{
horizontal = 1;
place = (-12,21);
target = up;
type = BottomGhost;
},
{
place = (340,231);
type = Stem;
},
{
place = (39,231);
type = Stem;
}
);
layerId = m01;
shapes = (
{
closed = 1;
nodes = (
(145,-155,l),
(224,-89,o),
(270,-8,o),
(270,65,cs),
(270,155,o),
(221,219,o),
(152,219,cs),
(91,219,o),
(39,166,o),
(39,102,cs),
(39,40,o),
(89,-12,o),
(149,-12,c),
(140,-45,o),
(116,-80,o),
(82,-107,c)
);
},
{
closed = 1;
nodes = (
(446,-155,l),
(525,-89,o),
(571,-8,o),
(571,65,cs),
(571,155,o),
(522,219,o),
(453,219,cs),
(392,219,o),
(340,166,o),
(340,102,cs),
(340,40,o),
(390,-12,o),
(450,-12,c),
(441,-45,o),
(417,-80,o),
(383,-107,c)
);
}
);
width = 616;
}
);
note = quotedblbase;
unicode = 8222;
},
{
glyphname = quotedblleft;
kernLeft = quotedblleft;
kernRight = quotedblleft;
layers = (
{
hints = (
{
horizontal = 1;
place = (330,374);
type = Stem;
},
{
horizontal = 1;
place = (330,231);
type = Stem;
},
{
place = (345,231);
type = Stem;
},
{
place = (45,231);
type = Stem;
}
);
layerId = m01;
shapes = (
{
closed = 1;
nodes = (
(170,704,l),
(91,638,o),
(45,557,o),
(45,484,cs),
(45,394,o),
(94,330,o),
(163,330,cs),
(224,330,o),
(276,383,o),
(276,447,cs),
(276,509,o),
(226,561,o),
(166,561,c),
(175,594,o),
(199,629,o),
(233,656,c)
);
},
{
closed = 1;
nodes = (
(470,704,l),
(391,638,o),
(345,557,o),
(345,484,cs),
(345,394,o),
(394,330,o),
(463,330,cs),
(524,330,o),
(576,383,o),
(576,447,cs),
(576,509,o),
(526,561,o),
(466,561,c),
(475,594,o),
(499,629,o),
(533,656,c)
);
}
);
width = 616;
}
);
note = quotedblleft;
unicode = 8220;
},
{
glyphname = quotedblright;
kernLeft = quotedblright;
kernRight = quotedblright;
layers = (
{
hints = (
{
horizontal = 1;
place = (474,231);
type = Stem;
},
{
horizontal = 1;
place = (331,374);
type = Stem;
},
{
place = (340,231);
type = Stem;
},
{
place = (39,231);
type = Stem;
}
);
layerId = m01;
shapes = (
{
closed = 1;
nodes = (
(145,331,l),
(224,397,o),
(270,478,o),
(270,551,cs),
(270,641,o),
(221,705,o),
(152,705,cs),
(91,705,o),
(39,652,o),
(39,588,cs),
(39,526,o),
(89,474,o),
(149,474,c),
(140,441,o),
(116,406,o),
(82,379,c)
);
},
{
closed = 1;
nodes = (
(446,331,l),
(525,397,o),
(571,478,o),
(571,551,cs),
(571,641,o),
(522,705,o),
(453,705,cs),
(392,705,o),
(340,652,o),
(340,588,cs),
(340,526,o),
(390,474,o),
(450,474,c),
(441,441,o),
(417,406,o),
(383,379,c)
);
}
);
width = 616;
}
);
note = quotedblright;
unicode = 8221;
},
{
glyphname = quoteleft;
kernLeft = quoteleft;
kernRight = quoteleft;
layers = (
{
hints = (
{
horizontal = 1;
place = (330,374);
type = Stem;
},
{
horizontal = 1;
place = (330,231);
type = Stem;
},
{
place = (45,231);
type = Stem;
}
);
layerId = m01;
shapes = (
{
closed = 1;
nodes = (
(170,704,l),
(91,638,o),
(45,557,o),
(45,484,cs),
(45,394,o),
(94,330,o),
(163,330,cs),
(224,330,o),
(276,383,o),
(276,447,cs),
(276,509,o),
(226,561,o),
(166,561,c),
(175,594,o),
(199,629,o),
(233,656,c)
);
}
);
width = 316;
}
);
note = quoteleft;
unicode = 8216;
},
{
glyphname = quoteright;
kernLeft = quoteright;
kernRight = quoteright;
layers = (
{
hints = (
{
horizontal = 1;
place = (474,231);
type = Stem;
},
{
horizontal = 1;
place = (331,374);
type = Stem;
},
{
place = (39,231);
type = Stem;
}
);
layerId = m01;
shapes = (
{
closed = 1;
nodes = (
(145,331,l),
(224,397,o),
(270,478,o),
(270,551,cs),
(270,641,o),
(221,705,o),
(152,705,cs),
(91,705,o),
(39,652,o),
(39,588,cs),
(39,526,o),
(89,474,o),
(149,474,c),
(140,441,o),
(116,406,o),
(82,379,c)
);
}
);
width = 315;
}
);
note = quoteright;
unicode = 8217;
},
{
glyphname = guillemotleft;
kernLeft = guillemotleft;
kernRight = guillemotleft;
layers = (
{
hints = (
{
horizontal = 1;
place = (48,414);
type = Stem;
},
{
place = (27,567);
type = Stem;
}
);
layerId = m01;
shapes = (
{
closed = 1;
nodes = (
(194,48,l),
(336,79,l),
(197,256,l),
(336,432,l),
(194,462,l),
(27,256,l)
);
},
{
closed = 1;
nodes = (
(452,48,l),
(594,79,l),
(455,256,l),
(594,432,l),
(452,462,l),
(285,256,l)
);
}
);
width = 632;
}
);
note = guillemotleft;
unicode = 171;
},
{
glyphname = guillemotright;
kernLeft = guillemotright;
kernRight = guillemotright;
layers = (
{
hints = (
{
horizontal = 1;
place = (48,414);
type = Stem;
},
{
place = (38,567);
type = Stem;
}
);
layerId = m01;
shapes = (
{
closed = 1;
nodes = (
(180,48,l),
(347,256,l),
(180,462,l),
(38,432,l),
(177,256,l),
(38,79,l)
);
},
{
closed = 1;
nodes = (
(438,48,l),
(605,256,l),
(438,462,l),
(296,432,l),
(435,256,l),
(296,79,l)
);
}
);
width = 632;
}
);
note = guillemotright;
unicode = 187;
},
{
glyphname = guilsinglleft;
kernLeft = guilsinglleft;
kernRight = guilsinglleft;
layers = (
{
hints = (
{
horizontal = 1;
place = (48,414);
type = Stem;
},
{
place = (27,309);
type = Stem;
}
);
layerId = m01;
shapes = (
{
closed = 1;
nodes = (
(194,48,l),
(336,79,l),
(197,256,l),
(336,432,l),
(194,462,l),
(27,256,l)
);
}
);
width = 374;
}
);
note = guilsinglleft;
unicode = 8249;
},
{
glyphname = guilsinglright;
kernLeft = guilsinglright;
kernRight = guilsinglright;
layers = (
{
hints = (
{
horizontal = 1;
place = (48,414);
type = Stem;
},
{
place = (38,309);
type = Stem;
}
);
layerId = m01;
shapes = (
{
closed = 1;
nodes = (
(180,48,l),
(347,256,l),
(180,462,l),
(38,432,l),
(177,256,l),
(38,79,l)
);
}
);
width = 374;
}
);
note = guilsinglright;
unicode = 8250;
},
{
glyphname = quotedbl;
kernLeft = quotedbl;
kernRight = quotedbl;
layers = (
{
hints = (
{
horizontal = 1;
place = (370,335);
type = Stem;
},
{
place = (330,192);
type = Stem;
},
{
place = (50,192);
type = Stem;
}
);
layerId = m01;
shapes = (
{
closed = 1;
nodes = (
(180,370,l),
(211,455,o),
(242,547,o),
(242,606,cs),
(242,660,o),
(198,705,o),
(146,705,cs),
(94,705,o),
(50,660,o),
(50,606,cs),
(50,547,o),
(81,455,o),
(112,370,c)
);
},
{
closed = 1;
nodes = (
(460,370,l),
(491,455,o),
(522,547,o),
(522,606,cs),
(522,660,o),
(478,705,o),
(426,705,cs),
(374,705,o),
(330,660,o),
(330,606,cs),
(330,547,o),
(361,455,o),
(392,370,c)
);
}
);
width = 572;
}
);
note = quotedbl;
unicode = 34;
},
{
glyphname = quotesingle;
kernLeft = quotesingle;
kernRight = quotesingle;
layers = (
{
hints = (
{
horizontal = 1;
place = (370,335);
type = Stem;
},
{
place = (50,192);
type = Stem;
}
);
layerId = m01;
shapes = (
{
closed = 1;
nodes = (
(180,370,l),
(211,455,o),
(242,547,o),
(242,606,cs),
(242,660,o),
(198,705,o),
(146,705,cs),
(94,705,o),
(50,660,o),
(50,606,cs),
(50,547,o),
(81,455,o),
(112,370,c)
);
}
);
width = 292;
}
);
note = quotesingle;
unicode = 39;
},
{
glyphname = cent;
kernLeft = cent;
kernRight = cent;
layers = (
{
anchors = (
{
name = bottom;
pos = (332,517);
}
);
hints = (
{
horizontal = 1;
place = (525,-20);
target = down;
type = TopGhost;
},
{
horizontal = 1;
place = (523,-20);
target = down;
type = TopGhost;
},
{
horizontal = 1;
place = (369,220);
type = Stem;
},
{
horizontal = 1;
place = (-74,222);
type = Stem;
},
{
horizontal = 1;
place = (-7,21);
target = up;
type = BottomGhost;
},
{
place = (296,110);
type = Stem;
},
{
place = (61,184);
type = Stem;
}
);
layerId = m01;
shapes = (
{
closed = 1;
nodes = (
(445,189,l),
(424,165,o),
(386,148,o),
(353,148,cs),
(294,148,o),
(245,199,o),
(245,260,cs),
(245,319,o),
(294,369,o),
(352,369,cs),
(385,369,o),
(422,352,o),
(442,329,c),
(569,433,l),
(529,480,o),
(474,513,o),
(406,525,c),
(406,589,l),
(296,589,l),
(296,523,l),
(164,498,o),
(61,388,o),
(61,259,cs),
(61,130,o),
(164,18,o),
(296,-7,c),
(296,-74,l),
(406,-74,l),
(406,-7,l),
(475,4,o),
(530,39,o),
(572,87,c)
);
}
);
width = 624;
}
);
note = cent;
unicode = 162;
},
{
glyphname = dollar;
kernLeft = dollar;
layers = (
{
anchors = (
{
name = bottom;
pos = (361,687);
}
);
hints = (
{
horizontal = 1;
place = (698,-20);
target = down;
type = TopGhost;
},
{
horizontal = 1;
place = (694,-20);
target = down;
type = TopGhost;
},
{
horizontal = 1;
place = (538,221);
type = Stem;
},
{
horizontal = 1;
place = (-74,223);
type = Stem;
},
{
horizontal = 1;
place = (-9,21);
target = up;
type = BottomGhost;
},
{
place = (469,195);
type = Stem;
},
{
place = (325,110);
type = Stem;
},
{
place = (86,196);
type = Stem;
}
);
layerId = m01;
shapes = (
{
closed = 1;
nodes = (
(664,349,o),
(564,392,o),
(404,426,cs),
(306,447,o),
(282,458,o),
(282,493,cs),
(282,519,o),
(305,538,o),
(352,538,cs),
(414,538,o),
(484,515,o),
(548,469,c),
(645,606,l),
(586,653,o),
(518,683,o),
(435,694,c),
(435,759,l),
(325,759,l),
(325,698,l),
(180,687,o),
(86,601,o),
(86,473,cs),
(86,330,o),
(201,291,o),
(350,257,cs),
(445,235,o),
(469,230,o),
(469,197,cs),
(469,167,o),
(441,149,o),
(388,149,cs),
(307,149,o),
(231,178,o),
(161,233,c),
(53,104,l),
(127,39,o),
(222,1,o),
(325,-9,c),
(325,-74,l),
(435,-74,l),
(435,-9,l),
(576,7,o),
(664,89,o),
(664,218,cs)
);
}
);
width = 724;
}
);
note = dollar;
unicode = 36;
},
{
glyphname = Euro;
kernLeft = Euro;
kernRight = Euro;
layers = (
{
anchors = (
{
name = bottom;
pos = (470,687);
}
);
hints = (
{
horizontal = 1;
place = (523,176);
type = Stem;
},
{
horizontal = 1;
place = (372,77);
type = Stem;
},
{
horizontal = 1;
place = (247,77);
type = Stem;
},
{
horizontal = 1;
place = (-12,176);
type = Stem;
},
{
place = (96,200);
type = Stem;
},
{
place = (61,235);
type = Stem;
}
);
layerId = m01;
shapes = (
{
closed = 1;
nodes = (
(410,164,o),
(356,197,o),
(324,247,c),
(527,247,l),
(527,324,l),
(297,324,l),
(296,331,o),
(296,337,o),
(296,344,cs),
(296,353,o),
(297,363,o),
(298,372,c),
(527,372,l),
(527,449,l),
(330,449,l),
(362,494,o),
(414,523,o),
(470,523,cs),
(524,523,o),
(574,495,o),
(606,453,c),
(749,578,l),
(680,652,o),
(580,699,o),
(470,699,cs),
(305,699,o),
(162,592,o),
(113,449,c),
(61,449,l),
(61,372,l),
(97,372,l),
(96,363,o),
(96,353,o),
(96,344,cs),
(96,337,o),
(96,331,o),
(97,324,c),
(61,324,l),
(61,247,l),
(111,247,l),
(156,99,o),
(302,-12,o),
(470,-12,cs),
(580,-12,o),
(680,35,o),
(749,110,c),
(607,234,l),
(574,192,o),
(525,164,o),
(470,164,cs)
);
}
);
width = 801;
}
);
note = Euro;
unicode = 8364;
},
{
glyphname = sterling;
kernLeft = sterling;
kernRight = sterling;
layers = (
{
hints = (
{
horizontal = 1;
place = (523,176);
type = Stem;
},
{
horizontal = 1;
place = (250,87);
type = Stem;
},
{
horizontal = 1;
place = (0,143);
type = Stem;
},
{
place = (160,194);
type = Stem;
}
);
layerId = m01;
shapes = (
{
closed = 1;
nodes = (
(354,143,l),
(354,250,l),
(491,250,l),
(491,337,l),
(354,337,l),
(354,443,ls),
(354,490,o),
(388,523,o),
(435,523,cs),
(470,523,o),
(508,498,o),
(527,463,c),
(652,585,l),
(603,652,o),
(502,699,o),
(409,699,cs),
(263,699,o),
(160,601,o),
(160,463,cs),
(160,337,l),
(86,337,l),
(86,250,l),
(160,250,l),
(160,143,l),
(60,76,l),
(60,0,l),
(674,0,l),
(674,143,l)
);
}
);
width = 735;
}
);
note = sterling;
unicode = 163;
},
{
glyphname = yen;
kernLeft = yen;
kernRight = yen;
layers = (
{
anchors = (
{
name = bottom;
pos = (408,687);
}
);
hints = (
{
horizontal = 1;
place = (687,-20);
target = down;
type = TopGhost;
},
{
horizontal = 1;
place = (230,87);
type = Stem;
},
{
horizontal = 1;
place = (90,87);
type = Stem;
},
{
horizontal = 1;
place = (0,177);
type = Stem;
},
{
place = (311,194);
type = Stem;
}
);
layerId = m01;
shapes = (
{
closed = 1;
nodes = (
(768,687,l),
(555,687,l),
(408,408,l),
(269,687,l),
(47,687,l),
(259,317,l),
(162,317,l),
(162,230,l),
(309,230,l),
(311,226,l),
(311,177,l),
(162,177,l),
(162,90,l),
(311,90,l),
(311,0,l),
(505,0,l),
(505,90,l),
(658,90,l),
(658,177,l),
(505,177,l),
(505,226,l),
(507,230,l),
(658,230,l),
(658,317,l),
(557,317,l)
);
}
);
width = 815;
}
);
note = yen;
unicode = 165;
},
{
glyphname = plus;
kernLeft = plus;
kernRight = plus;
layers = (
{
hints = (
{
horizontal = 1;
place = (259,149);
type = Stem;
},
{
place = (221,160);
type = Stem;
}
);
layerId = m01;
shapes = (
{
closed = 1;
nodes = (
(550,408,l),
(381,408,l),
(381,583,l),
(221,583,l),
(221,408,l),
(51,408,l),
(51,259,l),
(221,259,l),
(221,84,l),
(381,84,l),
(381,259,l),
(550,259,l)
);
}
);
width = 601;
}
);
note = plus;
unicode = 43;
},
{
glyphname = minus;
kernLeft = minus;
kernRight = minus;
layers = (
{
hints = (
{
horizontal = 1;
place = (259,149);
type = Stem;
},
{
place = (76,499);
type = Stem;
}
);
layerId = m01;
shapes = (
{
closed = 1;
nodes = (
(76,259,l),
(575,259,l),
(575,408,l),
(76,408,l)
);
}
);
width = 651;
}
);
note = minus;
unicode = 8722;
},
{
glyphname = multiply;
kernLeft = multiply;
kernRight = multiply;
layers = (
{
hints = (
{
horizontal = 1;
place = (101,466);
type = Stem;
},
{
place = (46,466);
type = Stem;
}
);
layerId = m01;
shapes = (
{
closed = 1;
nodes = (
(512,214,l),
(389,338,l),
(508,457,l),
(402,563,l),
(283,444,l),
(159,567,l),
(46,454,l),
(170,331,l),
(49,210,l),
(155,104,l),
(276,225,l),
(399,101,l)
);
}
);
width = 557;
}
);
note = multiply;
unicode = 215;
},
{
glyphname = divide;
kernLeft = divide;
kernRight = divide;
layers = (
{
hints = (
{
horizontal = 1;
place = (442,196);
type = Stem;
},
{
horizontal = 1;
place = (260,149);
type = Stem;
},
{
horizontal = 1;
place = (30,196);
type = Stem;
},
{
place = (200,196);
type = Stem;
}
);
layerId = m01;
shapes = (
{
closed = 1;
nodes = (
(353,442,o),
(396,487,o),
(396,542,cs),
(396,593,o),
(353,638,o),
(300,638,cs),
(244,638,o),
(200,593,o),
(200,542,cs),
(200,487,o),
(244,442,o),
(300,442,cs)
);
},
{
closed = 1;
nodes = (
(48,260,l),
(547,260,l),
(547,409,l),
(48,409,l)
);
},
{
closed = 1;
nodes = (
(353,30,o),
(396,75,o),
(396,130,cs),
(396,181,o),
(353,226,o),
(300,226,cs),
(244,226,o),
(200,181,o),
(200,130,cs),
(200,75,o),
(244,30,o),
(300,30,cs)
);
}
);
width = 595;
}
);
note = divide;
unicode = 247;
},
{
glyphname = equal;
kernLeft = equal;
kernRight = equal;
layers = (
{
hints = (
{
horizontal = 1;
place = (382,149);
type = Stem;
},
{
horizontal = 1;
place = (148,149);
type = Stem;
},
{
place = (88,499);
type = Stem;
}
);
layerId = m01;
shapes = (
{
closed = 1;
nodes = (
(88,382,l),
(587,382,l),
(587,531,l),
(88,531,l)
);
},
{
closed = 1;
nodes = (
(88,148,l),
(587,148,l),
(587,297,l),
(88,297,l)
);
}
);
width = 675;
}
);
note = equal;
unicode = 61;
},
{
glyphname = greater;
kernLeft = greater;
kernRight = greater;
layers = (
{
hints = (
{
horizontal = 1;
place = (78,531);
type = Stem;
},
{
place = (76,475);
type = Stem;
}
);
layerId = m01;
shapes = (
{
closed = 1;
nodes = (
(76,78,l),
(551,267,l),
(551,420,l),
(76,609,l),
(76,459,l),
(407,343,l),
(76,229,l)
);
}
);
width = 602;
}
);
note = greater;
unicode = 62;
},
{
glyphname = less;
kernLeft = less;
kernRight = less;
layers = (
{
hints = (
{
horizontal = 1;
place = (78,531);
type = Stem;
},
{
place = (51,475);
type = Stem;
}
);
layerId = m01;
shapes = (
{
closed = 1;
nodes = (
(526,78,l),
(526,229,l),
(195,343,l),
(526,459,l),
(526,609,l),
(51,420,l),
(51,267,l)
);
}
);
width = 602;
}
);
note = less;
unicode = 60;
},
{
glyphname = asciitilde;
kernLeft = asciitilde;
kernRight = asciitilde;
layers = (
{
anchors = (
{
name = bottom;
pos = (248,423);
}
);
hints = (
{
horizontal = 1;
place = (331,112);
type = Stem;
},
{
horizontal = 1;
place = (290,112);
type = Stem;
},
{
place = (57,381);
type = Stem;
}
);
layerId = m01;
shapes = (
{
closed = 1;
nodes = (
(390,290,o),
(428,336,o),
(438,431,c),
(348,444,l),
(342,416,o),
(331,402,o),
(311,402,cs),
(285,402,o),
(232,443,o),
(178,443,cs),
(105,443,o),
(68,397,o),
(57,302,c),
(147,289,l),
(153,318,o),
(164,331,o),
(184,331,cs),
(211,331,o),
(262,290,o),
(317,290,cs)
);
}
);
width = 495;
}
);
note = asciitilde;
unicode = 126;
},
{
glyphname = asciicircum;
kernLeft = asciicircum;
kernRight = asciicircum;
layers = (
{
hints = (
{
horizontal = 1;
place = (573,114);
type = Stem;
},
{
horizontal = 1;
place = (413,274);
type = Stem;
},
{
place = (46,414);
type = Stem;
}
);
layerId = m01;
shapes = (
{
closed = 1;
nodes = (
(46,413,l),
(175,413,l),
(252,573,l),
(330,413,l),
(460,413,l),
(318,687,l),
(189,687,l)
);
}
);
width = 506;
}
);
note = asciicircum;
unicode = 94;
},
{
glyphname = percent;
kernLeft = percent;
kernRight = percent;
layers = (
{
hints = (
{
horizontal = 1;
place = (687,-20);
target = down;
type = TopGhost;
},
{
horizontal = 1;
place = (586,108);
type = Stem;
},
{
horizontal = 1;
place = (338,107);
type = Stem;
},
{
horizontal = 1;
place = (238,108);
type = Stem;
},
{
horizontal = 1;
place = (-11,108);
type = Stem;
},
{
horizontal = 1;
place = (0,21);
target = up;
type = BottomGhost;
},
{
place = (736,121);
type = Stem;
},
{
place = (498,122);
type = Stem;
},
{
place = (282,122);
type = Stem;
},
{
place = (45,122);
type = Stem;
}
);
layerId = m01;
shapes = (
{
closed = 1;
nodes = (
(331,338,o),
(404,415,o),
(404,516,cs),
(404,614,o),
(334,694,o),
(224,694,cs),
(115,694,o),
(45,614,o),
(45,516,cs),
(45,415,o),
(117,338,o),
(224,338,cs)
);
},
{
closed = 1;
nodes = (
(139,0,l),
(281,0,l),
(764,687,l),
(622,687,l)
);
},
{
closed = 1;
nodes = (
(192,445,o),
(167,471,o),
(167,516,cs),
(167,561,o),
(191,586,o),
(224,586,cs),
(257,586,o),
(282,560,o),
(282,516,cs),
(282,470,o),
(257,445,o),
(224,445,cs)
);
},
{
closed = 1;
nodes = (
(784,-11,o),
(857,67,o),
(857,167,cs),
(857,266,o),
(787,346,o),
(678,346,cs),
(571,346,o),
(498,268,o),
(498,167,cs),
(498,69,o),
(569,-11,o),
(678,-11,cs)
);
},
{
closed = 1;
nodes = (
(645,97,o),
(620,123,o),
(620,167,cs),
(620,214,o),
(644,238,o),
(678,238,cs),
(710,238,o),
(736,212,o),
(736,167,cs),
(736,122,o),
(711,97,o),
(678,97,cs)
);
}
);
width = 902;
}
);
note = percent;
unicode = 37;
},
{
glyphname = perthousand;
kernLeft = perthousand;
kernRight = perthousand;
layers = (
{
hints = (
{
horizontal = 1;
place = (687,-20);
target = down;
type = TopGhost;
},
{
horizontal = 1;
place = (586,108);
type = Stem;
},
{
horizontal = 1;
place = (338,107);
type = Stem;
},
{
horizontal = 1;
place = (238,108);
type = Stem;
},
{
horizontal = 1;
place = (-11,108);
type = Stem;
},
{
horizontal = 1;
place = (0,21);
target = up;
type = BottomGhost;
},
{
place = (1126,121);
type = Stem;
},
{
place = (888,122);
type = Stem;
},
{
place = (736,121);
type = Stem;
},
{
place = (498,122);
type = Stem;
},
{
place = (282,122);
type = Stem;
},
{
place = (45,122);
type = Stem;
}
);
layerId = m01;
shapes = (
{
closed = 1;
nodes = (
(331,338,o),
(404,415,o),
(404,516,cs),
(404,614,o),
(334,694,o),
(224,694,cs),
(115,694,o),
(45,614,o),
(45,516,cs),
(45,415,o),
(117,338,o),
(224,338,cs)
);
},
{
closed = 1;
nodes = (
(139,0,l),
(281,0,l),
(764,687,l),
(622,687,l)
);
},
{
closed = 1;
nodes = (
(192,445,o),
(167,471,o),
(167,516,cs),
(167,561,o),
(191,586,o),
(224,586,cs),
(257,586,o),
(282,560,o),
(282,516,cs),
(282,470,o),
(257,445,o),
(224,445,cs)
);
},
{
closed = 1;
nodes = (
(784,-11,o),
(857,67,o),
(857,167,cs),
(857,266,o),
(787,346,o),
(678,346,cs),
(571,346,o),
(498,268,o),
(498,167,cs),
(498,69,o),
(569,-11,o),
(678,-11,cs)
);
},
{
closed = 1;
nodes = (
(1174,-11,o),
(1247,67,o),
(1247,167,cs),
(1247,266,o),
(1177,346,o),
(1068,346,cs),
(961,346,o),
(888,268,o),
(888,167,cs),
(888,69,o),
(959,-11,o),
(1068,-11,cs)
);
},
{
closed = 1;
nodes = (
(645,97,o),
(620,123,o),
(620,167,cs),
(620,214,o),
(644,238,o),
(678,238,cs),
(710,238,o),
(736,212,o),
(736,167,cs),
(736,122,o),
(711,97,o),
(678,97,cs)
);
},
{
closed = 1;
nodes = (
(1035,97,o),
(1010,123,o),
(1010,167,cs),
(1010,214,o),
(1034,238,o),
(1068,238,cs),
(1100,238,o),
(1126,212,o),
(1126,167,cs),
(1126,122,o),
(1101,97,o),
(1068,97,cs)
);
}
);
width = 1292;
}
);
note = perthousand;
unicode = 8240;
},
{
glyphname = at;
kernLeft = at;
kernRight = at;
layers = (
{
hints = (
{
horizontal = 1;
place = (634,42);
type = Stem;
},
{
horizontal = 1;
place = (380,129);
type = Stem;
},
{
horizontal = 1;
place = (73,129);
type = Stem;
},
{
horizontal = 1;
place = (71,92);
type = Stem;
},
{
horizontal = 1;
place = (-116,41);
type = Stem;
},
{
place = (799,46);
type = Stem;
},
{
place = (508,145);
type = Stem;
},
{
place = (189,161);
type = Stem;
},
{
place = (52,43);
type = Stem;
}
);
layerId = m01;
shapes = (
{
closed = 1;
nodes = (
(522,-116,o),
(600,-91,o),
(670,-47,c),
(648,-14,l),
(583,-53,o),
(517,-75,o),
(436,-75,cs),
(236,-75,o),
(95,72,o),
(95,261,cs),
(95,465,o),
(260,634,o),
(470,634,cs),
(667,634,o),
(799,503,o),
(799,334,cs),
(799,222,o),
(752,163,o),
(700,163,cs),
(671,163,o),
(653,181,o),
(653,211,cs),
(653,255,o),
(669,306,o),
(703,484,c),
(547,496,l),
(536,444,l),
(511,481,o),
(469,509,o),
(408,509,cs),
(292,509,o),
(189,395,o),
(189,260,cs),
(189,150,o),
(256,73,o),
(359,73,cs),
(412,73,o),
(461,99,o),
(497,146,c),
(516,102,o),
(555,71,o),
(627,71,cs),
(726,71,o),
(845,154,o),
(845,334,cs),
(845,516,o),
(692,676,o),
(472,676,cs),
(241,676,o),
(52,486,o),
(52,260,cs),
(52,50,o),
(213,-116,o),
(433,-116,cs)
);
},
{
closed = 1;
nodes = (
(378,202,o),
(350,228,o),
(350,273,cs),
(350,328,o),
(388,380,o),
(447,380,cs),
(487,380,o),
(512,349,o),
(508,304,cs),
(503,244,o),
(465,202,o),
(418,202,cs)
);
}
);
width = 894;
}
);
note = at;
unicode = 64;
},
{
glyphname = ampersand;
kernLeft = ampersand;
kernRight = ampersand;
layers = (
{
hints = (
{
horizontal = 1;
place = (567,129);
type = Stem;
},
{
horizontal = 1;
place = (-12,141);
type = Stem;
},
{
place = (409,159);
type = Stem;
},
{
place = (145,159);
type = Stem;
},
{
place = (45,191);
type = Stem;
}
);
layerId = m01;
shapes = (
{
closed = 1;
nodes = (
(693,46,l),
(590,157,l),
(623,200,o),
(654,250,o),
(684,307,c),
(550,372,l),
(534,335,o),
(514,298,o),
(492,265,c),
(464,296,o),
(440,323,o),
(419,347,c),
(532,403,o),
(568,445,o),
(568,512,cs),
(568,620,o),
(479,696,o),
(353,696,cs),
(240,696,o),
(145,612,o),
(145,512,cs),
(145,461,o),
(155,431,o),
(188,380,c),
(85,333,o),
(45,281,o),
(45,191,cs),
(45,62,o),
(146,-12,o),
(286,-12,cs),
(358,-12,o),
(420,8,o),
(476,46,c),
(496,24,o),
(518,2,o),
(540,-22,c)
);
},
{
closed = 1;
nodes = (
(387,567,o),
(409,544,o),
(409,512,cs),
(409,474,o),
(391,459,o),
(339,438,c),
(317,464,o),
(304,482,o),
(304,512,cs),
(304,542,o),
(328,567,o),
(357,567,cs)
);
},
{
closed = 1;
nodes = (
(271,129,o),
(236,158,o),
(236,205,cs),
(236,231,o),
(245,251,o),
(271,271,c),
(299,238,o),
(335,198,o),
(379,150,c),
(357,137,o),
(335,129,o),
(313,129,cs)
);
}
);
width = 734;
}
);
note = ampersand;
unicode = 38;
},
{
glyphname = paragraph;
kernLeft = paragraph;
kernRight = paragraph;
layers = (
{
hints = (
{
horizontal = 1;
place = (556,128);
type = Stem;
},
{
place = (550,137);
type = Stem;
},
{
place = (290,137);
type = Stem;
}
);
layerId = m01;
shapes = (
{
closed = 1;
nodes = (
(290,-50,l),
(427,-50,l),
(427,556,l),
(550,556,l),
(550,-50,l),
(687,-50,l),
(687,684,l),
(277,684,ls),
(140,684,o),
(45,601,o),
(45,477,cs),
(45,354,o),
(138,272,o),
(290,272,c)
);
}
);
width = 782;
}
);
note = paragraph;
unicode = 182;
},
{
glyphname = copyright;
kernLeft = copyright;
kernRight = copyright;
layers = (
{
hints = (
{
horizontal = 1;
place = (632,43);
type = Stem;
},
{
horizontal = 1;
place = (390,160);
type = Stem;
},
{
horizontal = 1;
place = (9,160);
type = Stem;
},
{
horizontal = 1;
place = (-116,43);
type = Stem;
},
{
place = (801,44);
type = Stem;
},
{
place = (168,184);
type = Stem;
},
{
place = (52,44);
type = Stem;
}
);
layerId = m01;
shapes = (
{
closed = 1;
nodes = (
(667,-116,o),
(845,61,o),
(845,280,cs),
(845,498,o),
(667,675,o),
(449,675,cs),
(230,675,o),
(52,498,o),
(52,280,cs),
(52,61,o),
(230,-116,o),
(449,-116,cs)
);
},
{
closed = 1;
nodes = (
(254,-73,o),
(96,85,o),
(96,280,cs),
(96,474,o),
(254,632,o),
(449,632,cs),
(643,632,o),
(801,474,o),
(801,280,cs),
(801,85,o),
(643,-73,o),
(449,-73,cs)
);
},
{
closed = 1;
nodes = (
(554,9,o),
(627,48,o),
(679,108,c),
(552,210,l),
(531,186,o),
(493,169,o),
(460,169,cs),
(401,169,o),
(352,220,o),
(352,281,cs),
(352,340,o),
(401,390,o),
(459,390,cs),
(492,390,o),
(529,373,o),
(549,350,c),
(676,454,l),
(626,512,o),
(553,550,o),
(461,550,cs),
(302,550,o),
(168,427,o),
(168,280,cs),
(168,133,o),
(301,9,o),
(458,9,cs)
);
}
);
width = 897;
}
);
note = copyright;
unicode = 169;
},
{
glyphname = registered;
kernLeft = registered;
kernRight = registered;
layers = (
{
hints = (
{
horizontal = 1;
place = (633,42);
type = Stem;
},
{
horizontal = 1;
place = (494,86);
type = Stem;
},
{
horizontal = 1;
place = (371,87);
type = Stem;
},
{
horizontal = 1;
place = (280,178);
type = Stem;
},
{
horizontal = 1;
place = (184,42);
type = Stem;
},
{
place = (506,42);
type = Stem;
},
{
place = (334,97);
type = Stem;
},
{
place = (178,85);
type = Stem;
},
{
place = (55,42);
type = Stem;
}
);
layerId = m01;
shapes = (
{
closed = 1;
nodes = (
(166,675,o),
(55,565,o),
(55,430,cs),
(55,295,o),
(166,184,o),
(302,184,cs),
(437,184,o),
(548,295,o),
(548,430,cs),
(548,565,o),
(437,675,o),
(302,675,cs)
);
},
{
closed = 1;
nodes = (
(189,226,o),
(97,317,o),
(97,430,cs),
(97,542,o),
(189,633,o),
(302,633,cs),
(415,633,o),
(506,542,o),
(506,430,cs),
(506,317,o),
(415,226,o),
(302,226,cs)
);
},
{
closed = 1;
nodes = (
(431,537,o),
(379,580,o),
(311,580,cs),
(178,580,l),
(178,280,l),
(263,280,l),
(263,371,l),
(277,371,l),
(341,280,l),
(437,280,l),
(366,382,l),
(405,398,o),
(431,432,o),
(431,476,cs)
);
},
{
closed = 1;
nodes = (
(263,494,l),
(311,494,ls),
(325,494,o),
(334,487,o),
(334,476,cs),
(334,465,o),
(325,458,o),
(311,458,cs),
(263,458,l)
);
}
);
width = 603;
}
);
note = registered;
unicode = 174;
},
{
glyphname = trademark;
kernLeft = trademark;
kernRight = trademark;
layers = (
{
hints = (
{
horizontal = 1;
place = (495,85);
type = Stem;
},
{
horizontal = 1;
place = (280,300);
type = Stem;
},
{
place = (594,95);
type = Stem;
},
{
place = (348,96);
type = Stem;
},
{
place = (136,95);
type = Stem;
}
);
layerId = m01;
shapes = (
{
closed = 1;
nodes = (
(136,280,l),
(231,280,l),
(231,495,l),
(314,495,l),
(314,580,l),
(52,580,l),
(52,495,l),
(136,495,l)
);
},
{
closed = 1;
nodes = (
(348,280,l),
(444,280,l),
(444,421,l),
(519,297,l),
(594,421,l),
(594,280,l),
(689,280,l),
(689,580,l),
(594,580,l),
(519,457,l),
(444,580,l),
(348,580,l)
);
}
);
width = 775;
}
);
note = trademark;
unicode = 8482;
},
{
glyphname = degree;
kernLeft = degree;
kernRight = degree;
layers = (
{
hints = (
{
horizontal = 1;
place = (607,92);
type = Stem;
},
{
horizontal = 1;
place = (393,92);
type = Stem;
},
{
place = (273,94);
type = Stem;
},
{
place = (57,94);
type = Stem;
}
);
layerId = m01;
shapes = (
{
closed = 1;
nodes = (
(302,393,o),
(367,457,o),
(367,546,cs),
(367,635,o),
(302,699,o),
(212,699,cs),
(122,699,o),
(57,635,o),
(57,546,cs),
(57,457,o),
(122,393,o),
(212,393,cs)
);
},
{
closed = 1;
nodes = (
(177,485,o),
(151,511,o),
(151,546,cs),
(151,581,o),
(177,607,o),
(212,607,cs),
(247,607,o),
(273,581,o),
(273,546,cs),
(273,511,o),
(247,485,o),
(212,485,cs)
);
}
);
width = 424;
}
);
note = degree;
unicode = 176;
},
{
glyphname = bar;
kernLeft = bar;
kernRight = bar;
layers = (
{
hints = (
{
horizontal = 1;
place = (-74,817);
type = Stem;
},
{
place = (96,129);
type = Stem;
}
);
layerId = m01;
shapes = (
{
closed = 1;
nodes = (
(96,-74,l),
(225,-74,l),
(225,743,l),
(96,743,l)
);
}
);
width = 321;
}
);
note = bar;
unicode = 124;
},
{
glyphname = uni0307;
layers = (
{
anchors = (
{
name = _bottom;
pos = (-119,517);
}
);
hints = (
{
horizontal = 1;
place = (572,198);
type = Stem;
},
{
place = (-219,198);
type = Stem;
}
);
layerId = m01;
shapes = (
{
closed = 1;
nodes = (
(-65,572,o),
(-21,618,o),
(-21,672,cs),
(-21,724,o),
(-65,770,o),
(-119,770,cs),
(-175,770,o),
(-219,724,o),
(-219,672,cs),
(-219,618,o),
(-175,572,o),
(-119,572,cs)
);
}
);
width = 0;
}
);
note = uni0307;
unicode = 775;
},
{
glyphname = uni0326;
layers = (
{
anchors = (
{
name = _bottom;
pos = (-109,517);
}
);
hints = (
{
horizontal = 1;
place = (-195,172);
type = Stem;
},
{
horizontal = 1;
place = (-301,278);
type = Stem;
},
{
place = (-193,171);
type = Stem;
}
);
layerId = m01;
shapes = (
{
closed = 1;
nodes = (
(-115,-301,l),
(-60,-256,o),
(-22,-188,o),
(-22,-128,cs),
(-22,-70,o),
(-58,-23,o),
(-109,-23,cs),
(-158,-23,o),
(-193,-59,o),
(-193,-110,cs),
(-193,-160,o),
(-160,-195,o),
(-112,-195,c),
(-118,-218,o),
(-138,-246,o),
(-161,-265,c)
);
}
);
width = 0;
}
);
note = uni0326;
unicode = 806;
},
{
glyphname = dieresis;
layers = (
{
hints = (
{
horizontal = 1;
place = (575,173);
type = Stem;
},
{
place = (246,173);
type = Stem;
},
{
place = (21,173);
type = Stem;
}
);
layerId = m01;
shapes = (
{
closed = 1;
nodes = (
(155,575,o),
(194,614,o),
(194,662,cs),
(194,708,o),
(155,748,o),
(108,748,cs),
(58,748,o),
(21,708,o),
(21,662,cs),
(21,614,o),
(58,575,o),
(108,575,cs)
);
},
{
closed = 1;
nodes = (
(381,575,o),
(419,614,o),
(419,662,cs),
(419,708,o),
(381,748,o),
(333,748,cs),
(284,748,o),
(246,708,o),
(246,662,cs),
(246,614,o),
(284,575,o),
(333,575,cs)
);
}
);
width = 440;
}
);
note = dieresis;
unicode = 168;
},
{
glyphname = dotaccent;
layers = (
{
hints = (
{
horizontal = 1;
place = (575,173);
type = Stem;
},
{
place = (21,173);
type = Stem;
}
);
layerId = m01;
shapes = (
{
closed = 1;
nodes = (
(155,575,o),
(194,614,o),
(194,662,cs),
(194,708,o),
(155,748,o),
(108,748,cs),
(58,748,o),
(21,708,o),
(21,662,cs),
(21,614,o),
(58,575,o),
(108,575,cs)
);
}
);
width = 215;
}
);
note = dotaccent;
unicode = 729;
},
{
glyphname = grave;
layers = (
{
hints = (
{
horizontal = 1;
place = (574,164);
type = Stem;
},
{
place = (7,278);
type = Stem;
}
);
layerId = m01;
shapes = (
{
closed = 1;
nodes = (
(159,574,l),
(285,574,l),
(173,738,l),
(7,710,l)
);
}
);
width = 297;
}
);
note = grave;
unicode = 96;
},
{
glyphname = acute;
layers = (
{
hints = (
{
horizontal = 1;
place = (574,164);
type = Stem;
},
{
place = (12,278);
type = Stem;
}
);
layerId = m01;
shapes = (
{
closed = 1;
nodes = (
(12,574,l),
(138,574,l),
(290,710,l),
(124,738,l)
);
}
);
width = 298;
}
);
note = acute;
unicode = 180;
},
{
glyphname = hungarumlaut;
layers = (
{
hints = (
{
horizontal = 1;
place = (574,164);
type = Stem;
},
{
place = (12,536);
type = Stem;
}
);
layerId = m01;
shapes = (
{
closed = 1;
nodes = (
(12,574,l),
(138,574,l),
(290,710,l),
(124,738,l)
);
},
{
closed = 1;
nodes = (
(270,574,l),
(396,574,l),
(548,710,l),
(382,738,l)
);
}
);
width = 556;
}
);
note = hungarumlaut;
unicode = 733;
},
{
glyphname = circumflex;
layers = (
{
hints = (
{
horizontal = 1;
place = (641,87);
type = Stem;
},
{
horizontal = 1;
place = (574,154);
type = Stem;
},
{
place = (12,372);
type = Stem;
}
);
layerId = m01;
shapes = (
{
closed = 1;
nodes = (
(12,574,l),
(124,574,l),
(197,641,l),
(271,574,l),
(384,574,l),
(275,728,l),
(120,728,l)
);
}
);
width = 396;
}
);
note = circumflex;
unicode = 710;
},
{
glyphname = caron;
layers = (
{
hints = (
{
horizontal = 1;
place = (574,154);
type = Stem;
},
{
place = (12,372);
type = Stem;
}
);
layerId = m01;
shapes = (
{
closed = 1;
nodes = (
(120,574,l),
(275,574,l),
(384,728,l),
(271,728,l),
(197,661,l),
(124,728,l),
(12,728,l)
);
}
);
width = 396;
}
);
note = caron;
unicode = 711;
},
{
glyphname = breve;
layers = (
{
hints = (
{
horizontal = 1;
place = (575,102);
type = Stem;
},
{
place = (8,342);
type = Stem;
}
);
layerId = m01;
shapes = (
{
closed = 1;
nodes = (
(241,575,o),
(303,599,o),
(350,646,c),
(276,720,l),
(249,693,o),
(213,677,o),
(179,677,cs),
(145,677,o),
(109,693,o),
(82,720,c),
(8,646,l),
(56,599,o),
(117,575,o),
(179,575,cs)
);
}
);
width = 359;
}
);
note = breve;
unicode = 728;
},
{
glyphname = ring;
layers = (
{
hints = (
{
horizontal = 1;
place = (745,72);
type = Stem;
},
{
horizontal = 1;
place = (575,72);
type = Stem;
},
{
place = (190,72);
type = Stem;
},
{
place = (20,72);
type = Stem;
}
);
layerId = m01;
shapes = (
{
closed = 1;
nodes = (
(208,575,o),
(262,629,o),
(262,696,cs),
(262,763,o),
(208,817,o),
(141,817,cs),
(75,817,o),
(20,763,o),
(20,696,cs),
(20,629,o),
(75,575,o),
(141,575,cs)
);
},
{
closed = 1;
nodes = (
(114,647,o),
(92,669,o),
(92,696,cs),
(92,723,o),
(114,745,o),
(141,745,cs),
(168,745,o),
(190,723,o),
(190,696,cs),
(190,669,o),
(168,647,o),
(141,647,cs)
);
}
);
width = 283;
}
);
note = ring;
unicode = 730;
},
{
glyphname = tilde;
layers = (
{
hints = (
{
horizontal = 1;
place = (612,112);
type = Stem;
},
{
horizontal = 1;
place = (571,112);
type = Stem;
},
{
place = (21,381);
type = Stem;
}
);
layerId = m01;
shapes = (
{
closed = 1;
nodes = (
(354,571,o),
(392,617,o),
(402,712,c),
(312,725,l),
(306,697,o),
(295,683,o),
(275,683,cs),
(249,683,o),
(196,724,o),
(142,724,cs),
(69,724,o),
(32,678,o),
(21,583,c),
(111,570,l),
(117,599,o),
(128,612,o),
(148,612,cs),
(175,612,o),
(226,571,o),
(281,571,cs)
);
}
);
width = 423;
}
);
note = tilde;
unicode = 732;
},
{
glyphname = macron;
layers = (
{
hints = (
{
horizontal = 1;
place = (573,106);
type = Stem;
},
{
place = (37,369);
type = Stem;
}
);
layerId = m01;
shapes = (
{
closed = 1;
nodes = (
(37,573,l),
(406,573,l),
(406,679,l),
(37,679,l)
);
}
);
width = 443;
}
);
note = macron;
unicode = 175;
},
{
glyphname = cedilla;
layers = (
{
hints = (
{
horizontal = 1;
place = (-78,89);
type = Stem;
},
{
horizontal = 1;
place = (-200,75);
type = Stem;
},
{
place = (140,89);
type = Stem;
}
);
layerId = m01;
shapes = (
{
closed = 1;
nodes = (
(179,11,l),
(90,11,l),
(59,-62,l),
(85,-86,l),
(93,-81,o),
(103,-78,o),
(112,-78,cs),
(129,-78,o),
(140,-86,o),
(140,-100,cs),
(140,-116,o),
(123,-125,o),
(104,-125,cs),
(84,-125,o),
(63,-116,o),
(46,-102,c),
(15,-170,l),
(38,-187,o),
(76,-200,o),
(114,-200,cs),
(181,-200,o),
(229,-167,o),
(229,-111,cs),
(229,-73,o),
(200,-44,o),
(156,-42,c)
);
}
);
width = 249;
}
);
note = cedilla;
unicode = 184;
},
{
glyphname = ogonek;
layers = (
{
layerId = m01;
shapes = (
{
closed = 1;
nodes = (
(174,-173,o),
(206,-158,o),
(228,-138,c),
(206,-56,l),
(199,-62,o),
(187,-66,o),
(176,-66,cs),
(153,-66,o),
(137,-57,o),
(137,-36,cs),
(137,-15,o),
(152,0,o),
(175,0,c),
(74,38,l),
(41,15,o),
(23,-16,o),
(23,-59,cs),
(23,-129,o),
(69,-173,o),
(135,-173,cs)
);
}
);
width = 244;
}
);
note = ogonek;
unicode = 731;
},
{
glyphname = A.sc;
kernLeft = A;
kernRight = A;
lastChange = "2024-09-11 11:40:28 +0000";
layers = (
{
anchors = (
{
name = bottom;
pos = (307,550);
}
);
hints = (
{
horizontal = 1;
place = (550,-20);
target = down;
type = TopGhost;
},
{
horizontal = 1;
place = (74,114);
type = Stem;
},
{
horizontal = 1;
place = (0,21);
target = up;
type = BottomGhost;
},
{
place = (8,598);
type = Stem;
}
);
layerId = m01;
shapes = (
{
closed = 1;
nodes = (
(430,0,l),
(606,0,l),
(394,550,l),
(219,550,l),
(8,0,l),
(183,0,l),
(211,74,l),
(402,74,l)
);
},
{
closed = 1;
nodes = (
(255,188,l),
(307,322,l),
(358,188,l)
);
}
);
width = 614;
}
);
note = A;
},
{
glyphname = Aacute.sc;
kernLeft = A;
kernRight = A;
lastChange = "2024-09-11 11:40:28 +0000";
layers = (
{
anchors = (
{
name = bottom;
pos = (307,699);
}
);
hints = (
{
horizontal = 1;
place = (550,-20);
target = down;
type = TopGhost;
},
{
horizontal = 1;
place = (74,114);
type = Stem;
},
{
horizontal = 1;
place = (0,21);
target = up;
type = BottomGhost;
},
{
place = (8,598);
type = Stem;
}
);
layerId = m01;
shapes = (
{
closed = 1;
nodes = (
(478,704,l),
(345,726,l),
(255,595,l),
(356,595,l)
);
},
{
closed = 1;
nodes = (
(430,0,l),
(606,0,l),
(394,550,l),
(219,550,l),
(8,0,l),
(183,0,l),
(211,74,l),
(402,74,l)
);
},
{
closed = 1;
nodes = (
(255,188,l),
(307,322,l),
(358,188,l)
);
}
);
width = 614;
}
);
note = Aacute;
},
{
glyphname = Abreve.sc;
kernLeft = A;
kernRight = A;
lastChange = "2024-09-11 11:40:28 +0000";
layers = (
{
anchors = (
{
name = bottom;
pos = (307,699);
}
);
hints = (
{
horizontal = 1;
place = (550,-20);
target = down;
type = TopGhost;
},
{
horizontal = 1;
place = (596,82);
type = Stem;
},
{
horizontal = 1;
place = (74,114);
type = Stem;
},
{
horizontal = 1;
place = (0,21);
target = up;
type = BottomGhost;
},
{
place = (8,598);
type = Stem;
}
);
layerId = m01;
shapes = (
{
closed = 1;
nodes = (
(385,712,l),
(363,690,o),
(334,678,o),
(307,678,cs),
(280,678,o),
(251,690,o),
(230,712,c),
(170,653,l),
(209,615,o),
(258,596,o),
(307,596,cs),
(357,596,o),
(406,615,o),
(444,653,c)
);
},
{
closed = 1;
nodes = (
(430,0,l),
(606,0,l),
(394,550,l),
(219,550,l),
(8,0,l),
(183,0,l),
(211,74,l),
(402,74,l)
);
},
{
closed = 1;
nodes = (
(255,188,l),
(307,322,l),
(358,188,l)
);
}
);
width = 614;
}
);
note = Abreve;
},
{
glyphname = Acircumflex.sc;
kernLeft = A;
kernRight = A;
lastChange = "2024-09-11 11:40:28 +0000";
layers = (
{
anchors = (
{
name = bottom;
pos = (307,699);
}
);
hints = (
{
horizontal = 1;
place = (550,-20);
target = down;
type = TopGhost;
},
{
horizontal = 1;
place = (649,70);
type = Stem;
},
{
horizontal = 1;
place = (595,123);
type = Stem;
},
{
horizontal = 1;
place = (74,114);
type = Stem;
},
{
horizontal = 1;
place = (0,21);
target = up;
type = BottomGhost;
},
{
place = (8,598);
type = Stem;
}
);
layerId = m01;
shapes = (
{
closed = 1;
nodes = (
(307,649,l),
(366,595,l),
(457,595,l),
(370,718,l),
(246,718,l),
(159,595,l),
(249,595,l)
);
},
{
closed = 1;
nodes = (
(430,0,l),
(606,0,l),
(394,550,l),
(219,550,l),
(8,0,l),
(183,0,l),
(211,74,l),
(402,74,l)
);
},
{
closed = 1;
nodes = (
(255,188,l),
(307,322,l),
(358,188,l)
);
}
);
width = 614;
}
);
note = Acircumflex;
},
{
glyphname = Adieresis.sc;
kernLeft = A;
kernRight = A;
lastChange = "2024-09-11 11:40:28 +0000";
layers = (
{
anchors = (
{
name = bottom;
pos = (307,699);
}
);
hints = (
{
horizontal = 1;
place = (550,-20);
target = down;
type = TopGhost;
},
{
horizontal = 1;
place = (596,138);
type = Stem;
},
{
horizontal = 1;
place = (74,114);
type = Stem;
},
{
horizontal = 1;
place = (0,21);
target = up;
type = BottomGhost;
},
{
place = (328,138);
type = Stem;
},
{
place = (148,138);
type = Stem;
}
);
layerId = m01;
shapes = (
{
closed = 1;
nodes = (
(255,596,o),
(286,627,o),
(286,666,cs),
(286,702,o),
(255,734,o),
(218,734,cs),
(178,734,o),
(148,702,o),
(148,666,cs),
(148,627,o),
(178,596,o),
(218,596,cs)
);
},
{
closed = 1;
nodes = (
(436,596,o),
(466,627,o),
(466,666,cs),
(466,702,o),
(436,734,o),
(398,734,cs),
(358,734,o),
(328,702,o),
(328,666,cs),
(328,627,o),
(358,596,o),
(398,596,cs)
);
},
{
closed = 1;
nodes = (
(430,0,l),
(606,0,l),
(394,550,l),
(219,550,l),
(8,0,l),
(183,0,l),
(211,74,l),
(402,74,l)
);
},
{
closed = 1;
nodes = (
(255,188,l),
(307,322,l),
(358,188,l)
);
}
);
width = 614;
}
);
note = Adieresis;
},
{
glyphname = Agrave.sc;
kernLeft = A;
kernRight = A;
lastChange = "2024-09-11 11:40:28 +0000";
layers = (
{
anchors = (
{
name = bottom;
pos = (307,699);
}
);
hints = (
{
horizontal = 1;
place = (550,-20);
target = down;
type = TopGhost;
},
{
horizontal = 1;
place = (74,114);
type = Stem;
},
{
horizontal = 1;
place = (0,21);
target = up;
type = BottomGhost;
},
{
place = (8,598);
type = Stem;
}
);
layerId = m01;
shapes = (
{
closed = 1;
nodes = (
(361,595,l),
(271,726,l),
(138,704,l),
(260,595,l)
);
},
{
closed = 1;
nodes = (
(430,0,l),
(606,0,l),
(394,550,l),
(219,550,l),
(8,0,l),
(183,0,l),
(211,74,l),
(402,74,l)
);
},
{
closed = 1;
nodes = (
(255,188,l),
(307,322,l),
(358,188,l)
);
}
);
width = 614;
}
);
note = Agrave;
},
{
glyphname = Amacron.sc;
kernLeft = A;
kernRight = A;
lastChange = "2024-09-11 11:40:28 +0000";
layers = (
{
anchors = (
{
name = bottom;
pos = (307,699);
}
);
hints = (
{
horizontal = 1;
place = (550,-20);
target = down;
type = TopGhost;
},
{
horizontal = 1;
place = (594,85);
type = Stem;
},
{
horizontal = 1;
place = (74,114);
type = Stem;
},
{
horizontal = 1;
place = (0,21);
target = up;
type = BottomGhost;
},
{
place = (159,295);
type = Stem;
}
);
layerId = m01;
shapes = (
{
closed = 1;
nodes = (
(454,679,l),
(159,679,l),
(159,594,l),
(454,594,l)
);
},
{
closed = 1;
nodes = (
(430,0,l),
(606,0,l),
(394,550,l),
(219,550,l),
(8,0,l),
(183,0,l),
(211,74,l),
(402,74,l)
);
},
{
closed = 1;
nodes = (
(255,188,l),
(307,322,l),
(358,188,l)
);
}
);
width = 614;
}
);
note = Amacron;
},
{
glyphname = Aogonek.sc;
kernLeft = A;
kernRight = A;
lastChange = "2024-09-11 11:40:28 +0000";
layers = (
{
anchors = (
{
name = bottom;
pos = (307,550);
}
);
hints = (
{
horizontal = 1;
place = (550,-20);
target = down;
type = TopGhost;
},
{
horizontal = 1;
place = (74,114);
type = Stem;
},
{
horizontal = 1;
place = (-138,86);
type = Stem;
},
{
horizontal = 1;
place = (0,21);
target = up;
type = BottomGhost;
},
{
place = (484,91);
type = Stem;
}
);
layerId = m01;
shapes = (
{
closed = 1;
nodes = (
(630,-45,l),
(625,-50,o),
(615,-53,o),
(606,-53,cs),
(588,-53,o),
(575,-46,o),
(575,-29,cs),
(575,-12,o),
(587,0,o),
(606,0,c),
(394,550,l),
(219,550,l),
(8,0,l),
(183,0,l),
(211,74,l),
(402,74,l),
(430,0,l),
(496,0,l),
(488,-14,o),
(484,-29,o),
(484,-47,cs),
(484,-103,o),
(521,-138,o),
(574,-138,cs),
(605,-138,o),
(630,-126,o),
(648,-110,c)
);
},
{
closed = 1;
nodes = (
(255,188,l),
(307,322,l),
(358,188,l)
);
}
);
width = 614;
}
);
note = Aogonek;
},
{
glyphname = Aring.sc;
kernLeft = A;
kernRight = A;
lastChange = "2024-09-11 11:40:28 +0000";
layers = (
{
anchors = (
{
name = bottom;
pos = (307,699);
}
);
hints = (
{
horizontal = 1;
place = (550,-20);
target = down;
type = TopGhost;
},
{
horizontal = 1;
place = (732,58);
type = Stem;
},
{
horizontal = 1;
place = (596,58);
type = Stem;
},
{
horizontal = 1;
place = (74,114);
type = Stem;
},
{
horizontal = 1;
place = (0,21);
target = up;
type = BottomGhost;
},
{
place = (346,58);
type = Stem;
},
{
place = (210,58);
type = Stem;
}
);
layerId = m01;
shapes = (
{
closed = 1;
nodes = (
(361,596,o),
(404,639,o),
(404,693,cs),
(404,746,o),
(361,790,o),
(307,790,cs),
(254,790,o),
(210,746,o),
(210,693,cs),
(210,639,o),
(254,596,o),
(307,596,cs)
);
},
{
closed = 1;
nodes = (
(329,732,o),
(346,714,o),
(346,693,cs),
(346,671,o),
(329,654,o),
(307,654,cs),
(286,654,o),
(268,671,o),
(268,693,cs),
(268,714,o),
(286,732,o),
(307,732,cs)
);
},
{
closed = 1;
nodes = (
(430,0,l),
(606,0,l),
(394,550,l),
(219,550,l),
(8,0,l),
(183,0,l),
(211,74,l),
(402,74,l)
);
},
{
closed = 1;
nodes = (
(255,188,l),
(307,322,l),
(358,188,l)
);
}
);
width = 614;
}
);
note = Aring;
},
{
glyphname = Atilde.sc;
kernLeft = A;
kernRight = A;
lastChange = "2024-09-11 11:40:28 +0000";
layers = (
{
anchors = (
{
name = bottom;
pos = (307,699);
}
);
hints = (
{
horizontal = 1;
place = (550,-20);
target = down;
type = TopGhost;
},
{
horizontal = 1;
place = (626,90);
type = Stem;
},
{
horizontal = 1;
place = (593,90);
type = Stem;
},
{
horizontal = 1;
place = (74,114);
type = Stem;
},
{
horizontal = 1;
place = (0,21);
target = up;
type = BottomGhost;
},
{
place = (8,598);
type = Stem;
}
);
layerId = m01;
shapes = (
{
closed = 1;
nodes = (
(278,626,o),
(318,593,o),
(362,593,cs),
(421,593,o),
(451,630,o),
(459,706,c),
(387,716,l),
(382,694,o),
(374,682,o),
(358,682,cs),
(337,682,o),
(294,715,o),
(251,715,cs),
(193,715,o),
(163,678,o),
(154,602,c),
(226,592,l),
(231,615,o),
(240,626,o),
(256,626,cs)
);
},
{
closed = 1;
nodes = (
(430,0,l),
(606,0,l),
(394,550,l),
(219,550,l),
(8,0,l),
(183,0,l),
(211,74,l),
(402,74,l)
);
},
{
closed = 1;
nodes = (
(255,188,l),
(307,322,l),
(358,188,l)
);
}
);
width = 614;
}
);
note = Atilde;
},
{
glyphname = AE.sc;
kernLeft = A;
kernRight = AE;
lastChange = "2024-09-11 11:40:28 +0000";
layers = (
{
hints = (
{
horizontal = 1;
place = (411,138);
type = Stem;
},
{
horizontal = 1;
place = (211,138);
type = Stem;
},
{
horizontal = 1;
place = (74,114);
type = Stem;
},
{
horizontal = 1;
place = (0,138);
type = Stem;
},
{
place = (422,155);
type = Stem;
}
);
layerId = m01;
shapes = (
{
closed = 1;
nodes = (
(6,0,l),
(185,0,l),
(227,74,l),
(422,74,l),
(422,0,l),
(865,0,l),
(865,138,l),
(578,138,l),
(578,211,l),
(839,211,l),
(839,350,l),
(578,350,l),
(578,411,l),
(865,411,l),
(865,550,l),
(323,550,l)
);
},
{
closed = 1;
nodes = (
(294,188,l),
(422,411,l),
(422,188,l)
);
}
);
width = 908;
}
);
note = AE;
},
{
glyphname = B.sc;
kernLeft = B;
kernRight = B;
lastChange = "2024-09-11 11:40:28 +0000";
layers = (
{
hints = (
{
horizontal = 1;
place = (419,130);
type = Stem;
},
{
horizontal = 1;
place = (218,118);
type = Stem;
},
{
horizontal = 1;
place = (0,130);
type = Stem;
},
{
place = (392,160);
type = Stem;
},
{
place = (366,160);
type = Stem;
},
{
place = (53,154);
type = Stem;
}
);
layerId = m01;
shapes = (
{
closed = 1;
nodes = (
(53,0,l),
(360,0,ls),
(472,0,o),
(552,60,o),
(552,148,cs),
(552,209,o),
(514,261,o),
(450,288,c),
(498,311,o),
(526,358,o),
(526,411,cs),
(526,491,o),
(454,550,o),
(349,550,cs),
(53,550,l)
);
},
{
closed = 1;
nodes = (
(207,336,l),
(207,419,l),
(311,419,ls),
(343,419,o),
(366,402,o),
(366,378,cs),
(366,354,o),
(343,336,o),
(311,336,cs)
);
},
{
closed = 1;
nodes = (
(207,130,l),
(207,218,l),
(334,218,ls),
(368,218,o),
(392,200,o),
(392,174,cs),
(392,149,o),
(368,130,o),
(334,130,cs)
);
}
);
width = 572;
}
);
note = B;
},
{
glyphname = C.sc;
kernLeft = C;
kernRight = C;
lastChange = "2024-09-11 11:40:28 +0000";
layers = (
{
anchors = (
{
name = bottom;
pos = (318,550);
}
);
hints = (
{
horizontal = 1;
place = (418,141);
type = Stem;
},
{
horizontal = 1;
place = (-10,141);
type = Stem;
},
{
place = (19,160);
type = Stem;
}
);
layerId = m01;
shapes = (
{
closed = 1;
nodes = (
(406,-10,o),
(486,28,o),
(542,88,c),
(428,187,l),
(402,154,o),
(362,131,o),
(318,131,cs),
(243,131,o),
(179,197,o),
(179,275,cs),
(179,353,o),
(243,418,o),
(318,418,cs),
(362,418,o),
(402,396,o),
(427,362,c),
(542,462,l),
(486,522,o),
(406,559,o),
(318,559,cs),
(156,559,o),
(19,430,o),
(19,275,cs),
(19,121,o),
(156,-10,o),
(318,-10,cs)
);
}
);
width = 551;
}
);
note = C;
},
{
glyphname = Cacute.sc;
kernLeft = C;
kernRight = C;
lastChange = "2024-09-11 11:40:28 +0000";
layers = (
{
anchors = (
{
name = bottom;
pos = (318,699);
}
);
hints = (
{
horizontal = 1;
place = (418,141);
type = Stem;
},
{
horizontal = 1;
place = (-10,141);
type = Stem;
},
{
place = (19,160);
type = Stem;
}
);
layerId = m01;
shapes = (
{
closed = 1;
nodes = (
(266,595,l),
(367,595,l),
(489,704,l),
(356,726,l)
);
},
{
closed = 1;
nodes = (
(406,-10,o),
(486,28,o),
(542,88,c),
(428,187,l),
(402,154,o),
(362,131,o),
(318,131,cs),
(243,131,o),
(179,197,o),
(179,275,cs),
(179,353,o),
(243,418,o),
(318,418,cs),
(362,418,o),
(402,396,o),
(427,362,c),
(542,462,l),
(486,522,o),
(406,559,o),
(318,559,cs),
(156,559,o),
(19,430,o),
(19,275,cs),
(19,121,o),
(156,-10,o),
(318,-10,cs)
);
}
);
width = 551;
}
);
note = Cacute;
},
{
glyphname = Ccaron.sc;
kernLeft = C;
kernRight = C;
lastChange = "2024-09-11 11:40:28 +0000";
layers = (
{
anchors = (
{
name = bottom;
pos = (318,699);
}
);
hints = (
{
horizontal = 1;
place = (595,123);
type = Stem;
},
{
horizontal = 1;
place = (418,141);
type = Stem;
},
{
horizontal = 1;
place = (-10,141);
type = Stem;
},
{
place = (19,160);
type = Stem;
}
);
layerId = m01;
shapes = (
{
closed = 1;
nodes = (
(257,595,l),
(381,595,l),
(468,718,l),
(378,718,l),
(318,665,l),
(260,718,l),
(170,718,l)
);
},
{
closed = 1;
nodes = (
(406,-10,o),
(486,28,o),
(542,88,c),
(428,187,l),
(402,154,o),
(362,131,o),
(318,131,cs),
(243,131,o),
(179,197,o),
(179,275,cs),
(179,353,o),
(243,418,o),
(318,418,cs),
(362,418,o),
(402,396,o),
(427,362,c),
(542,462,l),
(486,522,o),
(406,559,o),
(318,559,cs),
(156,559,o),
(19,430,o),
(19,275,cs),
(19,121,o),
(156,-10,o),
(318,-10,cs)
);
}
);
width = 551;
}
);
note = Ccaron;
},
{
glyphname = Ccedilla.sc;
kernLeft = C;
kernRight = C;
lastChange = "2024-09-11 11:40:28 +0000";
layers = (
{
anchors = (
{
name = bottom;
pos = (318,550);
}
);
hints = (
{
horizontal = 1;
place = (418,141);
type = Stem;
},
{
horizontal = 1;
place = (-62,29);
type = Stem;
},
{
horizontal = 1;
place = (-160,60);
type = Stem;
},
{
horizontal = 1;
place = (-7,21);
target = up;
type = BottomGhost;
},
{
place = (326,71);
type = Stem;
},
{
place = (19,160);
type = Stem;
}
);
layerId = m01;
shapes = (
{
closed = 1;
nodes = (
(243,131,o),
(179,197,o),
(179,275,cs),
(179,353,o),
(243,418,o),
(318,418,cs),
(362,418,o),
(402,396,o),
(427,362,c),
(542,462,l),
(486,522,o),
(406,559,o),
(318,559,cs),
(156,559,o),
(19,430,o),
(19,275,cs),
(19,134,o),
(135,12,o),
(280,-7,c),
(262,-50,l),
(282,-69,l),
(289,-65,o),
(297,-62,o),
(304,-62,cs),
(318,-62,o),
(326,-69,o),
(326,-80,cs),
(326,-93,o),
(313,-100,o),
(298,-100,cs),
(282,-100,o),
(265,-93,o),
(251,-82,c),
(226,-136,l),
(245,-150,o),
(275,-160,o),
(306,-160,cs),
(359,-160,o),
(398,-134,o),
(398,-89,cs),
(398,-58,o),
(374,-35,o),
(339,-34,c),
(350,-8,l),
(426,0,o),
(493,35,o),
(542,88,c),
(428,187,l),
(402,154,o),
(362,131,o),
(318,131,cs)
);
}
);
width = 551;
}
);
note = Ccedilla;
},
{
glyphname = D.sc;
kernLeft = D;
kernRight = D;
lastChange = "2024-09-11 11:40:28 +0000";
layers = (
{
anchors = (
{
name = bottom;
pos = (258,550);
}
);
hints = (
{
horizontal = 1;
place = (409,141);
type = Stem;
},
{
horizontal = 1;
place = (0,141);
type = Stem;
},
{
place = (426,160);
type = Stem;
},
{
place = (53,155);
type = Stem;
}
);
layerId = m01;
shapes = (
{
closed = 1;
nodes = (
(53,0,l),
(258,0,ls),
(450,0,o),
(586,114,o),
(586,275,cs),
(586,436,o),
(450,550,o),
(258,550,cs),
(53,550,l)
);
},
{
closed = 1;
nodes = (
(208,141,l),
(208,409,l),
(283,409,ls),
(366,409,o),
(426,354,o),
(426,275,cs),
(426,197,o),
(366,141,o),
(283,141,cs)
);
}
);
width = 605;
}
);
note = D;
},
{
glyphname = Dcaron.sc;
kernLeft = D;
kernRight = D;
lastChange = "2024-09-11 11:40:28 +0000";
layers = (
{
anchors = (
{
name = bottom;
pos = (258,699);
}
);
hints = (
{
horizontal = 1;
place = (595,123);
type = Stem;
},
{
horizontal = 1;
place = (409,141);
type = Stem;
},
{
horizontal = 1;
place = (0,141);
type = Stem;
},
{
place = (426,160);
type = Stem;
},
{
place = (53,155);
type = Stem;
}
);
layerId = m01;
shapes = (
{
closed = 1;
nodes = (
(196,595,l),
(320,595,l),
(407,718,l),
(317,718,l),
(258,665,l),
(199,718,l),
(110,718,l)
);
},
{
closed = 1;
nodes = (
(53,0,l),
(258,0,ls),
(450,0,o),
(586,114,o),
(586,275,cs),
(586,436,o),
(450,550,o),
(258,550,cs),
(53,550,l)
);
},
{
closed = 1;
nodes = (
(208,141,l),
(208,409,l),
(283,409,ls),
(366,409,o),
(426,354,o),
(426,275,cs),
(426,197,o),
(366,141,o),
(283,141,cs)
);
}
);
width = 605;
}
);
note = Dcaron;
},
{
glyphname = Dcroat.sc;
kernLeft = Eth;
kernRight = D;
lastChange = "2024-09-11 11:40:28 +0000";
layers = (
{
hints = (
{
horizontal = 1;
place = (409,141);
type = Stem;
},
{
horizontal = 1;
place = (206,138);
type = Stem;
},
{
horizontal = 1;
place = (0,141);
type = Stem;
},
{
place = (456,160);
type = Stem;
},
{
place = (83,155);
type = Stem;
}
);
layerId = m01;
shapes = (
{
closed = 1;
nodes = (
(83,550,l),
(83,345,l),
(16,345,l),
(16,206,l),
(83,206,l),
(83,0,l),
(288,0,ls),
(480,0,o),
(616,114,o),
(616,275,cs),
(616,436,o),
(480,550,o),
(288,550,cs)
);
},
{
closed = 1;
nodes = (
(238,141,l),
(238,206,l),
(334,206,l),
(335,345,l),
(238,345,l),
(238,409,l),
(314,409,ls),
(397,409,o),
(456,354,o),
(456,275,cs),
(456,197,o),
(397,141,o),
(314,141,cs)
);
}
);
width = 635;
}
);
note = Dcroat;
},
{
glyphname = Eth.sc;
kernLeft = Eth;
kernRight = D;
lastChange = "2024-09-11 11:40:28 +0000";
layers = (
{
hints = (
{
horizontal = 1;
place = (409,141);
type = Stem;
},
{
horizontal = 1;
place = (206,138);
type = Stem;
},
{
horizontal = 1;
place = (0,141);
type = Stem;
},
{
place = (456,160);
type = Stem;
},
{
place = (83,155);
type = Stem;
}
);
layerId = m01;
shapes = (
{
closed = 1;
nodes = (
(83,550,l),
(83,345,l),
(16,345,l),
(16,206,l),
(83,206,l),
(83,0,l),
(288,0,ls),
(480,0,o),
(616,114,o),
(616,275,cs),
(616,436,o),
(480,550,o),
(288,550,cs)
);
},
{
closed = 1;
nodes = (
(238,141,l),
(238,206,l),
(334,206,l),
(335,345,l),
(238,345,l),
(238,409,l),
(314,409,ls),
(397,409,o),
(456,354,o),
(456,275,cs),
(456,197,o),
(397,141,o),
(314,141,cs)
);
}
);
width = 635;
}
);
note = Eth;
},
{
glyphname = E.sc;
kernLeft = E;
kernRight = AE;
lastChange = "2024-09-11 11:40:28 +0000";
layers = (
{
anchors = (
{
name = bottom;
pos = (274,550);
}
);
hints = (
{
horizontal = 1;
place = (411,138);
type = Stem;
},
{
horizontal = 1;
place = (211,138);
type = Stem;
},
{
horizontal = 1;
place = (0,138);
type = Stem;
},
{
place = (53,155);
type = Stem;
}
);
layerId = m01;
shapes = (
{
closed = 1;
nodes = (
(495,411,l),
(495,550,l),
(53,550,l),
(53,0,l),
(495,0,l),
(495,138,l),
(208,138,l),
(208,211,l),
(470,211,l),
(470,350,l),
(208,350,l),
(208,411,l)
);
}
);
width = 538;
}
);
note = E;
},
{
glyphname = Eacute.sc;
kernLeft = E;
kernRight = AE;
lastChange = "2024-09-11 11:40:28 +0000";
layers = (
{
anchors = (
{
name = bottom;
pos = (274,699);
}
);
hints = (
{
horizontal = 1;
place = (411,138);
type = Stem;
},
{
horizontal = 1;
place = (211,138);
type = Stem;
},
{
horizontal = 1;
place = (0,138);
type = Stem;
},
{
place = (53,155);
type = Stem;
}
);
layerId = m01;
shapes = (
{
closed = 1;
nodes = (
(445,704,l),
(312,726,l),
(222,595,l),
(323,595,l)
);
},
{
closed = 1;
nodes = (
(495,411,l),
(495,550,l),
(53,550,l),
(53,0,l),
(495,0,l),
(495,138,l),
(208,138,l),
(208,211,l),
(470,211,l),
(470,350,l),
(208,350,l),
(208,411,l)
);
}
);
width = 538;
}
);
note = Eacute;
},
{
glyphname = Ecaron.sc;
kernLeft = E;
kernRight = AE;
lastChange = "2024-09-11 11:40:28 +0000";
layers = (
{
anchors = (
{
name = bottom;
pos = (274,699);
}
);
hints = (
{
horizontal = 1;
place = (595,123);
type = Stem;
},
{
horizontal = 1;
place = (411,138);
type = Stem;
},
{
horizontal = 1;
place = (211,138);
type = Stem;
},
{
horizontal = 1;
place = (0,138);
type = Stem;
},
{
place = (53,155);
type = Stem;
}
);
layerId = m01;
shapes = (
{
closed = 1;
nodes = (
(337,595,l),
(424,718,l),
(334,718,l),
(274,665,l),
(216,718,l),
(126,718,l),
(213,595,l)
);
},
{
closed = 1;
nodes = (
(495,411,l),
(495,550,l),
(53,550,l),
(53,0,l),
(495,0,l),
(495,138,l),
(208,138,l),
(208,211,l),
(470,211,l),
(470,350,l),
(208,350,l),
(208,411,l)
);
}
);
width = 538;
}
);
note = Ecaron;
},
{
glyphname = Ecircumflex.sc;
kernLeft = E;
kernRight = AE;
lastChange = "2024-09-11 11:40:28 +0000";
layers = (
{
anchors = (
{
name = bottom;
pos = (274,699);
}
);
hints = (
{
horizontal = 1;
place = (649,70);
type = Stem;
},
{
horizontal = 1;
place = (595,123);
type = Stem;
},
{
horizontal = 1;
place = (411,138);
type = Stem;
},
{
horizontal = 1;
place = (211,138);
type = Stem;
},
{
horizontal = 1;
place = (0,138);
type = Stem;
},
{
place = (53,155);
type = Stem;
}
);
layerId = m01;
shapes = (
{
closed = 1;
nodes = (
(274,649,l),
(334,595,l),
(424,595,l),
(337,718,l),
(213,718,l),
(126,595,l),
(216,595,l)
);
},
{
closed = 1;
nodes = (
(495,411,l),
(495,550,l),
(53,550,l),
(53,0,l),
(495,0,l),
(495,138,l),
(208,138,l),
(208,211,l),
(470,211,l),
(470,350,l),
(208,350,l),
(208,411,l)
);
}
);
width = 538;
}
);
note = Ecircumflex;
},
{
glyphname = Edieresis.sc;
kernLeft = E;
kernRight = AE;
lastChange = "2024-09-11 11:40:28 +0000";
layers = (
{
anchors = (
{
name = bottom;
pos = (274,699);
}
);
hints = (
{
horizontal = 1;
place = (596,138);
type = Stem;
},
{
horizontal = 1;
place = (411,138);
type = Stem;
},
{
horizontal = 1;
place = (211,138);
type = Stem;
},
{
horizontal = 1;
place = (0,138);
type = Stem;
},
{
place = (295,200);
type = Stem;
},
{
place = (295,138);
type = Stem;
},
{
place = (115,138);
type = Stem;
},
{
place = (53,155);
type = Stem;
}
);
layerId = m01;
shapes = (
{
closed = 1;
nodes = (
(222,596,o),
(254,627,o),
(254,666,cs),
(254,702,o),
(222,734,o),
(185,734,cs),
(145,734,o),
(115,702,o),
(115,666,cs),
(115,627,o),
(145,596,o),
(185,596,cs)
);
},
{
closed = 1;
nodes = (
(403,596,o),
(434,627,o),
(434,666,cs),
(434,702,o),
(403,734,o),
(365,734,cs),
(326,734,o),
(295,702,o),
(295,666,cs),
(295,627,o),
(326,596,o),
(365,596,cs)
);
},
{
closed = 1;
nodes = (
(495,411,l),
(495,550,l),
(53,550,l),
(53,0,l),
(495,0,l),
(495,138,l),
(208,138,l),
(208,211,l),
(470,211,l),
(470,350,l),
(208,350,l),
(208,411,l)
);
}
);
width = 538;
}
);
note = Edieresis;
},
{
glyphname = Edotaccent.sc;
kernLeft = E;
kernRight = AE;
lastChange = "2024-09-11 11:40:28 +0000";
layers = (
{
anchors = (
{
name = bottom;
pos = (274,699);
}
);
hints = (
{
horizontal = 1;
place = (596,138);
type = Stem;
},
{
horizontal = 1;
place = (411,138);
type = Stem;
},
{
horizontal = 1;
place = (211,138);
type = Stem;
},
{
horizontal = 1;
place = (0,138);
type = Stem;
},
{
place = (205,138);
type = Stem;
},
{
place = (53,155);
type = Stem;
}
);
layerId = m01;
shapes = (
{
closed = 1;
nodes = (
(312,596,o),
(343,627,o),
(343,666,cs),
(343,702,o),
(312,734,o),
(274,734,cs),
(234,734,o),
(205,702,o),
(205,666,cs),
(205,627,o),
(234,596,o),
(274,596,cs)
);
},
{
closed = 1;
nodes = (
(495,411,l),
(495,550,l),
(53,550,l),
(53,0,l),
(495,0,l),
(495,138,l),
(208,138,l),
(208,211,l),
(470,211,l),
(470,350,l),
(208,350,l),
(208,411,l)
);
}
);
width = 538;
}
);
note = Edotaccent;
},
{
glyphname = uni1EB8.sc;
kernLeft = E;
kernRight = AE;
lastChange = "2024-09-11 11:40:28 +0000";
layers = (
{
anchors = (
{
name = bottom;
pos = (274,550);
}
);
hints = (
{
horizontal = 1;
place = (411,138);
type = Stem;
},
{
horizontal = 1;
place = (211,138);
type = Stem;
},
{
horizontal = 1;
place = (0,138);
type = Stem;
},
{
horizontal = 1;
place = (-190,138);
type = Stem;
},
{
place = (190,138);
type = Stem;
},
{
place = (53,155);
type = Stem;
}
);
layerId = m01;
shapes = (
{
closed = 1;
nodes = (
(495,411,l),
(495,550,l),
(53,550,l),
(53,0,l),
(495,0,l),
(495,138,l),
(208,138,l),
(208,211,l),
(470,211,l),
(470,350,l),
(208,350,l),
(208,411,l)
);
},
{
closed = 1;
nodes = (
(219,-51,o),
(190,-83,o),
(190,-120,cs),
(190,-158,o),
(219,-190,o),
(259,-190,cs),
(297,-190,o),
(328,-158,o),
(328,-120,cs),
(328,-83,o),
(297,-51,o),
(259,-51,cs)
);
}
);
width = 538;
}
);
note = uni1EB8;
},
{
glyphname = Egrave.sc;
kernLeft = E;
kernRight = AE;
lastChange = "2024-09-11 11:40:28 +0000";
layers = (
{
anchors = (
{
name = bottom;
pos = (274,699);
}
);
hints = (
{
horizontal = 1;
place = (411,138);
type = Stem;
},
{
horizontal = 1;
place = (211,138);
type = Stem;
},
{
horizontal = 1;
place = (0,138);
type = Stem;
},
{
place = (53,155);
type = Stem;
}
);
layerId = m01;
shapes = (
{
closed = 1;
nodes = (
(328,595,l),
(238,726,l),
(106,704,l),
(227,595,l)
);
},
{
closed = 1;
nodes = (
(495,411,l),
(495,550,l),
(53,550,l),
(53,0,l),
(495,0,l),
(495,138,l),
(208,138,l),
(208,211,l),
(470,211,l),
(470,350,l),
(208,350,l),
(208,411,l)
);
}
);
width = 538;
}
);
note = Egrave;
},
{
glyphname = Emacron.sc;
kernLeft = E;
kernRight = AE;
lastChange = "2024-09-11 11:40:28 +0000";
layers = (
{
anchors = (
{
name = bottom;
pos = (274,699);
}
);
hints = (
{
horizontal = 1;
place = (594,85);
type = Stem;
},
{
horizontal = 1;
place = (411,138);
type = Stem;
},
{
horizontal = 1;
place = (211,138);
type = Stem;
},
{
horizontal = 1;
place = (0,138);
type = Stem;
},
{
place = (126,295);
type = Stem;
},
{
place = (53,155);
type = Stem;
}
);
layerId = m01;
shapes = (
{
closed = 1;
nodes = (
(422,679,l),
(126,679,l),
(126,594,l),
(422,594,l)
);
},
{
closed = 1;
nodes = (
(495,411,l),
(495,550,l),
(53,550,l),
(53,0,l),
(495,0,l),
(495,138,l),
(208,138,l),
(208,211,l),
(470,211,l),
(470,350,l),
(208,350,l),
(208,411,l)
);
}
);
width = 538;
}
);
note = Emacron;
},
{
glyphname = Eogonek.sc;
kernLeft = E;
kernRight = AE;
lastChange = "2024-09-11 11:40:28 +0000";
layers = (
{
anchors = (
{
name = bottom;
pos = (274,550);
}
);
hints = (
{
horizontal = 1;
place = (411,138);
type = Stem;
},
{
horizontal = 1;
place = (211,138);
type = Stem;
},
{
horizontal = 1;
place = (0,138);
type = Stem;
},
{
horizontal = 1;
place = (-138,86);
type = Stem;
},
{
place = (374,122);
type = Stem;
},
{
place = (374,91);
type = Stem;
},
{
place = (53,155);
type = Stem;
}
);
layerId = m01;
shapes = (
{
closed = 1;
nodes = (
(520,-45,l),
(514,-50,o),
(505,-53,o),
(496,-53,cs),
(478,-53,o),
(465,-46,o),
(465,-29,cs),
(465,-12,o),
(477,0,o),
(495,0,c),
(495,138,l),
(208,138,l),
(208,211,l),
(470,211,l),
(470,350,l),
(208,350,l),
(208,411,l),
(495,411,l),
(495,550,l),
(53,550,l),
(53,0,l),
(386,0,l),
(378,-14,o),
(374,-29,o),
(374,-47,cs),
(374,-103,o),
(410,-138,o),
(463,-138,cs),
(494,-138,o),
(520,-126,o),
(538,-110,c)
);
}
);
width = 538;
}
);
note = Eogonek;
},
{
glyphname = uni1EBC.sc;
kernLeft = E;
kernRight = AE;
lastChange = "2024-09-11 11:40:28 +0000";
layers = (
{
anchors = (
{
name = bottom;
pos = (274,699);
}
);
hints = (
{
horizontal = 1;
place = (626,90);
type = Stem;
},
{
horizontal = 1;
place = (593,90);
type = Stem;
},
{
horizontal = 1;
place = (411,138);
type = Stem;
},
{
horizontal = 1;
place = (211,138);
type = Stem;
},
{
horizontal = 1;
place = (0,138);
type = Stem;
},
{
place = (53,155);
type = Stem;
},
{
place = (53,141);
type = Stem;
}
);
layerId = m01;
shapes = (
{
closed = 1;
nodes = (
(245,626,o),
(286,593,o),
(330,593,cs),
(388,593,o),
(418,630,o),
(426,706,c),
(354,716,l),
(350,694,o),
(341,682,o),
(325,682,cs),
(304,682,o),
(262,715,o),
(218,715,cs),
(160,715,o),
(130,678,o),
(122,602,c),
(194,592,l),
(198,615,o),
(207,626,o),
(223,626,cs)
);
},
{
closed = 1;
nodes = (
(495,411,l),
(495,550,l),
(53,550,l),
(53,0,l),
(495,0,l),
(495,138,l),
(208,138,l),
(208,211,l),
(470,211,l),
(470,350,l),
(208,350,l),
(208,411,l)
);
}
);
width = 538;
}
);
note = uni1EBC;
},
{
glyphname = F.sc;
kernLeft = F;
kernRight = F;
lastChange = "2024-09-11 11:40:28 +0000";
layers = (
{
hints = (
{
horizontal = 1;
place = (411,138);
type = Stem;
},
{
horizontal = 1;
place = (195,138);
type = Stem;
},
{
horizontal = 1;
place = (0,21);
target = up;
type = BottomGhost;
},
{
place = (53,155);
type = Stem;
}
);
layerId = m01;
shapes = (
{
closed = 1;
nodes = (
(495,411,l),
(495,550,l),
(53,550,l),
(53,0,l),
(208,0,l),
(208,195,l),
(470,195,l),
(470,334,l),
(208,334,l),
(208,411,l)
);
}
);
width = 521;
}
);
note = F;
},
{
glyphname = G.sc;
kernLeft = G;
kernRight = G;
lastChange = "2024-09-11 11:40:28 +0000";
layers = (
{
anchors = (
{
name = bottom;
pos = (322,550);
}
);
hints = (
{
horizontal = 1;
place = (418,141);
type = Stem;
},
{
horizontal = 1;
place = (207,114);
type = Stem;
},
{
horizontal = 1;
place = (-10,141);
type = Stem;
},
{
place = (399,150);
type = Stem;
},
{
place = (292,258);
type = Stem;
},
{
place = (19,160);
type = Stem;
}
);
layerId = m01;
shapes = (
{
closed = 1;
nodes = (
(292,207,l),
(399,207,l),
(399,154,l),
(376,139,o),
(350,131,o),
(322,131,cs),
(244,131,o),
(179,196,o),
(179,275,cs),
(179,354,o),
(244,418,o),
(322,418,cs),
(366,418,o),
(408,398,o),
(435,362,c),
(550,462,l),
(493,523,o),
(409,559,o),
(322,559,cs),
(156,559,o),
(19,431,o),
(19,275,cs),
(19,118,o),
(156,-10,o),
(322,-10,cs),
(409,-10,o),
(493,26,o),
(550,88,c),
(550,322,l),
(292,322,l)
);
}
);
width = 580;
}
);
note = G;
},
{
glyphname = Gbreve.sc;
kernLeft = G;
kernRight = G;
lastChange = "2024-09-11 11:40:28 +0000";
layers = (
{
anchors = (
{
name = bottom;
pos = (322,699);
}
);
hints = (
{
horizontal = 1;
place = (596,82);
type = Stem;
},
{
horizontal = 1;
place = (418,141);
type = Stem;
},
{
horizontal = 1;
place = (207,114);
type = Stem;
},
{
horizontal = 1;
place = (-10,141);
type = Stem;
},
{
place = (399,150);
type = Stem;
},
{
place = (292,258);
type = Stem;
},
{
place = (19,160);
type = Stem;
}
);
layerId = m01;
shapes = (
{
closed = 1;
nodes = (
(400,712,l),
(378,690,o),
(350,678,o),
(322,678,cs),
(295,678,o),
(266,690,o),
(245,712,c),
(186,653,l),
(224,615,o),
(273,596,o),
(322,596,cs),
(372,596,o),
(422,615,o),
(459,653,c)
);
},
{
closed = 1;
nodes = (
(292,207,l),
(399,207,l),
(399,154,l),
(376,139,o),
(350,131,o),
(322,131,cs),
(244,131,o),
(179,196,o),
(179,275,cs),
(179,354,o),
(244,418,o),
(322,418,cs),
(366,418,o),
(408,398,o),
(435,362,c),
(550,462,l),
(493,523,o),
(409,559,o),
(322,559,cs),
(156,559,o),
(19,431,o),
(19,275,cs),
(19,118,o),
(156,-10,o),
(322,-10,cs),
(409,-10,o),
(493,26,o),
(550,88,c),
(550,322,l),
(292,322,l)
);
}
);
width = 580;
}
);
note = Gbreve;
},
{
glyphname = uni0122.sc;
kernLeft = G;
kernRight = G;
lastChange = "2024-09-11 11:40:28 +0000";
layers = (
{
anchors = (
{
name = bottom;
pos = (322,550);
}
);
hints = (
{
horizontal = 1;
place = (418,141);
type = Stem;
},
{
horizontal = 1;
place = (207,114);
type = Stem;
},
{
horizontal = 1;
place = (-10,141);
type = Stem;
},
{
horizontal = 1;
place = (-156,138);
type = Stem;
},
{
place = (399,150);
type = Stem;
},
{
place = (292,258);
type = Stem;
},
{
place = (255,137);
type = Stem;
},
{
place = (19,160);
type = Stem;
}
);
layerId = m01;
shapes = (
{
closed = 1;
nodes = (
(292,207,l),
(399,207,l),
(399,154,l),
(376,139,o),
(350,131,o),
(322,131,cs),
(244,131,o),
(179,196,o),
(179,275,cs),
(179,354,o),
(244,418,o),
(322,418,cs),
(366,418,o),
(408,398,o),
(435,362,c),
(550,462,l),
(493,523,o),
(409,559,o),
(322,559,cs),
(156,559,o),
(19,431,o),
(19,275,cs),
(19,118,o),
(156,-10,o),
(322,-10,cs),
(409,-10,o),
(493,26,o),
(550,88,c),
(550,322,l),
(292,322,l)
);
},
{
closed = 1;
nodes = (
(283,-18,o),
(255,-47,o),
(255,-88,cs),
(255,-128,o),
(282,-156,o),
(320,-156,c),
(315,-174,o),
(299,-197,o),
(281,-212,c),
(318,-241,l),
(362,-205,o),
(392,-150,o),
(392,-102,cs),
(392,-56,o),
(363,-18,o),
(322,-18,cs)
);
}
);
width = 580;
}
);
note = uni0122;
},
{
glyphname = H.sc;
kernLeft = H;
kernRight = H;
lastChange = "2024-09-11 11:40:28 +0000";
layers = (
{
hints = (
{
horizontal = 1;
place = (550,-20);
target = down;
type = TopGhost;
},
{
horizontal = 1;
place = (211,138);
type = Stem;
},
{
horizontal = 1;
place = (0,21);
target = up;
type = BottomGhost;
},
{
place = (409,155);
type = Stem;
},
{
place = (53,155);
type = Stem;
}
);
layerId = m01;
shapes = (
{
closed = 1;
nodes = (
(409,550,l),
(409,350,l),
(208,350,l),
(208,550,l),
(53,550,l),
(53,0,l),
(208,0,l),
(208,211,l),
(409,211,l),
(409,0,l),
(564,0,l),
(564,550,l)
);
}
);
width = 617;
}
);
note = H;
},
{
glyphname = I.sc;
kernLeft = I;
kernRight = I;
lastChange = "2024-09-11 11:40:28 +0000";
layers = (
{
anchors = (
{
name = bottom;
pos = (130,550);
}
);
hints = (
{
horizontal = 1;
place = (550,-20);
target = down;
type = TopGhost;
},
{
horizontal = 1;
place = (0,21);
target = up;
type = BottomGhost;
},
{
place = (53,155);
type = Stem;
}
);
layerId = m01;
shapes = (
{
closed = 1;
nodes = (
(53,0,l),
(208,0,l),
(208,550,l),
(53,550,l)
);
}
);
width = 261;
}
);
note = I;
},
{
glyphname = Iacute.sc;
kernLeft = I;
kernRight = I;
lastChange = "2024-09-11 11:40:28 +0000";
layers = (
{
anchors = (
{
name = bottom;
pos = (130,699);
}
);
hints = (
{
horizontal = 1;
place = (550,-20);
target = down;
type = TopGhost;
},
{
horizontal = 1;
place = (0,21);
target = up;
type = BottomGhost;
},
{
place = (53,155);
type = Stem;
}
);
layerId = m01;
shapes = (
{
closed = 1;
nodes = (
(78,595,l),
(179,595,l),
(301,704,l),
(168,726,l)
);
},
{
closed = 1;
nodes = (
(53,0,l),
(208,0,l),
(208,550,l),
(53,550,l)
);
}
);
width = 261;
}
);
note = Iacute;
},
{
glyphname = Icircumflex.sc;
kernLeft = I;
kernRight = I;
lastChange = "2024-09-11 11:40:28 +0000";
layers = (
{
anchors = (
{
name = bottom;
pos = (130,699);
}
);
hints = (
{
horizontal = 1;
place = (550,-20);
target = down;
type = TopGhost;
},
{
horizontal = 1;
place = (649,70);
type = Stem;
},
{
horizontal = 1;
place = (595,123);
type = Stem;
},
{
horizontal = 1;
place = (0,21);
target = up;
type = BottomGhost;
},
{
place = (53,155);
type = Stem;
}
);
layerId = m01;
shapes = (
{
closed = 1;
nodes = (
(-18,595,l),
(72,595,l),
(130,649,l),
(190,595,l),
(280,595,l),
(193,718,l),
(69,718,l)
);
},
{
closed = 1;
nodes = (
(53,0,l),
(208,0,l),
(208,550,l),
(53,550,l)
);
}
);
width = 261;
}
);
note = Icircumflex;
},
{
glyphname = Idieresis.sc;
kernLeft = I;
kernRight = I;
lastChange = "2024-09-11 11:40:28 +0000";
layers = (
{
anchors = (
{
name = bottom;
pos = (130,699);
}
);
hints = (
{
horizontal = 1;
place = (550,-20);
target = down;
type = TopGhost;
},
{
horizontal = 1;
place = (596,138);
type = Stem;
},
{
horizontal = 1;
place = (0,21);
target = up;
type = BottomGhost;
},
{
place = (151,138);
type = Stem;
},
{
place = (151,57);
type = Stem;
},
{
place = (53,155);
type = Stem;
},
{
place = (53,57);
type = Stem;
},
{
place = (-29,138);
type = Stem;
}
);
layerId = m01;
shapes = (
{
closed = 1;
nodes = (
(78,596,o),
(110,627,o),
(110,666,cs),
(110,702,o),
(78,734,o),
(41,734,cs),
(1,734,o),
(-29,702,o),
(-29,666,cs),
(-29,627,o),
(1,596,o),
(41,596,cs)
);
},
{
closed = 1;
nodes = (
(259,596,o),
(290,627,o),
(290,666,cs),
(290,702,o),
(259,734,o),
(221,734,cs),
(182,734,o),
(151,702,o),
(151,666,cs),
(151,627,o),
(182,596,o),
(221,596,cs)
);
},
{
closed = 1;
nodes = (
(53,0,l),
(208,0,l),
(208,550,l),
(53,550,l)
);
}
);
width = 261;
}
);
note = Idieresis;
},
{
glyphname = Idotaccent.sc;
kernLeft = I;
kernRight = I;
lastChange = "2024-09-11 11:40:28 +0000";
layers = (
{
anchors = (
{
name = bottom;
pos = (130,699);
}
);
hints = (
{
horizontal = 1;
place = (550,-20);
target = down;
type = TopGhost;
},
{
horizontal = 1;
place = (596,138);
type = Stem;
},
{
horizontal = 1;
place = (0,21);
target = up;
type = BottomGhost;
},
{
place = (61,138);
type = Stem;
},
{
place = (53,155);
type = Stem;
},
{
place = (53,146);
type = Stem;
}
);
layerId = m01;
shapes = (
{
closed = 1;
nodes = (
(168,596,o),
(199,627,o),
(199,666,cs),
(199,702,o),
(168,734,o),
(130,734,cs),
(90,734,o),
(61,702,o),
(61,666,cs),
(61,627,o),
(90,596,o),
(130,596,cs)
);
},
{
closed = 1;
nodes = (
(53,0,l),
(208,0,l),
(208,550,l),
(53,550,l)
);
}
);
width = 261;
}
);
note = Idotaccent;
},
{
glyphname = Igrave.sc;
kernLeft = I;
kernRight = I;
lastChange = "2024-09-11 11:40:28 +0000";
layers = (
{
anchors = (
{
name = bottom;
pos = (130,699);
}
);
hints = (
{
horizontal = 1;
place = (550,-20);
target = down;
type = TopGhost;
},
{
horizontal = 1;
place = (0,21);
target = up;
type = BottomGhost;
},
{
place = (53,155);
type = Stem;
}
);
layerId = m01;
shapes = (
{
closed = 1;
nodes = (
(83,595,l),
(184,595,l),
(94,726,l),
(-38,704,l)
);
},
{
closed = 1;
nodes = (
(53,0,l),
(208,0,l),
(208,550,l),
(53,550,l)
);
}
);
width = 261;
}
);
note = Igrave;
},
{
glyphname = Imacron.sc;
kernLeft = I;
kernRight = I;
lastChange = "2024-09-11 11:40:28 +0000";
layers = (
{
anchors = (
{
name = bottom;
pos = (130,699);
}
);
hints = (
{
horizontal = 1;
place = (550,-20);
target = down;
type = TopGhost;
},
{
horizontal = 1;
place = (594,85);
type = Stem;
},
{
horizontal = 1;
place = (0,21);
target = up;
type = BottomGhost;
},
{
place = (53,155);
type = Stem;
}
);
layerId = m01;
shapes = (
{
closed = 1;
nodes = (
(-18,594,l),
(278,594,l),
(278,679,l),
(-18,679,l)
);
},
{
closed = 1;
nodes = (
(53,0,l),
(208,0,l),
(208,550,l),
(53,550,l)
);
}
);
width = 261;
}
);
note = Imacron;
},
{
glyphname = Iogonek.sc;
kernLeft = I;
kernRight = I;
lastChange = "2024-09-11 11:40:28 +0000";
layers = (
{
anchors = (
{
name = bottom;
pos = (130,550);
}
);
hints = (
{
horizontal = 1;
place = (550,-20);
target = down;
type = TopGhost;
},
{
horizontal = 1;
place = (-138,86);
type = Stem;
},
{
horizontal = 1;
place = (0,21);
target = up;
type = BottomGhost;
},
{
place = (86,122);
type = Stem;
},
{
place = (53,155);
type = Stem;
},
{
place = (53,125);
type = Stem;
}
);
layerId = m01;
shapes = (
{
closed = 1;
nodes = (
(233,-45,l),
(227,-50,o),
(218,-53,o),
(209,-53,cs),
(190,-53,o),
(178,-46,o),
(178,-29,cs),
(178,-12,o),
(190,0,o),
(208,0,c),
(208,550,l),
(53,550,l),
(53,0,l),
(98,0,l),
(90,-14,o),
(86,-29,o),
(86,-47,cs),
(86,-103,o),
(123,-138,o),
(176,-138,cs),
(207,-138,o),
(233,-126,o),
(250,-110,c)
);
}
);
width = 261;
}
);
note = Iogonek;
},
{
glyphname = J.sc;
kernLeft = J;
kernRight = J;
lastChange = "2024-09-11 11:40:28 +0000";
layers = (
{
hints = (
{
horizontal = 1;
place = (550,-20);
target = down;
type = TopGhost;
},
{
horizontal = 1;
place = (-10,141);
type = Stem;
},
{
place = (242,155);
type = Stem;
}
);
layerId = m01;
shapes = (
{
closed = 1;
nodes = (
(314,-10,o),
(397,69,o),
(397,179,cs),
(397,550,l),
(242,550,l),
(242,195,ls),
(242,158,o),
(214,131,o),
(177,131,cs),
(149,131,o),
(118,151,o),
(103,179,c),
(3,82,l),
(42,28,o),
(123,-10,o),
(198,-10,cs)
);
}
);
width = 439;
}
);
note = J;
},
{
glyphname = K.sc;
kernLeft = K;
kernRight = K;
lastChange = "2024-09-11 11:40:28 +0000";
layers = (
{
hints = (
{
horizontal = 1;
place = (550,-20);
target = down;
type = TopGhost;
},
{
horizontal = 1;
place = (0,21);
target = up;
type = BottomGhost;
},
{
place = (53,155);
type = Stem;
}
);
layerId = m01;
shapes = (
{
closed = 1;
nodes = (
(53,0,l),
(208,0,l),
(208,146,l),
(265,208,l),
(406,0,l),
(592,0,l),
(373,320,l),
(576,550,l),
(393,550,l),
(208,333,l),
(208,550,l),
(53,550,l)
);
}
);
width = 600;
}
);
note = K;
},
{
glyphname = uni0136.sc;
kernLeft = K;
kernRight = K;
lastChange = "2024-09-11 11:40:28 +0000";
layers = (
{
hints = (
{
horizontal = 1;
place = (550,-20);
target = down;
type = TopGhost;
},
{
horizontal = 1;
place = (-156,138);
type = Stem;
},
{
horizontal = 1;
place = (0,21);
target = up;
type = BottomGhost;
},
{
place = (255,137);
type = Stem;
},
{
place = (53,155);
type = Stem;
}
);
layerId = m01;
shapes = (
{
closed = 1;
nodes = (
(53,0,l),
(208,0,l),
(208,146,l),
(265,208,l),
(406,0,l),
(592,0,l),
(373,320,l),
(576,550,l),
(393,550,l),
(208,333,l),
(208,550,l),
(53,550,l)
);
},
{
closed = 1;
nodes = (
(318,-241,l),
(362,-205,o),
(392,-150,o),
(392,-102,cs),
(392,-56,o),
(363,-18,o),
(322,-18,cs),
(283,-18,o),
(255,-47,o),
(255,-88,cs),
(255,-128,o),
(282,-156,o),
(320,-156,c),
(315,-174,o),
(299,-197,o),
(281,-212,c)
);
}
);
width = 600;
}
);
note = uni0136;
},
{
glyphname = L.sc;
kernLeft = L;
kernRight = L;
lastChange = "2024-09-11 11:40:28 +0000";
layers = (
{
anchors = (
{
name = bottom;
pos = (130,550);
}
);
hints = (
{
horizontal = 1;
place = (550,-20);
target = down;
type = TopGhost;
},
{
horizontal = 1;
place = (0,138);
type = Stem;
},
{
place = (53,155);
type = Stem;
}
);
layerId = m01;
shapes = (
{
closed = 1;
nodes = (
(208,138,l),
(208,550,l),
(53,550,l),
(53,0,l),
(464,0,l),
(464,138,l)
);
}
);
width = 480;
}
);
note = L;
},
{
glyphname = Lacute.sc;
kernLeft = L;
kernRight = L;
lastChange = "2024-09-11 11:40:28 +0000";
layers = (
{
anchors = (
{
name = bottom;
pos = (130,699);
}
);
hints = (
{
horizontal = 1;
place = (550,-20);
target = down;
type = TopGhost;
},
{
horizontal = 1;
place = (0,138);
type = Stem;
},
{
place = (53,155);
type = Stem;
}
);
layerId = m01;
shapes = (
{
closed = 1;
nodes = (
(300,704,l),
(167,726,l),
(78,595,l),
(178,595,l)
);
},
{
closed = 1;
nodes = (
(208,138,l),
(208,550,l),
(53,550,l),
(53,0,l),
(464,0,l),
(464,138,l)
);
}
);
width = 480;
}
);
note = Lacute;
},
{
glyphname = Lcaron.sc;
kernLeft = L;
kernRight = L;
lastChange = "2024-09-11 11:40:28 +0000";
layers = (
{
anchors = (
{
name = bottom;
pos = (130,550);
}
);
hints = (
{
horizontal = 1;
place = (550,-20);
target = down;
type = TopGhost;
},
{
horizontal = 1;
place = (421,138);
type = Stem;
},
{
horizontal = 1;
place = (0,138);
type = Stem;
},
{
place = (253,137);
type = Stem;
},
{
place = (53,155);
type = Stem;
}
);
layerId = m01;
shapes = (
{
closed = 1;
nodes = (
(313,402,o),
(297,380,o),
(278,365,c),
(315,336,l),
(359,372,o),
(390,426,o),
(390,474,cs),
(390,521,o),
(361,558,o),
(320,558,cs),
(281,558,o),
(253,530,o),
(253,489,cs),
(253,449,o),
(279,421,o),
(318,421,c)
);
},
{
closed = 1;
nodes = (
(208,138,l),
(208,550,l),
(53,550,l),
(53,0,l),
(464,0,l),
(464,138,l)
);
}
);
width = 480;
}
);
note = Lcaron;
},
{
glyphname = Lslash.sc;
kernLeft = Lslash;
kernRight = Lslash;
lastChange = "2024-09-11 11:40:28 +0000";
layers = (
{
anchors = (
{
name = bottom;
pos = (159,550);
}
);
hints = (
{
horizontal = 1;
place = (550,-20);
target = down;
type = TopGhost;
},
{
horizontal = 1;
place = (420,-20);
target = down;
type = TopGhost;
},
{
horizontal = 1;
place = (0,138);
type = Stem;
},
{
place = (82,155);
type = Stem;
}
);
layerId = m01;
shapes = (
{
closed = 1;
nodes = (
(238,138,l),
(238,252,l),
(308,286,l),
(308,420,l),
(238,386,l),
(238,550,l),
(82,550,l),
(82,309,l),
(15,276,l),
(15,142,l),
(82,175,l),
(82,0,l),
(494,0,l),
(494,138,l)
);
}
);
width = 510;
}
);
note = Lslash;
},
{
glyphname = M.sc;
kernLeft = M;
kernRight = M;
lastChange = "2024-09-11 11:40:28 +0000";
layers = (
{
hints = (
{
horizontal = 1;
place = (550,-20);
target = down;
type = TopGhost;
},
{
horizontal = 1;
place = (0,21);
target = up;
type = BottomGhost;
},
{
place = (502,155);
type = Stem;
},
{
place = (53,155);
type = Stem;
}
);
layerId = m01;
shapes = (
{
closed = 1;
nodes = (
(53,0,l),
(208,0,l),
(208,294,l),
(355,32,l),
(502,294,l),
(502,0,l),
(658,0,l),
(658,550,l),
(502,550,l),
(355,287,l),
(208,550,l),
(53,550,l)
);
}
);
width = 710;
}
);
note = M;
},
{
glyphname = N.sc;
kernLeft = N;
kernRight = N;
lastChange = "2024-09-11 11:40:28 +0000";
layers = (
{
anchors = (
{
name = bottom;
pos = (315,550);
}
);
hints = (
{
horizontal = 1;
place = (550,-20);
target = down;
type = TopGhost;
},
{
horizontal = 1;
place = (0,21);
target = up;
type = BottomGhost;
},
{
place = (422,155);
type = Stem;
},
{
place = (53,155);
type = Stem;
}
);
layerId = m01;
shapes = (
{
closed = 1;
nodes = (
(53,0,l),
(208,0,l),
(208,294,l),
(422,0,l),
(578,0,l),
(578,550,l),
(422,550,l),
(422,255,l),
(208,550,l),
(53,550,l)
);
}
);
width = 630;
}
);
note = N;
},
{
glyphname = Nacute.sc;
kernLeft = N;
kernRight = N;
lastChange = "2024-09-11 11:40:28 +0000";
layers = (
{
anchors = (
{
name = bottom;
pos = (315,699);
}
);
hints = (
{
horizontal = 1;
place = (550,-20);
target = down;
type = TopGhost;
},
{
horizontal = 1;
place = (0,21);
target = up;
type = BottomGhost;
},
{
place = (422,155);
type = Stem;
},
{
place = (53,155);
type = Stem;
}
);
layerId = m01;
shapes = (
{
closed = 1;
nodes = (
(263,595,l),
(364,595,l),
(486,704,l),
(353,726,l)
);
},
{
closed = 1;
nodes = (
(53,0,l),
(208,0,l),
(208,294,l),
(422,0,l),
(578,0,l),
(578,550,l),
(422,550,l),
(422,255,l),
(208,550,l),
(53,550,l)
);
}
);
width = 630;
}
);
note = Nacute;
},
{
glyphname = Ncaron.sc;
kernLeft = N;
kernRight = N;
lastChange = "2024-09-11 11:40:28 +0000";
layers = (
{
anchors = (
{
name = bottom;
pos = (315,699);
}
);
hints = (
{
horizontal = 1;
place = (550,-20);
target = down;
type = TopGhost;
},
{
horizontal = 1;
place = (595,123);
type = Stem;
},
{
horizontal = 1;
place = (0,21);
target = up;
type = BottomGhost;
},
{
place = (422,155);
type = Stem;
},
{
place = (53,155);
type = Stem;
}
);
layerId = m01;
shapes = (
{
closed = 1;
nodes = (
(254,595,l),
(378,595,l),
(465,718,l),
(374,718,l),
(315,665,l),
(257,718,l),
(167,718,l)
);
},
{
closed = 1;
nodes = (
(53,0,l),
(208,0,l),
(208,294,l),
(422,0,l),
(578,0,l),
(578,550,l),
(422,550,l),
(422,255,l),
(208,550,l),
(53,550,l)
);
}
);
width = 630;
}
);
note = Ncaron;
},
{
glyphname = uni0145.sc;
kernLeft = N;
kernRight = N;
lastChange = "2024-09-11 11:40:28 +0000";
layers = (
{
anchors = (
{
name = bottom;
pos = (315,550);
}
);
hints = (
{
horizontal = 1;
place = (550,-20);
target = down;
type = TopGhost;
},
{
horizontal = 1;
place = (-156,138);
type = Stem;
},
{
horizontal = 1;
place = (0,21);
target = up;
type = BottomGhost;
},
{
place = (422,155);
type = Stem;
},
{
place = (248,137);
type = Stem;
},
{
place = (53,155);
type = Stem;
}
);
layerId = m01;
shapes = (
{
closed = 1;
nodes = (
(53,0,l),
(208,0,l),
(208,294,l),
(422,0,l),
(578,0,l),
(578,550,l),
(422,550,l),
(422,255,l),
(208,550,l),
(53,550,l)
);
},
{
closed = 1;
nodes = (
(310,-241,l),
(354,-205,o),
(385,-150,o),
(385,-102,cs),
(385,-56,o),
(356,-18,o),
(315,-18,cs),
(276,-18,o),
(248,-47,o),
(248,-88,cs),
(248,-128,o),
(274,-156,o),
(313,-156,c),
(308,-174,o),
(292,-197,o),
(274,-212,c)
);
}
);
width = 630;
}
);
note = uni0145;
},
{
glyphname = Ntilde.sc;
kernLeft = N;
kernRight = N;
lastChange = "2024-09-11 11:40:28 +0000";
layers = (
{
anchors = (
{
name = bottom;
pos = (315,699);
}
);
hints = (
{
horizontal = 1;
place = (550,-20);
target = down;
type = TopGhost;
},
{
horizontal = 1;
place = (626,90);
type = Stem;
},
{
horizontal = 1;
place = (593,90);
type = Stem;
},
{
horizontal = 1;
place = (0,21);
target = up;
type = BottomGhost;
},
{
place = (422,155);
type = Stem;
},
{
place = (53,155);
type = Stem;
}
);
layerId = m01;
shapes = (
{
closed = 1;
nodes = (
(429,593,o),
(459,630,o),
(467,706,c),
(395,716,l),
(390,694,o),
(382,682,o),
(366,682,cs),
(345,682,o),
(302,715,o),
(259,715,cs),
(201,715,o),
(171,678,o),
(162,602,c),
(234,592,l),
(239,615,o),
(248,626,o),
(264,626,cs),
(286,626,o),
(326,593,o),
(370,593,cs)
);
},
{
closed = 1;
nodes = (
(53,0,l),
(208,0,l),
(208,294,l),
(422,0,l),
(578,0,l),
(578,550,l),
(422,550,l),
(422,255,l),
(208,550,l),
(53,550,l)
);
}
);
width = 630;
}
);
note = Ntilde;
},
{
glyphname = O.sc;
kernLeft = O;
kernRight = O;
lastChange = "2024-09-11 11:40:28 +0000";
layers = (
{
anchors = (
{
name = bottom;
pos = (318,550);
}
);
hints = (
{
horizontal = 1;
place = (418,141);
type = Stem;
},
{
horizontal = 1;
place = (-10,141);
type = Stem;
},
{
place = (458,160);
type = Stem;
},
{
place = (19,160);
type = Stem;
}
);
layerId = m01;
shapes = (
{
closed = 1;
nodes = (
(481,-10,o),
(618,121,o),
(618,275,cs),
(618,430,o),
(481,559,o),
(318,559,cs),
(156,559,o),
(19,430,o),
(19,275,cs),
(19,121,o),
(156,-10,o),
(318,-10,cs)
);
},
{
closed = 1;
nodes = (
(243,131,o),
(179,197,o),
(179,275,cs),
(179,353,o),
(243,418,o),
(318,418,cs),
(394,418,o),
(458,353,o),
(458,275,cs),
(458,197,o),
(394,131,o),
(318,131,cs)
);
}
);
width = 637;
}
);
note = O;
},
{
glyphname = Oacute.sc;
kernLeft = O;
kernRight = O;
lastChange = "2024-09-11 11:40:28 +0000";
layers = (
{
anchors = (
{
name = bottom;
pos = (318,699);
}
);
hints = (
{
horizontal = 1;
place = (418,141);
type = Stem;
},
{
horizontal = 1;
place = (-10,141);
type = Stem;
},
{
place = (458,160);
type = Stem;
},
{
place = (19,160);
type = Stem;
}
);
layerId = m01;
shapes = (
{
closed = 1;
nodes = (
(266,595,l),
(367,595,l),
(489,704,l),
(356,726,l)
);
},
{
closed = 1;
nodes = (
(481,-10,o),
(618,121,o),
(618,275,cs),
(618,430,o),
(481,559,o),
(318,559,cs),
(156,559,o),
(19,430,o),
(19,275,cs),
(19,121,o),
(156,-10,o),
(318,-10,cs)
);
},
{
closed = 1;
nodes = (
(243,131,o),
(179,197,o),
(179,275,cs),
(179,353,o),
(243,418,o),
(318,418,cs),
(394,418,o),
(458,353,o),
(458,275,cs),
(458,197,o),
(394,131,o),
(318,131,cs)
);
}
);
width = 637;
}
);
note = Oacute;
},
{
glyphname = Ocircumflex.sc;
kernLeft = O;
kernRight = O;
lastChange = "2024-09-11 11:40:28 +0000";
layers = (
{
anchors = (
{
name = bottom;
pos = (318,699);
}
);
hints = (
{
horizontal = 1;
place = (649,70);
type = Stem;
},
{
horizontal = 1;
place = (595,123);
type = Stem;
},
{
horizontal = 1;
place = (418,141);
type = Stem;
},
{
horizontal = 1;
place = (-10,141);
type = Stem;
},
{
place = (458,160);
type = Stem;
},
{
place = (19,160);
type = Stem;
}
);
layerId = m01;
shapes = (
{
closed = 1;
nodes = (
(170,595,l),
(260,595,l),
(318,649,l),
(378,595,l),
(468,595,l),
(381,718,l),
(257,718,l)
);
},
{
closed = 1;
nodes = (
(481,-10,o),
(618,121,o),
(618,275,cs),
(618,430,o),
(481,559,o),
(318,559,cs),
(156,559,o),
(19,430,o),
(19,275,cs),
(19,121,o),
(156,-10,o),
(318,-10,cs)
);
},
{
closed = 1;
nodes = (
(243,131,o),
(179,197,o),
(179,275,cs),
(179,353,o),
(243,418,o),
(318,418,cs),
(394,418,o),
(458,353,o),
(458,275,cs),
(458,197,o),
(394,131,o),
(318,131,cs)
);
}
);
width = 637;
}
);
note = Ocircumflex;
},
{
glyphname = Odieresis.sc;
kernLeft = O;
kernRight = O;
lastChange = "2024-09-11 11:40:28 +0000";
layers = (
{
anchors = (
{
name = bottom;
pos = (318,699);
}
);
hints = (
{
horizontal = 1;
place = (596,138);
type = Stem;
},
{
horizontal = 1;
place = (418,141);
type = Stem;
},
{
horizontal = 1;
place = (-10,141);
type = Stem;
},
{
place = (458,160);
type = Stem;
},
{
place = (339,138);
type = Stem;
},
{
place = (159,138);
type = Stem;
},
{
place = (19,160);
type = Stem;
}
);
layerId = m01;
shapes = (
{
closed = 1;
nodes = (
(266,596,o),
(298,627,o),
(298,666,cs),
(298,702,o),
(266,734,o),
(229,734,cs),
(189,734,o),
(159,702,o),
(159,666,cs),
(159,627,o),
(189,596,o),
(229,596,cs)
);
},
{
closed = 1;
nodes = (
(447,596,o),
(478,627,o),
(478,666,cs),
(478,702,o),
(447,734,o),
(409,734,cs),
(370,734,o),
(339,702,o),
(339,666,cs),
(339,627,o),
(370,596,o),
(409,596,cs)
);
},
{
closed = 1;
nodes = (
(481,-10,o),
(618,121,o),
(618,275,cs),
(618,430,o),
(481,559,o),
(318,559,cs),
(156,559,o),
(19,430,o),
(19,275,cs),
(19,121,o),
(156,-10,o),
(318,-10,cs)
);
},
{
closed = 1;
nodes = (
(243,131,o),
(179,197,o),
(179,275,cs),
(179,353,o),
(243,418,o),
(318,418,cs),
(394,418,o),
(458,353,o),
(458,275,cs),
(458,197,o),
(394,131,o),
(318,131,cs)
);
}
);
width = 637;
}
);
note = Odieresis;
},
{
glyphname = Ograve.sc;
kernLeft = O;
kernRight = O;
lastChange = "2024-09-11 11:40:28 +0000";
layers = (
{
anchors = (
{
name = bottom;
pos = (318,699);
}
);
hints = (
{
horizontal = 1;
place = (418,141);
type = Stem;
},
{
horizontal = 1;
place = (-10,141);
type = Stem;
},
{
place = (458,160);
type = Stem;
},
{
place = (19,160);
type = Stem;
}
);
layerId = m01;
shapes = (
{
closed = 1;
nodes = (
(271,595,l),
(372,595,l),
(282,726,l),
(150,704,l)
);
},
{
closed = 1;
nodes = (
(481,-10,o),
(618,121,o),
(618,275,cs),
(618,430,o),
(481,559,o),
(318,559,cs),
(156,559,o),
(19,430,o),
(19,275,cs),
(19,121,o),
(156,-10,o),
(318,-10,cs)
);
},
{
closed = 1;
nodes = (
(243,131,o),
(179,197,o),
(179,275,cs),
(179,353,o),
(243,418,o),
(318,418,cs),
(394,418,o),
(458,353,o),
(458,275,cs),
(458,197,o),
(394,131,o),
(318,131,cs)
);
}
);
width = 637;
}
);
note = Ograve;
},
{
glyphname = Ohungarumlaut.sc;
kernLeft = O;
kernRight = O;
lastChange = "2024-09-11 11:40:28 +0000";
layers = (
{
anchors = (
{
name = bottom;
pos = (318,699);
}
);
hints = (
{
horizontal = 1;
place = (418,141);
type = Stem;
},
{
horizontal = 1;
place = (-10,141);
type = Stem;
},
{
place = (458,160);
type = Stem;
},
{
place = (19,160);
type = Stem;
}
);
layerId = m01;
shapes = (
{
closed = 1;
nodes = (
(166,595,l),
(266,595,l),
(388,704,l),
(255,726,l)
);
},
{
closed = 1;
nodes = (
(372,595,l),
(473,595,l),
(594,704,l),
(462,726,l)
);
},
{
closed = 1;
nodes = (
(481,-10,o),
(618,121,o),
(618,275,cs),
(618,430,o),
(481,559,o),
(318,559,cs),
(156,559,o),
(19,430,o),
(19,275,cs),
(19,121,o),
(156,-10,o),
(318,-10,cs)
);
},
{
closed = 1;
nodes = (
(243,131,o),
(179,197,o),
(179,275,cs),
(179,353,o),
(243,418,o),
(318,418,cs),
(394,418,o),
(458,353,o),
(458,275,cs),
(458,197,o),
(394,131,o),
(318,131,cs)
);
}
);
width = 637;
}
);
note = Ohungarumlaut;
},
{
glyphname = Omacron.sc;
kernLeft = O;
kernRight = O;
lastChange = "2024-09-11 11:40:28 +0000";
layers = (
{
anchors = (
{
name = bottom;
pos = (318,699);
}
);
hints = (
{
horizontal = 1;
place = (594,85);
type = Stem;
},
{
horizontal = 1;
place = (418,141);
type = Stem;
},
{
horizontal = 1;
place = (-10,141);
type = Stem;
},
{
place = (458,160);
type = Stem;
},
{
place = (170,295);
type = Stem;
},
{
place = (19,160);
type = Stem;
}
);
layerId = m01;
shapes = (
{
closed = 1;
nodes = (
(170,594,l),
(466,594,l),
(466,679,l),
(170,679,l)
);
},
{
closed = 1;
nodes = (
(481,-10,o),
(618,121,o),
(618,275,cs),
(618,430,o),
(481,559,o),
(318,559,cs),
(156,559,o),
(19,430,o),
(19,275,cs),
(19,121,o),
(156,-10,o),
(318,-10,cs)
);
},
{
closed = 1;
nodes = (
(243,131,o),
(179,197,o),
(179,275,cs),
(179,353,o),
(243,418,o),
(318,418,cs),
(394,418,o),
(458,353,o),
(458,275,cs),
(458,197,o),
(394,131,o),
(318,131,cs)
);
}
);
width = 637;
}
);
note = Omacron;
},
